<mxfile host="Electron" modified="2023-04-23T02:44:20.395Z" agent="Mozilla/5.0 (Macintosh; Intel Mac OS X 10_15_7) AppleWebKit/537.36 (KHTML, like Gecko) draw.io/21.2.1 Chrome/112.0.5615.87 Electron/24.1.2 Safari/537.36" etag="B8e2HfkkIUxBE2YPepwK" version="21.2.1" type="device" pages="4">
  <diagram id="R2lEEEUBdFMjLlhIrx00" name="proj_deliverable1">
    <mxGraphModel dx="1434" dy="782" grid="1" gridSize="10" guides="1" tooltips="1" connect="1" arrows="1" fold="1" page="1" pageScale="1" pageWidth="1000" pageHeight="660" math="0" shadow="0" extFonts="Permanent Marker^https://fonts.googleapis.com/css?family=Permanent+Marker">
      <root>
        <mxCell id="0" />
        <mxCell id="1" parent="0" />
        <mxCell id="5FPpdaSdyWe-lFuIZykh-84" value="WagonRegistration" style="shape=ext;margin=3;double=1;whiteSpace=wrap;html=1;align=center;fontSize=12;fontStyle=1" parent="1" vertex="1">
          <mxGeometry x="380" y="50" width="160" height="40" as="geometry" />
        </mxCell>
        <mxCell id="5FPpdaSdyWe-lFuIZykh-2" value="Passenger" style="whiteSpace=wrap;html=1;align=center;fontSize=12;fontStyle=1" parent="1" vertex="1">
          <mxGeometry x="140" y="290" width="80" height="40" as="geometry" />
        </mxCell>
        <mxCell id="5FPpdaSdyWe-lFuIZykh-7" value="Conductor" style="whiteSpace=wrap;html=1;align=center;fontSize=12;fontStyle=1" parent="1" vertex="1">
          <mxGeometry x="140" y="530" width="80" height="40" as="geometry" />
        </mxCell>
        <mxCell id="5FPpdaSdyWe-lFuIZykh-9" value="Track" style="whiteSpace=wrap;html=1;align=center;fontSize=12;fontStyle=1" parent="1" vertex="1">
          <mxGeometry x="460" y="530" width="80" height="40" as="geometry" />
        </mxCell>
        <mxCell id="5FPpdaSdyWe-lFuIZykh-10" value="Station" style="whiteSpace=wrap;html=1;align=center;fontSize=12;fontStyle=1" parent="1" vertex="1">
          <mxGeometry x="780" y="530" width="80" height="40" as="geometry" />
        </mxCell>
        <mxCell id="5FPpdaSdyWe-lFuIZykh-12" value="Wagon" style="whiteSpace=wrap;html=1;align=center;fontSize=12;fontStyle=1" parent="1" vertex="1">
          <mxGeometry x="780" y="50" width="80" height="40" as="geometry" />
        </mxCell>
        <mxCell id="5FPpdaSdyWe-lFuIZykh-13" value="Locomotive" style="whiteSpace=wrap;html=1;align=center;fontSize=12;fontStyle=1" parent="1" vertex="1">
          <mxGeometry x="780" y="290" width="80" height="40" as="geometry" />
        </mxCell>
        <mxCell id="5FPpdaSdyWe-lFuIZykh-15" value="Powers" style="shape=rhombus;perimeter=rhombusPerimeter;whiteSpace=wrap;html=1;align=center;fontSize=11;" parent="1" vertex="1">
          <mxGeometry x="620" y="290" width="80" height="40" as="geometry" />
        </mxCell>
        <mxCell id="5FPpdaSdyWe-lFuIZykh-22" value="Builds" style="shape=rhombus;perimeter=rhombusPerimeter;whiteSpace=wrap;html=1;align=center;fontSize=11;" parent="1" vertex="1">
          <mxGeometry x="620" y="50" width="80" height="40" as="geometry" />
        </mxCell>
        <mxCell id="5FPpdaSdyWe-lFuIZykh-26" value="Controls" style="shape=rhombus;perimeter=rhombusPerimeter;whiteSpace=wrap;html=1;align=center;fontSize=11;" parent="1" vertex="1">
          <mxGeometry x="300" y="410" width="80" height="40" as="geometry" />
        </mxCell>
        <mxCell id="5FPpdaSdyWe-lFuIZykh-31" value="" style="endArrow=none;html=1;rounded=0;exitX=0;exitY=1;exitDx=0;exitDy=0;entryX=1;entryY=0;entryDx=0;entryDy=0;" parent="1" source="5FPpdaSdyWe-lFuIZykh-26" target="5FPpdaSdyWe-lFuIZykh-7" edge="1">
          <mxGeometry relative="1" as="geometry">
            <mxPoint x="310" y="320" as="sourcePoint" />
            <mxPoint x="180" y="500" as="targetPoint" />
          </mxGeometry>
        </mxCell>
        <mxCell id="5FPpdaSdyWe-lFuIZykh-32" value="N" style="resizable=0;html=1;align=right;verticalAlign=bottom;" parent="5FPpdaSdyWe-lFuIZykh-31" connectable="0" vertex="1">
          <mxGeometry x="1" relative="1" as="geometry">
            <mxPoint x="10" y="-10" as="offset" />
          </mxGeometry>
        </mxCell>
        <mxCell id="5FPpdaSdyWe-lFuIZykh-33" value="" style="endArrow=none;html=1;rounded=0;entryX=0;entryY=0.5;entryDx=0;entryDy=0;exitX=1;exitY=0.5;exitDx=0;exitDy=0;" parent="1" source="5FPpdaSdyWe-lFuIZykh-15" target="5FPpdaSdyWe-lFuIZykh-13" edge="1">
          <mxGeometry relative="1" as="geometry">
            <mxPoint x="510" y="180" as="sourcePoint" />
            <mxPoint x="510" y="100" as="targetPoint" />
          </mxGeometry>
        </mxCell>
        <mxCell id="5FPpdaSdyWe-lFuIZykh-34" value="N" style="resizable=0;html=1;align=right;verticalAlign=bottom;" parent="5FPpdaSdyWe-lFuIZykh-33" connectable="0" vertex="1">
          <mxGeometry x="1" relative="1" as="geometry">
            <mxPoint x="-10" as="offset" />
          </mxGeometry>
        </mxCell>
        <mxCell id="5FPpdaSdyWe-lFuIZykh-36" value="Travels" style="shape=rhombus;perimeter=rhombusPerimeter;whiteSpace=wrap;html=1;align=center;fontSize=11;" parent="1" vertex="1">
          <mxGeometry x="460" y="410" width="80" height="40" as="geometry" />
        </mxCell>
        <mxCell id="5FPpdaSdyWe-lFuIZykh-37" value="" style="endArrow=none;html=1;rounded=0;exitX=0.5;exitY=0;exitDx=0;exitDy=0;entryX=0.5;entryY=1;entryDx=0;entryDy=0;" parent="1" source="5FPpdaSdyWe-lFuIZykh-36" target="5FPpdaSdyWe-lFuIZykh-88" edge="1">
          <mxGeometry relative="1" as="geometry">
            <mxPoint x="710" y="320" as="sourcePoint" />
            <mxPoint x="520" y="350" as="targetPoint" />
          </mxGeometry>
        </mxCell>
        <mxCell id="5FPpdaSdyWe-lFuIZykh-38" value="N" style="resizable=0;html=1;align=right;verticalAlign=bottom;" parent="5FPpdaSdyWe-lFuIZykh-37" connectable="0" vertex="1">
          <mxGeometry x="1" relative="1" as="geometry">
            <mxPoint x="-10" y="20" as="offset" />
          </mxGeometry>
        </mxCell>
        <mxCell id="5FPpdaSdyWe-lFuIZykh-43" value="Contains" style="shape=rhombus;perimeter=rhombusPerimeter;whiteSpace=wrap;html=1;align=center;fontSize=11;" parent="1" vertex="1">
          <mxGeometry x="620" y="530" width="80" height="40" as="geometry" />
        </mxCell>
        <mxCell id="5FPpdaSdyWe-lFuIZykh-44" value="" style="endArrow=none;html=1;rounded=0;entryX=0;entryY=0.5;entryDx=0;entryDy=0;exitX=1;exitY=0.5;exitDx=0;exitDy=0;" parent="1" source="5FPpdaSdyWe-lFuIZykh-43" target="5FPpdaSdyWe-lFuIZykh-10" edge="1">
          <mxGeometry relative="1" as="geometry">
            <mxPoint x="510" y="420" as="sourcePoint" />
            <mxPoint x="510" y="340" as="targetPoint" />
          </mxGeometry>
        </mxCell>
        <mxCell id="5FPpdaSdyWe-lFuIZykh-45" value="N" style="resizable=0;html=1;align=right;verticalAlign=bottom;" parent="5FPpdaSdyWe-lFuIZykh-44" connectable="0" vertex="1">
          <mxGeometry x="1" relative="1" as="geometry">
            <mxPoint x="-10" as="offset" />
          </mxGeometry>
        </mxCell>
        <mxCell id="W7kSrh-7kcPRWJRy0-A8-4" value="1" style="rounded=0;orthogonalLoop=1;jettySize=auto;html=1;exitX=1;exitY=0.5;exitDx=0;exitDy=0;entryX=0;entryY=0.5;entryDx=0;entryDy=0;fontSize=12;" parent="1" source="5FPpdaSdyWe-lFuIZykh-46" target="5FPpdaSdyWe-lFuIZykh-88" edge="1">
          <mxGeometry x="0.5" y="10" relative="1" as="geometry">
            <mxPoint as="offset" />
          </mxGeometry>
        </mxCell>
        <mxCell id="5FPpdaSdyWe-lFuIZykh-46" value="Boards" style="shape=rhombus;perimeter=rhombusPerimeter;whiteSpace=wrap;html=1;align=center;fontSize=11;" parent="1" vertex="1">
          <mxGeometry x="300" y="290" width="80" height="40" as="geometry" />
        </mxCell>
        <mxCell id="5FPpdaSdyWe-lFuIZykh-63" value="Carries" style="shape=rhombus;perimeter=rhombusPerimeter;whiteSpace=wrap;html=1;align=center;fontSize=11;" parent="1" vertex="1">
          <mxGeometry x="460" y="170" width="80" height="40" as="geometry" />
        </mxCell>
        <mxCell id="5FPpdaSdyWe-lFuIZykh-69" value="" style="endArrow=none;html=1;rounded=0;entryX=0.75;entryY=1;entryDx=0;entryDy=0;exitX=0.5;exitY=0;exitDx=0;exitDy=0;" parent="1" source="5FPpdaSdyWe-lFuIZykh-63" target="5FPpdaSdyWe-lFuIZykh-84" edge="1">
          <mxGeometry relative="1" as="geometry">
            <mxPoint x="710" y="320" as="sourcePoint" />
            <mxPoint x="500" y="90" as="targetPoint" />
          </mxGeometry>
        </mxCell>
        <mxCell id="5FPpdaSdyWe-lFuIZykh-70" value="N" style="resizable=0;html=1;align=right;verticalAlign=bottom;" parent="5FPpdaSdyWe-lFuIZykh-69" connectable="0" vertex="1">
          <mxGeometry x="1" relative="1" as="geometry">
            <mxPoint x="-10" y="20" as="offset" />
          </mxGeometry>
        </mxCell>
        <mxCell id="5FPpdaSdyWe-lFuIZykh-71" value="" style="endArrow=none;html=1;rounded=0;entryX=0;entryY=0.5;entryDx=0;entryDy=0;exitX=1;exitY=0.5;exitDx=0;exitDy=0;" parent="1" source="5FPpdaSdyWe-lFuIZykh-22" target="5FPpdaSdyWe-lFuIZykh-12" edge="1">
          <mxGeometry relative="1" as="geometry">
            <mxPoint x="510" y="180" as="sourcePoint" />
            <mxPoint x="510" y="100" as="targetPoint" />
          </mxGeometry>
        </mxCell>
        <mxCell id="5FPpdaSdyWe-lFuIZykh-72" value="N" style="resizable=0;html=1;align=right;verticalAlign=bottom;" parent="5FPpdaSdyWe-lFuIZykh-71" connectable="0" vertex="1">
          <mxGeometry x="1" relative="1" as="geometry">
            <mxPoint x="-10" as="offset" />
          </mxGeometry>
        </mxCell>
        <mxCell id="5FPpdaSdyWe-lFuIZykh-77" value="" style="endArrow=none;html=1;rounded=0;exitX=0;exitY=0.5;exitDx=0;exitDy=0;entryX=1;entryY=0.5;entryDx=0;entryDy=0;" parent="1" source="5FPpdaSdyWe-lFuIZykh-46" target="5FPpdaSdyWe-lFuIZykh-2" edge="1">
          <mxGeometry relative="1" as="geometry">
            <mxPoint x="330" y="450" as="sourcePoint" />
            <mxPoint x="230" y="540" as="targetPoint" />
          </mxGeometry>
        </mxCell>
        <mxCell id="5FPpdaSdyWe-lFuIZykh-78" value="N" style="resizable=0;html=1;align=right;verticalAlign=bottom;" parent="5FPpdaSdyWe-lFuIZykh-77" connectable="0" vertex="1">
          <mxGeometry x="1" relative="1" as="geometry">
            <mxPoint x="20" as="offset" />
          </mxGeometry>
        </mxCell>
        <mxCell id="5FPpdaSdyWe-lFuIZykh-88" value="Train" style="whiteSpace=wrap;html=1;align=center;fontSize=12;fontStyle=1" parent="1" vertex="1">
          <mxGeometry x="460" y="290" width="80" height="40" as="geometry" />
        </mxCell>
        <mxCell id="5FPpdaSdyWe-lFuIZykh-91" value="" style="endArrow=none;html=1;rounded=0;fontSize=11;exitX=1;exitY=0;exitDx=0;exitDy=0;entryX=0;entryY=1;entryDx=0;entryDy=0;" parent="1" source="XflrWnQReU5PlyJmsF73-1" target="5FPpdaSdyWe-lFuIZykh-9" edge="1">
          <mxGeometry relative="1" as="geometry">
            <mxPoint x="480" y="450" as="sourcePoint" />
            <mxPoint x="640" y="450" as="targetPoint" />
          </mxGeometry>
        </mxCell>
        <mxCell id="5FPpdaSdyWe-lFuIZykh-92" value="lat" style="ellipse;whiteSpace=wrap;html=1;align=center;fontSize=11;fontStyle=4" parent="1" vertex="1">
          <mxGeometry x="880" y="480" width="80" height="20" as="geometry" />
        </mxCell>
        <mxCell id="5FPpdaSdyWe-lFuIZykh-93" value="lng" style="ellipse;whiteSpace=wrap;html=1;align=center;fontSize=11;fontStyle=4" parent="1" vertex="1">
          <mxGeometry x="880" y="520" width="80" height="20" as="geometry" />
        </mxCell>
        <mxCell id="5FPpdaSdyWe-lFuIZykh-96" value="name" style="ellipse;whiteSpace=wrap;html=1;align=center;fontSize=11;fontStyle=0" parent="1" vertex="1">
          <mxGeometry x="880" y="560" width="80" height="20" as="geometry" />
        </mxCell>
        <mxCell id="5FPpdaSdyWe-lFuIZykh-97" value="has_elevator" style="ellipse;whiteSpace=wrap;html=1;align=center;fontSize=11;fontStyle=0" parent="1" vertex="1">
          <mxGeometry x="880" y="600" width="80" height="20" as="geometry" />
        </mxCell>
        <mxCell id="5FPpdaSdyWe-lFuIZykh-98" value="" style="endArrow=none;html=1;rounded=0;fontSize=11;exitX=1;exitY=0.25;exitDx=0;exitDy=0;entryX=0;entryY=0.5;entryDx=0;entryDy=0;" parent="1" source="5FPpdaSdyWe-lFuIZykh-10" target="5FPpdaSdyWe-lFuIZykh-93" edge="1">
          <mxGeometry relative="1" as="geometry">
            <mxPoint x="438.8554928412382" y="603.074681718103" as="sourcePoint" />
            <mxPoint x="470" y="580" as="targetPoint" />
          </mxGeometry>
        </mxCell>
        <mxCell id="5FPpdaSdyWe-lFuIZykh-99" value="" style="endArrow=none;html=1;rounded=0;fontSize=11;exitX=1;exitY=0;exitDx=0;exitDy=0;entryX=0;entryY=1;entryDx=0;entryDy=0;" parent="1" source="5FPpdaSdyWe-lFuIZykh-10" target="5FPpdaSdyWe-lFuIZykh-92" edge="1">
          <mxGeometry relative="1" as="geometry">
            <mxPoint x="870" y="550" as="sourcePoint" />
            <mxPoint x="910" y="520" as="targetPoint" />
          </mxGeometry>
        </mxCell>
        <mxCell id="5FPpdaSdyWe-lFuIZykh-101" value="" style="endArrow=none;html=1;rounded=0;fontSize=11;exitX=1;exitY=0.75;exitDx=0;exitDy=0;entryX=0;entryY=0.5;entryDx=0;entryDy=0;" parent="1" source="5FPpdaSdyWe-lFuIZykh-10" target="5FPpdaSdyWe-lFuIZykh-96" edge="1">
          <mxGeometry relative="1" as="geometry">
            <mxPoint x="890" y="570" as="sourcePoint" />
            <mxPoint x="930" y="540" as="targetPoint" />
          </mxGeometry>
        </mxCell>
        <mxCell id="5FPpdaSdyWe-lFuIZykh-102" value="" style="endArrow=none;html=1;rounded=0;fontSize=11;exitX=1;exitY=1;exitDx=0;exitDy=0;entryX=0;entryY=0;entryDx=0;entryDy=0;" parent="1" source="5FPpdaSdyWe-lFuIZykh-10" target="5FPpdaSdyWe-lFuIZykh-97" edge="1">
          <mxGeometry relative="1" as="geometry">
            <mxPoint x="900" y="580" as="sourcePoint" />
            <mxPoint x="940" y="550" as="targetPoint" />
          </mxGeometry>
        </mxCell>
        <mxCell id="5FPpdaSdyWe-lFuIZykh-103" value="name" style="ellipse;whiteSpace=wrap;html=1;align=center;fontSize=11;fontStyle=4" parent="1" vertex="1">
          <mxGeometry x="40" y="520" width="80" height="20" as="geometry" />
        </mxCell>
        <mxCell id="5FPpdaSdyWe-lFuIZykh-104" value="birth" style="ellipse;whiteSpace=wrap;html=1;align=center;fontSize=11;fontStyle=0" parent="1" vertex="1">
          <mxGeometry x="40" y="560" width="80" height="20" as="geometry" />
        </mxCell>
        <mxCell id="5FPpdaSdyWe-lFuIZykh-105" value="" style="endArrow=none;html=1;rounded=0;fontSize=11;exitX=1;exitY=0.5;exitDx=0;exitDy=0;entryX=0;entryY=0.25;entryDx=0;entryDy=0;" parent="1" source="5FPpdaSdyWe-lFuIZykh-103" target="5FPpdaSdyWe-lFuIZykh-7" edge="1">
          <mxGeometry relative="1" as="geometry">
            <mxPoint x="438.8554928412382" y="603.074681718103" as="sourcePoint" />
            <mxPoint x="470" y="580" as="targetPoint" />
          </mxGeometry>
        </mxCell>
        <mxCell id="5FPpdaSdyWe-lFuIZykh-106" value="" style="endArrow=none;html=1;rounded=0;fontSize=11;exitX=1;exitY=0.5;exitDx=0;exitDy=0;entryX=0;entryY=0.75;entryDx=0;entryDy=0;" parent="1" source="5FPpdaSdyWe-lFuIZykh-104" target="5FPpdaSdyWe-lFuIZykh-7" edge="1">
          <mxGeometry relative="1" as="geometry">
            <mxPoint x="448.8554928412382" y="613.074681718103" as="sourcePoint" />
            <mxPoint x="480" y="590" as="targetPoint" />
          </mxGeometry>
        </mxCell>
        <mxCell id="5FPpdaSdyWe-lFuIZykh-107" value="serial_no" style="ellipse;whiteSpace=wrap;html=1;align=center;fontSize=11;fontStyle=4" parent="1" vertex="1">
          <mxGeometry x="880" y="280" width="80" height="20" as="geometry" />
        </mxCell>
        <mxCell id="5FPpdaSdyWe-lFuIZykh-108" value="year_made" style="ellipse;whiteSpace=wrap;html=1;align=center;fontSize=11;fontStyle=0" parent="1" vertex="1">
          <mxGeometry x="880" y="320" width="80" height="20" as="geometry" />
        </mxCell>
        <mxCell id="5FPpdaSdyWe-lFuIZykh-109" value="" style="endArrow=none;html=1;rounded=0;fontSize=11;exitX=0;exitY=0.5;exitDx=0;exitDy=0;entryX=1;entryY=0.25;entryDx=0;entryDy=0;" parent="1" source="5FPpdaSdyWe-lFuIZykh-107" target="5FPpdaSdyWe-lFuIZykh-13" edge="1">
          <mxGeometry relative="1" as="geometry">
            <mxPoint x="1318.8554928412382" y="363.07468171810297" as="sourcePoint" />
            <mxPoint x="1020" y="300" as="targetPoint" />
          </mxGeometry>
        </mxCell>
        <mxCell id="5FPpdaSdyWe-lFuIZykh-110" value="" style="endArrow=none;html=1;rounded=0;fontSize=11;exitX=0;exitY=0.5;exitDx=0;exitDy=0;entryX=1;entryY=0.75;entryDx=0;entryDy=0;" parent="1" source="5FPpdaSdyWe-lFuIZykh-108" target="5FPpdaSdyWe-lFuIZykh-13" edge="1">
          <mxGeometry relative="1" as="geometry">
            <mxPoint x="1328.8554928412382" y="373.07468171810297" as="sourcePoint" />
            <mxPoint x="1020" y="320" as="targetPoint" />
          </mxGeometry>
        </mxCell>
        <mxCell id="5FPpdaSdyWe-lFuIZykh-114" value="" style="endArrow=none;html=1;rounded=0;fontSize=11;exitX=0;exitY=0;exitDx=0;exitDy=0;entryX=1;entryY=1;entryDx=0;entryDy=0;" parent="1" source="XflrWnQReU5PlyJmsF73-2" target="5FPpdaSdyWe-lFuIZykh-88" edge="1">
          <mxGeometry relative="1" as="geometry">
            <mxPoint x="438.8554928412382" y="603.074681718103" as="sourcePoint" />
            <mxPoint x="470" y="580" as="targetPoint" />
          </mxGeometry>
        </mxCell>
        <mxCell id="5FPpdaSdyWe-lFuIZykh-119" value="id" style="ellipse;whiteSpace=wrap;html=1;align=center;fontSize=11;fontStyle=4" parent="1" vertex="1">
          <mxGeometry x="880" y="40" width="80" height="20" as="geometry" />
        </mxCell>
        <mxCell id="5FPpdaSdyWe-lFuIZykh-120" value="seats" style="ellipse;whiteSpace=wrap;html=1;align=center;fontSize=11;fontStyle=0" parent="1" vertex="1">
          <mxGeometry x="880" y="80" width="80" height="20" as="geometry" />
        </mxCell>
        <mxCell id="5FPpdaSdyWe-lFuIZykh-121" value="" style="endArrow=none;html=1;rounded=0;fontSize=11;exitX=0;exitY=0.5;exitDx=0;exitDy=0;entryX=1;entryY=0.25;entryDx=0;entryDy=0;" parent="1" source="5FPpdaSdyWe-lFuIZykh-119" target="5FPpdaSdyWe-lFuIZykh-12" edge="1">
          <mxGeometry relative="1" as="geometry">
            <mxPoint x="1318.8554928412382" y="123.07468171810297" as="sourcePoint" />
            <mxPoint x="870" y="30" as="targetPoint" />
          </mxGeometry>
        </mxCell>
        <mxCell id="5FPpdaSdyWe-lFuIZykh-122" value="" style="endArrow=none;html=1;rounded=0;fontSize=11;exitX=0;exitY=0.5;exitDx=0;exitDy=0;entryX=1;entryY=0.75;entryDx=0;entryDy=0;" parent="1" source="5FPpdaSdyWe-lFuIZykh-120" target="5FPpdaSdyWe-lFuIZykh-12" edge="1">
          <mxGeometry relative="1" as="geometry">
            <mxPoint x="1328.8554928412382" y="133.07468171810297" as="sourcePoint" />
            <mxPoint x="860" y="80" as="targetPoint" />
          </mxGeometry>
        </mxCell>
        <mxCell id="5FPpdaSdyWe-lFuIZykh-123" value="id" style="ellipse;whiteSpace=wrap;html=1;align=center;fontSize=11;fontStyle=4" parent="1" vertex="1">
          <mxGeometry x="40" y="280" width="80" height="20" as="geometry" />
        </mxCell>
        <mxCell id="5FPpdaSdyWe-lFuIZykh-124" value="fare" style="ellipse;whiteSpace=wrap;html=1;align=center;fontSize=11;fontStyle=0" parent="1" vertex="1">
          <mxGeometry x="40" y="320" width="80" height="20" as="geometry" />
        </mxCell>
        <mxCell id="5FPpdaSdyWe-lFuIZykh-125" value="" style="endArrow=none;html=1;rounded=0;fontSize=11;exitX=1;exitY=0.5;exitDx=0;exitDy=0;entryX=0;entryY=0.25;entryDx=0;entryDy=0;" parent="1" source="5FPpdaSdyWe-lFuIZykh-123" target="5FPpdaSdyWe-lFuIZykh-2" edge="1">
          <mxGeometry relative="1" as="geometry">
            <mxPoint x="438.8554928412382" y="363.07468171810297" as="sourcePoint" />
            <mxPoint x="130" y="270" as="targetPoint" />
          </mxGeometry>
        </mxCell>
        <mxCell id="5FPpdaSdyWe-lFuIZykh-126" value="" style="endArrow=none;html=1;rounded=0;fontSize=11;exitX=1;exitY=0.5;exitDx=0;exitDy=0;entryX=0;entryY=0.75;entryDx=0;entryDy=0;" parent="1" source="5FPpdaSdyWe-lFuIZykh-124" target="5FPpdaSdyWe-lFuIZykh-2" edge="1">
          <mxGeometry relative="1" as="geometry">
            <mxPoint x="448.8554928412382" y="373.07468171810297" as="sourcePoint" />
            <mxPoint x="130" y="330" as="targetPoint" />
          </mxGeometry>
        </mxCell>
        <mxCell id="W7kSrh-7kcPRWJRy0-A8-6" value="1" style="rounded=0;orthogonalLoop=1;jettySize=auto;html=1;exitX=0;exitY=0.5;exitDx=0;exitDy=0;entryX=1;entryY=0.5;entryDx=0;entryDy=0;fontSize=12;" parent="1" source="5FPpdaSdyWe-lFuIZykh-15" target="5FPpdaSdyWe-lFuIZykh-88" edge="1">
          <mxGeometry x="0.5" y="-10" relative="1" as="geometry">
            <mxPoint x="390" y="320" as="sourcePoint" />
            <mxPoint x="470" y="320" as="targetPoint" />
            <mxPoint as="offset" />
          </mxGeometry>
        </mxCell>
        <mxCell id="W7kSrh-7kcPRWJRy0-A8-7" value="1" style="rounded=0;orthogonalLoop=1;jettySize=auto;html=1;exitX=0.5;exitY=1;exitDx=0;exitDy=0;entryX=0.5;entryY=0;entryDx=0;entryDy=0;fontSize=12;" parent="1" source="5FPpdaSdyWe-lFuIZykh-63" target="5FPpdaSdyWe-lFuIZykh-88" edge="1">
          <mxGeometry x="0.5" y="-10" relative="1" as="geometry">
            <mxPoint x="630" y="320" as="sourcePoint" />
            <mxPoint x="550" y="320" as="targetPoint" />
            <mxPoint as="offset" />
          </mxGeometry>
        </mxCell>
        <mxCell id="W7kSrh-7kcPRWJRy0-A8-8" value="1" style="rounded=0;orthogonalLoop=1;jettySize=auto;html=1;exitX=1;exitY=0;exitDx=0;exitDy=0;entryX=0.25;entryY=1;entryDx=0;entryDy=0;fontSize=12;" parent="1" source="5FPpdaSdyWe-lFuIZykh-26" target="5FPpdaSdyWe-lFuIZykh-88" edge="1">
          <mxGeometry x="0.6" y="10" relative="1" as="geometry">
            <mxPoint x="640" y="330" as="sourcePoint" />
            <mxPoint x="560" y="330" as="targetPoint" />
            <mxPoint as="offset" />
          </mxGeometry>
        </mxCell>
        <mxCell id="W7kSrh-7kcPRWJRy0-A8-9" value="1" style="rounded=0;orthogonalLoop=1;jettySize=auto;html=1;exitX=0;exitY=0.5;exitDx=0;exitDy=0;entryX=1;entryY=0.5;entryDx=0;entryDy=0;fontSize=12;" parent="1" source="5FPpdaSdyWe-lFuIZykh-22" target="5FPpdaSdyWe-lFuIZykh-84" edge="1">
          <mxGeometry x="0.5" y="-10" relative="1" as="geometry">
            <mxPoint x="650" y="340" as="sourcePoint" />
            <mxPoint x="570" y="340" as="targetPoint" />
            <mxPoint as="offset" />
          </mxGeometry>
        </mxCell>
        <mxCell id="W7kSrh-7kcPRWJRy0-A8-10" value="1" style="rounded=0;orthogonalLoop=1;jettySize=auto;html=1;exitX=0.5;exitY=1;exitDx=0;exitDy=0;entryX=0.5;entryY=0;entryDx=0;entryDy=0;fontSize=12;" parent="1" source="5FPpdaSdyWe-lFuIZykh-36" target="5FPpdaSdyWe-lFuIZykh-9" edge="1">
          <mxGeometry x="0.5" y="-10" relative="1" as="geometry">
            <mxPoint x="660" y="350" as="sourcePoint" />
            <mxPoint x="580" y="350" as="targetPoint" />
            <mxPoint as="offset" />
          </mxGeometry>
        </mxCell>
        <mxCell id="W7kSrh-7kcPRWJRy0-A8-11" value="1" style="rounded=0;orthogonalLoop=1;jettySize=auto;html=1;exitX=0;exitY=0.5;exitDx=0;exitDy=0;entryX=1;entryY=0.5;entryDx=0;entryDy=0;fontSize=12;" parent="1" source="5FPpdaSdyWe-lFuIZykh-43" target="5FPpdaSdyWe-lFuIZykh-9" edge="1">
          <mxGeometry x="0.5" y="-10" relative="1" as="geometry">
            <mxPoint x="670" y="360" as="sourcePoint" />
            <mxPoint x="590" y="360" as="targetPoint" />
            <mxPoint as="offset" />
          </mxGeometry>
        </mxCell>
        <mxCell id="XflrWnQReU5PlyJmsF73-1" value="color" style="ellipse;whiteSpace=wrap;html=1;align=center;fontSize=11;fontStyle=4" parent="1" vertex="1">
          <mxGeometry x="360" y="600" width="80" height="20" as="geometry" />
        </mxCell>
        <mxCell id="XflrWnQReU5PlyJmsF73-2" value="id" style="ellipse;whiteSpace=wrap;html=1;align=center;fontSize=11;fontStyle=4" parent="1" vertex="1">
          <mxGeometry x="560" y="360" width="80" height="20" as="geometry" />
        </mxCell>
      </root>
    </mxGraphModel>
  </diagram>
  <diagram name="proj_deliverable2" id="vW3GUWD7gYyDfaBToMU5">
    <mxGraphModel dx="1434" dy="782" grid="1" gridSize="10" guides="1" tooltips="1" connect="1" arrows="1" fold="1" page="1" pageScale="1" pageWidth="1000" pageHeight="1180" math="0" shadow="0" extFonts="Permanent Marker^https://fonts.googleapis.com/css?family=Permanent+Marker">
      <root>
        <mxCell id="TBj39ccM2QvI0rRjCSNy-0" />
        <mxCell id="TBj39ccM2QvI0rRjCSNy-1" parent="TBj39ccM2QvI0rRjCSNy-0" />
        <mxCell id="TBj39ccM2QvI0rRjCSNy-44" value="Train" style="whiteSpace=wrap;html=1;align=center;fontSize=12;fontStyle=1" parent="TBj39ccM2QvI0rRjCSNy-1" vertex="1">
          <mxGeometry x="460" y="810" width="80" height="40" as="geometry" />
        </mxCell>
        <mxCell id="TBj39ccM2QvI0rRjCSNy-3" value="Passenger" style="whiteSpace=wrap;html=1;align=center;fontSize=12;fontStyle=1" parent="TBj39ccM2QvI0rRjCSNy-1" vertex="1">
          <mxGeometry x="460.08000000000004" y="330" width="80" height="40" as="geometry" />
        </mxCell>
        <mxCell id="TBj39ccM2QvI0rRjCSNy-4" value="Conductor" style="whiteSpace=wrap;html=1;align=center;fontSize=12;fontStyle=1" parent="TBj39ccM2QvI0rRjCSNy-1" vertex="1">
          <mxGeometry x="460" y="1050" width="80" height="40" as="geometry" />
        </mxCell>
        <mxCell id="TBj39ccM2QvI0rRjCSNy-5" value="Track" style="whiteSpace=wrap;html=1;align=center;fontSize=12;fontStyle=1" parent="TBj39ccM2QvI0rRjCSNy-1" vertex="1">
          <mxGeometry x="140.08" y="810" width="80" height="40" as="geometry" />
        </mxCell>
        <mxCell id="TBj39ccM2QvI0rRjCSNy-7" value="Wagon" style="whiteSpace=wrap;html=1;align=center;fontSize=12;fontStyle=1" parent="TBj39ccM2QvI0rRjCSNy-1" vertex="1">
          <mxGeometry x="780" y="570" width="80" height="40" as="geometry" />
        </mxCell>
        <mxCell id="TBj39ccM2QvI0rRjCSNy-8" value="Locomotive" style="whiteSpace=wrap;html=1;align=center;fontSize=12;fontStyle=1" parent="TBj39ccM2QvI0rRjCSNy-1" vertex="1">
          <mxGeometry x="459.92" y="570" width="80" height="40" as="geometry" />
        </mxCell>
        <mxCell id="VrJq37f_B3mSxU0A269Z-35" style="rounded=0;orthogonalLoop=1;jettySize=auto;html=1;exitX=0.5;exitY=0;exitDx=0;exitDy=0;entryX=0.5;entryY=1;entryDx=0;entryDy=0;" parent="TBj39ccM2QvI0rRjCSNy-1" source="TBj39ccM2QvI0rRjCSNy-9" target="TBj39ccM2QvI0rRjCSNy-8" edge="1">
          <mxGeometry relative="1" as="geometry" />
        </mxCell>
        <mxCell id="VrJq37f_B3mSxU0A269Z-36" value="1" style="edgeLabel;html=1;align=center;verticalAlign=middle;resizable=0;points=[];fontSize=12;" parent="VrJq37f_B3mSxU0A269Z-35" vertex="1" connectable="0">
          <mxGeometry x="0.7218" y="-2" relative="1" as="geometry">
            <mxPoint x="-12" y="8" as="offset" />
          </mxGeometry>
        </mxCell>
        <mxCell id="TBj39ccM2QvI0rRjCSNy-9" value="Powered" style="shape=rhombus;perimeter=rhombusPerimeter;whiteSpace=wrap;html=1;align=center;fontSize=11;" parent="TBj39ccM2QvI0rRjCSNy-1" vertex="1">
          <mxGeometry x="460" y="690" width="80" height="40" as="geometry" />
        </mxCell>
        <mxCell id="VrJq37f_B3mSxU0A269Z-45" style="rounded=0;orthogonalLoop=1;jettySize=auto;html=1;exitX=0.5;exitY=0;exitDx=0;exitDy=0;entryX=0.5;entryY=1;entryDx=0;entryDy=0;" parent="TBj39ccM2QvI0rRjCSNy-1" source="TBj39ccM2QvI0rRjCSNy-12" target="TBj39ccM2QvI0rRjCSNy-7" edge="1">
          <mxGeometry relative="1" as="geometry" />
        </mxCell>
        <mxCell id="VrJq37f_B3mSxU0A269Z-46" value="1" style="edgeLabel;html=1;align=center;verticalAlign=middle;resizable=0;points=[];fontSize=12;" parent="VrJq37f_B3mSxU0A269Z-45" vertex="1" connectable="0">
          <mxGeometry x="0.556" y="-1" relative="1" as="geometry">
            <mxPoint x="-11" as="offset" />
          </mxGeometry>
        </mxCell>
        <mxCell id="TBj39ccM2QvI0rRjCSNy-12" value="Lines" style="shape=rhombus;perimeter=rhombusPerimeter;whiteSpace=wrap;html=1;align=center;fontSize=11;" parent="TBj39ccM2QvI0rRjCSNy-1" vertex="1">
          <mxGeometry x="780" y="690" width="80" height="40" as="geometry" />
        </mxCell>
        <mxCell id="VrJq37f_B3mSxU0A269Z-54" style="rounded=0;orthogonalLoop=1;jettySize=auto;html=1;exitX=0.5;exitY=1;exitDx=0;exitDy=0;entryX=0.5;entryY=0;entryDx=0;entryDy=0;" parent="TBj39ccM2QvI0rRjCSNy-1" source="TBj39ccM2QvI0rRjCSNy-27" target="TBj39ccM2QvI0rRjCSNy-5" edge="1">
          <mxGeometry relative="1" as="geometry" />
        </mxCell>
        <mxCell id="VrJq37f_B3mSxU0A269Z-55" value="1" style="edgeLabel;html=1;align=center;verticalAlign=middle;resizable=0;points=[];fontSize=12;" parent="VrJq37f_B3mSxU0A269Z-54" vertex="1" connectable="0">
          <mxGeometry x="0.6362" y="-1" relative="1" as="geometry">
            <mxPoint x="-9" y="-6" as="offset" />
          </mxGeometry>
        </mxCell>
        <mxCell id="TBj39ccM2QvI0rRjCSNy-27" value="Positioned" style="shape=rhombus;perimeter=rhombusPerimeter;whiteSpace=wrap;html=1;align=center;fontSize=11;" parent="TBj39ccM2QvI0rRjCSNy-1" vertex="1">
          <mxGeometry x="140" y="690" width="80" height="40" as="geometry" />
        </mxCell>
        <mxCell id="VrJq37f_B3mSxU0A269Z-70" style="rounded=0;orthogonalLoop=1;jettySize=auto;html=1;exitX=1;exitY=0.5;exitDx=0;exitDy=0;entryX=0;entryY=0.5;entryDx=0;entryDy=0;" parent="TBj39ccM2QvI0rRjCSNy-1" source="TBj39ccM2QvI0rRjCSNy-30" target="TBj39ccM2QvI0rRjCSNy-3" edge="1">
          <mxGeometry relative="1" as="geometry" />
        </mxCell>
        <mxCell id="VrJq37f_B3mSxU0A269Z-71" value="1" style="edgeLabel;html=1;align=center;verticalAlign=middle;resizable=0;points=[];fontSize=12;" parent="VrJq37f_B3mSxU0A269Z-70" vertex="1" connectable="0">
          <mxGeometry x="0.2608" relative="1" as="geometry">
            <mxPoint x="10" y="-10" as="offset" />
          </mxGeometry>
        </mxCell>
        <mxCell id="TBj39ccM2QvI0rRjCSNy-30" value="Registered" style="shape=rhombus;perimeter=rhombusPerimeter;whiteSpace=wrap;html=1;align=center;fontSize=11;" parent="TBj39ccM2QvI0rRjCSNy-1" vertex="1">
          <mxGeometry x="300" y="330" width="80" height="40" as="geometry" />
        </mxCell>
        <mxCell id="TBj39ccM2QvI0rRjCSNy-31" value="Carried" style="shape=rhombus;perimeter=rhombusPerimeter;whiteSpace=wrap;html=1;align=center;fontSize=11;" parent="TBj39ccM2QvI0rRjCSNy-1" vertex="1">
          <mxGeometry x="620" y="810" width="80" height="40" as="geometry" />
        </mxCell>
        <mxCell id="TBj39ccM2QvI0rRjCSNy-49" value="name" style="ellipse;whiteSpace=wrap;html=1;align=center;fontSize=11;fontStyle=0" parent="TBj39ccM2QvI0rRjCSNy-1" vertex="1">
          <mxGeometry x="40.00000000000003" y="600" width="80" height="20" as="geometry" />
        </mxCell>
        <mxCell id="TBj39ccM2QvI0rRjCSNy-50" value="note" style="ellipse;whiteSpace=wrap;html=1;align=center;fontSize=11;fontStyle=0" parent="TBj39ccM2QvI0rRjCSNy-1" vertex="1">
          <mxGeometry x="240.00000000000003" y="520" width="80" height="20" as="geometry" />
        </mxCell>
        <mxCell id="TBj39ccM2QvI0rRjCSNy-53" value="" style="endArrow=none;html=1;rounded=0;fontSize=11;exitX=0;exitY=0.75;exitDx=0;exitDy=0;" parent="TBj39ccM2QvI0rRjCSNy-1" source="UFlbhCh1jYrcwFsARIZQ-22" edge="1">
          <mxGeometry relative="1" as="geometry">
            <mxPoint x="150" y="630" as="sourcePoint" />
            <mxPoint x="120" y="610" as="targetPoint" />
          </mxGeometry>
        </mxCell>
        <mxCell id="TBj39ccM2QvI0rRjCSNy-55" value="social_sec" style="ellipse;whiteSpace=wrap;html=1;align=center;fontSize=11;fontStyle=4" parent="TBj39ccM2QvI0rRjCSNy-1" vertex="1">
          <mxGeometry x="360" y="1000" width="80" height="20" as="geometry" />
        </mxCell>
        <mxCell id="TBj39ccM2QvI0rRjCSNy-59" value="serial_no" style="ellipse;whiteSpace=wrap;html=1;align=center;fontSize=11;fontStyle=4" parent="TBj39ccM2QvI0rRjCSNy-1" vertex="1">
          <mxGeometry x="360.0000000000001" y="560" width="80" height="20" as="geometry" />
        </mxCell>
        <mxCell id="TBj39ccM2QvI0rRjCSNy-60" value="since" style="ellipse;whiteSpace=wrap;html=1;align=center;fontSize=11;fontStyle=0" parent="TBj39ccM2QvI0rRjCSNy-1" vertex="1">
          <mxGeometry x="360.0000000000001" y="600" width="80" height="20" as="geometry" />
        </mxCell>
        <mxCell id="TBj39ccM2QvI0rRjCSNy-61" value="" style="endArrow=none;html=1;rounded=0;fontSize=11;exitX=1;exitY=0.5;exitDx=0;exitDy=0;entryX=0;entryY=0.25;entryDx=0;entryDy=0;" parent="TBj39ccM2QvI0rRjCSNy-1" source="TBj39ccM2QvI0rRjCSNy-59" target="TBj39ccM2QvI0rRjCSNy-8" edge="1">
          <mxGeometry relative="1" as="geometry">
            <mxPoint x="998.7754928412382" y="643.074681718103" as="sourcePoint" />
            <mxPoint x="699.9200000000001" y="580" as="targetPoint" />
          </mxGeometry>
        </mxCell>
        <mxCell id="TBj39ccM2QvI0rRjCSNy-62" value="" style="endArrow=none;html=1;rounded=0;fontSize=11;entryX=0;entryY=0.75;entryDx=0;entryDy=0;exitX=1;exitY=0.5;exitDx=0;exitDy=0;" parent="TBj39ccM2QvI0rRjCSNy-1" source="TBj39ccM2QvI0rRjCSNy-60" target="TBj39ccM2QvI0rRjCSNy-8" edge="1">
          <mxGeometry relative="1" as="geometry">
            <mxPoint x="470" y="630" as="sourcePoint" />
            <mxPoint x="699.9200000000001" y="600" as="targetPoint" />
          </mxGeometry>
        </mxCell>
        <mxCell id="TBj39ccM2QvI0rRjCSNy-63" value="train_id" style="ellipse;whiteSpace=wrap;html=1;align=center;fontSize=11;fontStyle=4" parent="TBj39ccM2QvI0rRjCSNy-1" vertex="1">
          <mxGeometry x="560" y="880" width="80" height="20" as="geometry" />
        </mxCell>
        <mxCell id="TBj39ccM2QvI0rRjCSNy-64" value="" style="endArrow=none;html=1;rounded=0;fontSize=11;exitX=0;exitY=0;exitDx=0;exitDy=0;entryX=1;entryY=1;entryDx=0;entryDy=0;" parent="TBj39ccM2QvI0rRjCSNy-1" source="TBj39ccM2QvI0rRjCSNy-63" target="TBj39ccM2QvI0rRjCSNy-44" edge="1">
          <mxGeometry relative="1" as="geometry">
            <mxPoint x="438.8554928412382" y="1123.074681718103" as="sourcePoint" />
            <mxPoint x="540" y="880" as="targetPoint" />
          </mxGeometry>
        </mxCell>
        <mxCell id="TBj39ccM2QvI0rRjCSNy-65" value="wagon_id" style="ellipse;whiteSpace=wrap;html=1;align=center;fontSize=11;fontStyle=4" parent="TBj39ccM2QvI0rRjCSNy-1" vertex="1">
          <mxGeometry x="680" y="560" width="80" height="20" as="geometry" />
        </mxCell>
        <mxCell id="TBj39ccM2QvI0rRjCSNy-66" value="seats" style="ellipse;whiteSpace=wrap;html=1;align=center;fontSize=11;fontStyle=0" parent="TBj39ccM2QvI0rRjCSNy-1" vertex="1">
          <mxGeometry x="680" y="600" width="80" height="20" as="geometry" />
        </mxCell>
        <mxCell id="TBj39ccM2QvI0rRjCSNy-67" value="" style="endArrow=none;html=1;rounded=0;fontSize=11;exitX=1;exitY=0.5;exitDx=0;exitDy=0;entryX=0;entryY=0.25;entryDx=0;entryDy=0;" parent="TBj39ccM2QvI0rRjCSNy-1" source="TBj39ccM2QvI0rRjCSNy-65" target="TBj39ccM2QvI0rRjCSNy-7" edge="1">
          <mxGeometry relative="1" as="geometry">
            <mxPoint x="1318.8554928412382" y="643.074681718103" as="sourcePoint" />
            <mxPoint x="870" y="550" as="targetPoint" />
          </mxGeometry>
        </mxCell>
        <mxCell id="TBj39ccM2QvI0rRjCSNy-68" value="" style="endArrow=none;html=1;rounded=0;fontSize=11;exitX=1;exitY=0.5;exitDx=0;exitDy=0;entryX=0;entryY=0.75;entryDx=0;entryDy=0;" parent="TBj39ccM2QvI0rRjCSNy-1" source="TBj39ccM2QvI0rRjCSNy-66" target="TBj39ccM2QvI0rRjCSNy-7" edge="1">
          <mxGeometry relative="1" as="geometry">
            <mxPoint x="1328.8554928412382" y="653.074681718103" as="sourcePoint" />
            <mxPoint x="860" y="600" as="targetPoint" />
          </mxGeometry>
        </mxCell>
        <mxCell id="TBj39ccM2QvI0rRjCSNy-69" value="passenger_id" style="ellipse;whiteSpace=wrap;html=1;align=center;fontSize=11;fontStyle=4" parent="TBj39ccM2QvI0rRjCSNy-1" vertex="1">
          <mxGeometry x="560" y="320" width="80" height="20" as="geometry" />
        </mxCell>
        <mxCell id="TBj39ccM2QvI0rRjCSNy-71" value="" style="endArrow=none;html=1;rounded=0;fontSize=11;exitX=0;exitY=0.5;exitDx=0;exitDy=0;entryX=1;entryY=0.25;entryDx=0;entryDy=0;" parent="TBj39ccM2QvI0rRjCSNy-1" source="TBj39ccM2QvI0rRjCSNy-69" target="TBj39ccM2QvI0rRjCSNy-3" edge="1">
          <mxGeometry relative="1" as="geometry">
            <mxPoint x="758.8554928412382" y="633.074681718103" as="sourcePoint" />
            <mxPoint x="450" y="540" as="targetPoint" />
          </mxGeometry>
        </mxCell>
        <mxCell id="Hlo2k790Sun50FqUQCLI-0" value="Pass" style="whiteSpace=wrap;html=1;align=center;fontSize=12;fontStyle=1" parent="TBj39ccM2QvI0rRjCSNy-1" vertex="1">
          <mxGeometry x="460" y="90" width="80" height="40" as="geometry" />
        </mxCell>
        <mxCell id="UFlbhCh1jYrcwFsARIZQ-4" style="rounded=0;orthogonalLoop=1;jettySize=auto;html=1;exitX=1;exitY=0;exitDx=0;exitDy=0;entryX=0.25;entryY=1;entryDx=0;entryDy=0;" parent="TBj39ccM2QvI0rRjCSNy-1" source="-z1d-_RdFJU9CNnB_19A-2" target="Hlo2k790Sun50FqUQCLI-0" edge="1">
          <mxGeometry relative="1" as="geometry" />
        </mxCell>
        <mxCell id="UFlbhCh1jYrcwFsARIZQ-8" value="1" style="edgeLabel;html=1;align=center;verticalAlign=middle;resizable=0;points=[];fontSize=12;" parent="UFlbhCh1jYrcwFsARIZQ-4" vertex="1" connectable="0">
          <mxGeometry x="0.7038" relative="1" as="geometry">
            <mxPoint x="-12" y="-3" as="offset" />
          </mxGeometry>
        </mxCell>
        <mxCell id="-z1d-_RdFJU9CNnB_19A-2" value="Uses" style="shape=rhombus;perimeter=rhombusPerimeter;whiteSpace=wrap;html=1;align=center;fontSize=11;" parent="TBj39ccM2QvI0rRjCSNy-1" vertex="1">
          <mxGeometry x="300" y="210" width="80" height="40" as="geometry" />
        </mxCell>
        <mxCell id="-z1d-_RdFJU9CNnB_19A-8" value="Alert" style="whiteSpace=wrap;html=1;align=center;fontSize=12;fontStyle=1" parent="TBj39ccM2QvI0rRjCSNy-1" vertex="1">
          <mxGeometry x="780" y="1050" width="80" height="40" as="geometry" />
        </mxCell>
        <mxCell id="VrJq37f_B3mSxU0A269Z-4" style="rounded=0;orthogonalLoop=1;jettySize=auto;html=1;exitX=0;exitY=0.5;exitDx=0;exitDy=0;entryX=1;entryY=0.5;entryDx=0;entryDy=0;" parent="TBj39ccM2QvI0rRjCSNy-1" source="-z1d-_RdFJU9CNnB_19A-9" target="TBj39ccM2QvI0rRjCSNy-4" edge="1">
          <mxGeometry relative="1" as="geometry" />
        </mxCell>
        <mxCell id="VrJq37f_B3mSxU0A269Z-5" value="1" style="edgeLabel;html=1;align=center;verticalAlign=middle;resizable=0;points=[];fontSize=12;" parent="VrJq37f_B3mSxU0A269Z-4" vertex="1" connectable="0">
          <mxGeometry x="0.3596" y="3" relative="1" as="geometry">
            <mxPoint x="-5" y="-13" as="offset" />
          </mxGeometry>
        </mxCell>
        <mxCell id="-z1d-_RdFJU9CNnB_19A-9" value="Issued" style="shape=rhombus;perimeter=rhombusPerimeter;whiteSpace=wrap;html=1;align=center;fontSize=11;" parent="TBj39ccM2QvI0rRjCSNy-1" vertex="1">
          <mxGeometry x="620" y="1050" width="80" height="40" as="geometry" />
        </mxCell>
        <mxCell id="-z1d-_RdFJU9CNnB_19A-11" value="has_elevator" style="ellipse;whiteSpace=wrap;html=1;align=center;fontSize=11;fontStyle=0" parent="TBj39ccM2QvI0rRjCSNy-1" vertex="1">
          <mxGeometry x="240" y="600" width="80" height="20" as="geometry" />
        </mxCell>
        <mxCell id="-z1d-_RdFJU9CNnB_19A-13" value="has_parking" style="ellipse;whiteSpace=wrap;html=1;align=center;fontSize=11;fontStyle=0" parent="TBj39ccM2QvI0rRjCSNy-1" vertex="1">
          <mxGeometry x="240" y="560" width="80" height="20" as="geometry" />
        </mxCell>
        <mxCell id="-z1d-_RdFJU9CNnB_19A-20" value="" style="endArrow=none;html=1;rounded=0;fontSize=11;exitX=0;exitY=0.5;exitDx=0;exitDy=0;entryX=1;entryY=0.75;entryDx=0;entryDy=0;" parent="TBj39ccM2QvI0rRjCSNy-1" source="-z1d-_RdFJU9CNnB_19A-11" target="UFlbhCh1jYrcwFsARIZQ-22" edge="1">
          <mxGeometry relative="1" as="geometry">
            <mxPoint x="249.99999999999977" y="540" as="sourcePoint" />
            <mxPoint x="220" y="670" as="targetPoint" />
          </mxGeometry>
        </mxCell>
        <mxCell id="-z1d-_RdFJU9CNnB_19A-22" value="" style="endArrow=none;html=1;rounded=0;fontSize=11;entryX=1;entryY=0.25;entryDx=0;entryDy=0;exitX=0;exitY=0.5;exitDx=0;exitDy=0;" parent="TBj39ccM2QvI0rRjCSNy-1" source="-z1d-_RdFJU9CNnB_19A-13" target="UFlbhCh1jYrcwFsARIZQ-22" edge="1">
          <mxGeometry relative="1" as="geometry">
            <mxPoint x="240" y="540" as="sourcePoint" />
            <mxPoint x="230" y="570" as="targetPoint" />
          </mxGeometry>
        </mxCell>
        <mxCell id="-z1d-_RdFJU9CNnB_19A-32" value="alert_id" style="ellipse;whiteSpace=wrap;html=1;align=center;fontSize=11;fontStyle=4" parent="TBj39ccM2QvI0rRjCSNy-1" vertex="1">
          <mxGeometry x="880" y="1000" width="80" height="20" as="geometry" />
        </mxCell>
        <mxCell id="-z1d-_RdFJU9CNnB_19A-33" value="date_end" style="ellipse;whiteSpace=wrap;html=1;align=center;fontSize=11;fontStyle=0" parent="TBj39ccM2QvI0rRjCSNy-1" vertex="1">
          <mxGeometry x="880" y="1120" width="80" height="20" as="geometry" />
        </mxCell>
        <mxCell id="-z1d-_RdFJU9CNnB_19A-36" value="date_start" style="ellipse;whiteSpace=wrap;html=1;align=center;fontSize=11;fontStyle=0" parent="TBj39ccM2QvI0rRjCSNy-1" vertex="1">
          <mxGeometry x="880" y="1080" width="80" height="20" as="geometry" />
        </mxCell>
        <mxCell id="-z1d-_RdFJU9CNnB_19A-37" value="message" style="ellipse;whiteSpace=wrap;html=1;align=center;fontSize=11;fontStyle=0" parent="TBj39ccM2QvI0rRjCSNy-1" vertex="1">
          <mxGeometry x="880" y="1040" width="80" height="20" as="geometry" />
        </mxCell>
        <mxCell id="-z1d-_RdFJU9CNnB_19A-38" value="" style="endArrow=none;html=1;rounded=0;fontSize=11;exitX=0;exitY=1;exitDx=0;exitDy=0;entryX=1;entryY=0;entryDx=0;entryDy=0;" parent="TBj39ccM2QvI0rRjCSNy-1" source="-z1d-_RdFJU9CNnB_19A-32" target="-z1d-_RdFJU9CNnB_19A-8" edge="1">
          <mxGeometry relative="1" as="geometry">
            <mxPoint x="890" y="1300" as="sourcePoint" />
            <mxPoint x="840" y="1020" as="targetPoint" />
          </mxGeometry>
        </mxCell>
        <mxCell id="-z1d-_RdFJU9CNnB_19A-39" value="" style="endArrow=none;html=1;rounded=0;fontSize=11;exitX=0;exitY=0.5;exitDx=0;exitDy=0;entryX=1;entryY=0.25;entryDx=0;entryDy=0;" parent="TBj39ccM2QvI0rRjCSNy-1" source="-z1d-_RdFJU9CNnB_19A-37" target="-z1d-_RdFJU9CNnB_19A-8" edge="1">
          <mxGeometry relative="1" as="geometry">
            <mxPoint x="890" y="1300" as="sourcePoint" />
            <mxPoint x="840" y="1010" as="targetPoint" />
          </mxGeometry>
        </mxCell>
        <mxCell id="-z1d-_RdFJU9CNnB_19A-40" value="" style="endArrow=none;html=1;rounded=0;fontSize=11;exitX=0;exitY=0.5;exitDx=0;exitDy=0;entryX=1;entryY=0.75;entryDx=0;entryDy=0;" parent="TBj39ccM2QvI0rRjCSNy-1" source="-z1d-_RdFJU9CNnB_19A-36" target="-z1d-_RdFJU9CNnB_19A-8" edge="1">
          <mxGeometry relative="1" as="geometry">
            <mxPoint x="890" y="1060" as="sourcePoint" />
            <mxPoint x="869.9999999999995" y="1070" as="targetPoint" />
          </mxGeometry>
        </mxCell>
        <mxCell id="-z1d-_RdFJU9CNnB_19A-41" value="" style="endArrow=none;html=1;rounded=0;fontSize=11;exitX=0;exitY=0;exitDx=0;exitDy=0;entryX=1;entryY=1;entryDx=0;entryDy=0;" parent="TBj39ccM2QvI0rRjCSNy-1" source="-z1d-_RdFJU9CNnB_19A-33" target="-z1d-_RdFJU9CNnB_19A-8" edge="1">
          <mxGeometry relative="1" as="geometry">
            <mxPoint x="890" y="1100" as="sourcePoint" />
            <mxPoint x="869.9999999999995" y="1090" as="targetPoint" />
          </mxGeometry>
        </mxCell>
        <mxCell id="-z1d-_RdFJU9CNnB_19A-46" value="Subscribed" style="shape=rhombus;perimeter=rhombusPerimeter;whiteSpace=wrap;html=1;align=center;fontSize=11;" parent="TBj39ccM2QvI0rRjCSNy-1" vertex="1">
          <mxGeometry x="460" y="210" width="80" height="40" as="geometry" />
        </mxCell>
        <mxCell id="IaNTLNFMgGCvzljQB9XG-0" value="date_end" style="ellipse;whiteSpace=wrap;html=1;align=center;fontSize=11;fontStyle=0" parent="TBj39ccM2QvI0rRjCSNy-1" vertex="1">
          <mxGeometry x="560" y="120" width="80" height="20" as="geometry" />
        </mxCell>
        <mxCell id="IaNTLNFMgGCvzljQB9XG-1" value="date_start" style="ellipse;whiteSpace=wrap;html=1;align=center;fontSize=11;fontStyle=0" parent="TBj39ccM2QvI0rRjCSNy-1" vertex="1">
          <mxGeometry x="560" y="80" width="80" height="20" as="geometry" />
        </mxCell>
        <mxCell id="IaNTLNFMgGCvzljQB9XG-2" value="" style="endArrow=none;html=1;rounded=0;fontSize=11;exitX=1;exitY=0.25;exitDx=0;exitDy=0;entryX=0;entryY=0.5;entryDx=0;entryDy=0;" parent="TBj39ccM2QvI0rRjCSNy-1" source="Hlo2k790Sun50FqUQCLI-0" target="IaNTLNFMgGCvzljQB9XG-1" edge="1">
          <mxGeometry relative="1" as="geometry">
            <mxPoint x="769.9999999999995" y="140" as="sourcePoint" />
            <mxPoint x="790" y="130" as="targetPoint" />
          </mxGeometry>
        </mxCell>
        <mxCell id="IaNTLNFMgGCvzljQB9XG-3" value="" style="endArrow=none;html=1;rounded=0;fontSize=11;exitX=1;exitY=0.75;exitDx=0;exitDy=0;entryX=0;entryY=0.5;entryDx=0;entryDy=0;" parent="TBj39ccM2QvI0rRjCSNy-1" source="Hlo2k790Sun50FqUQCLI-0" target="IaNTLNFMgGCvzljQB9XG-0" edge="1">
          <mxGeometry relative="1" as="geometry">
            <mxPoint x="759.038107356253" y="173.12255352088732" as="sourcePoint" />
            <mxPoint x="790" y="140" as="targetPoint" />
          </mxGeometry>
        </mxCell>
        <mxCell id="IaNTLNFMgGCvzljQB9XG-5" value="pass_id" style="ellipse;whiteSpace=wrap;html=1;align=center;fontSize=11;fontStyle=4" parent="TBj39ccM2QvI0rRjCSNy-1" vertex="1">
          <mxGeometry x="560" y="40" width="80" height="20" as="geometry" />
        </mxCell>
        <mxCell id="IaNTLNFMgGCvzljQB9XG-6" value="" style="endArrow=none;html=1;rounded=0;fontSize=11;exitX=1;exitY=0;exitDx=0;exitDy=0;entryX=0;entryY=1;entryDx=0;entryDy=0;" parent="TBj39ccM2QvI0rRjCSNy-1" source="Hlo2k790Sun50FqUQCLI-0" target="IaNTLNFMgGCvzljQB9XG-5" edge="1">
          <mxGeometry relative="1" as="geometry">
            <mxPoint x="550" y="110" as="sourcePoint" />
            <mxPoint x="570.0000000000002" y="100" as="targetPoint" />
          </mxGeometry>
        </mxCell>
        <mxCell id="IaNTLNFMgGCvzljQB9XG-7" value="name" style="ellipse;whiteSpace=wrap;html=1;align=center;fontSize=11;fontStyle=0" parent="TBj39ccM2QvI0rRjCSNy-1" vertex="1">
          <mxGeometry x="360" y="1040" width="80" height="20" as="geometry" />
        </mxCell>
        <mxCell id="VrJq37f_B3mSxU0A269Z-64" style="rounded=0;orthogonalLoop=1;jettySize=auto;html=1;exitX=0.5;exitY=1;exitDx=0;exitDy=0;entryX=0.5;entryY=0;entryDx=0;entryDy=0;" parent="TBj39ccM2QvI0rRjCSNy-1" source="Lqd2BsKXD1_Twzs3qtD8-1" target="UFlbhCh1jYrcwFsARIZQ-22" edge="1">
          <mxGeometry relative="1" as="geometry">
            <mxPoint x="200" y="550" as="targetPoint" />
          </mxGeometry>
        </mxCell>
        <mxCell id="VrJq37f_B3mSxU0A269Z-65" value="1" style="edgeLabel;html=1;align=center;verticalAlign=middle;resizable=0;points=[];fontSize=12;" parent="VrJq37f_B3mSxU0A269Z-64" vertex="1" connectable="0">
          <mxGeometry x="0.4934" y="4" relative="1" as="geometry">
            <mxPoint x="-14" as="offset" />
          </mxGeometry>
        </mxCell>
        <mxCell id="Lqd2BsKXD1_Twzs3qtD8-1" value="From &amp;amp; To" style="shape=rhombus;perimeter=rhombusPerimeter;whiteSpace=wrap;html=1;align=center;fontSize=11;" parent="TBj39ccM2QvI0rRjCSNy-1" vertex="1">
          <mxGeometry x="139.99999999999994" y="450" width="80" height="40" as="geometry" />
        </mxCell>
        <mxCell id="Lqd2BsKXD1_Twzs3qtD8-18" value="fare" style="ellipse;whiteSpace=wrap;html=1;align=center;fontSize=11;" parent="TBj39ccM2QvI0rRjCSNy-1" vertex="1">
          <mxGeometry x="39.92" y="360" width="80" height="20" as="geometry" />
        </mxCell>
        <mxCell id="Lqd2BsKXD1_Twzs3qtD8-20" value="&lt;span style=&quot;border-bottom: 1px dotted; font-size: 11px;&quot;&gt;passenger_id&lt;/span&gt;" style="ellipse;whiteSpace=wrap;html=1;align=center;fontSize=11;" parent="TBj39ccM2QvI0rRjCSNy-1" vertex="1">
          <mxGeometry x="39.92" y="320" width="80" height="20" as="geometry" />
        </mxCell>
        <mxCell id="Lqd2BsKXD1_Twzs3qtD8-21" value="" style="endArrow=none;html=1;rounded=0;fontSize=11;exitX=0;exitY=0;exitDx=0;exitDy=0;entryX=1;entryY=0.5;entryDx=0;entryDy=0;" parent="TBj39ccM2QvI0rRjCSNy-1" source="VrJq37f_B3mSxU0A269Z-57" target="Lqd2BsKXD1_Twzs3qtD8-20" edge="1">
          <mxGeometry relative="1" as="geometry">
            <mxPoint x="140.0000000000001" y="340" as="sourcePoint" />
            <mxPoint x="129.9999999999934" y="330" as="targetPoint" />
          </mxGeometry>
        </mxCell>
        <mxCell id="Lqd2BsKXD1_Twzs3qtD8-22" value="&lt;span style=&quot;border-bottom: 1px dotted&quot;&gt;train_id&lt;/span&gt;" style="ellipse;whiteSpace=wrap;html=1;align=center;" parent="TBj39ccM2QvI0rRjCSNy-1" vertex="1">
          <mxGeometry x="880" y="800" width="80" height="20" as="geometry" />
        </mxCell>
        <mxCell id="Lqd2BsKXD1_Twzs3qtD8-23" value="&lt;span style=&quot;border-bottom: 1px dotted&quot;&gt;wagon_id&lt;/span&gt;" style="ellipse;whiteSpace=wrap;html=1;align=center;" parent="TBj39ccM2QvI0rRjCSNy-1" vertex="1">
          <mxGeometry x="880" y="840" width="80" height="20" as="geometry" />
        </mxCell>
        <mxCell id="Lqd2BsKXD1_Twzs3qtD8-24" value="" style="endArrow=none;html=1;rounded=0;fontSize=11;exitX=1;exitY=0;exitDx=0;exitDy=0;entryX=0;entryY=0.5;entryDx=0;entryDy=0;" parent="TBj39ccM2QvI0rRjCSNy-1" source="VrJq37f_B3mSxU0A269Z-38" target="Lqd2BsKXD1_Twzs3qtD8-22" edge="1">
          <mxGeometry relative="1" as="geometry">
            <mxPoint x="860" y="820" as="sourcePoint" />
            <mxPoint x="790" y="590" as="targetPoint" />
          </mxGeometry>
        </mxCell>
        <mxCell id="Lqd2BsKXD1_Twzs3qtD8-25" value="" style="endArrow=none;html=1;rounded=0;fontSize=11;exitX=1;exitY=1;exitDx=0;exitDy=0;entryX=0;entryY=0.5;entryDx=0;entryDy=0;" parent="TBj39ccM2QvI0rRjCSNy-1" source="VrJq37f_B3mSxU0A269Z-38" target="Lqd2BsKXD1_Twzs3qtD8-23" edge="1">
          <mxGeometry relative="1" as="geometry">
            <mxPoint x="860" y="840" as="sourcePoint" />
            <mxPoint x="890" y="810" as="targetPoint" />
          </mxGeometry>
        </mxCell>
        <mxCell id="Lqd2BsKXD1_Twzs3qtD8-29" value="track_color" style="ellipse;whiteSpace=wrap;html=1;align=center;fontSize=11;fontStyle=4" parent="TBj39ccM2QvI0rRjCSNy-1" vertex="1">
          <mxGeometry x="40.00000000000003" y="800" width="80" height="20" as="geometry" />
        </mxCell>
        <mxCell id="Lqd2BsKXD1_Twzs3qtD8-30" value="is_24h" style="ellipse;whiteSpace=wrap;html=1;align=center;fontSize=11;fontStyle=0" parent="TBj39ccM2QvI0rRjCSNy-1" vertex="1">
          <mxGeometry x="40.00000000000003" y="840" width="80" height="20" as="geometry" />
        </mxCell>
        <mxCell id="Lqd2BsKXD1_Twzs3qtD8-33" value="" style="endArrow=none;html=1;rounded=0;fontSize=11;entryX=1;entryY=0.5;entryDx=0;entryDy=0;exitX=0;exitY=0.25;exitDx=0;exitDy=0;" parent="TBj39ccM2QvI0rRjCSNy-1" source="TBj39ccM2QvI0rRjCSNy-5" target="Lqd2BsKXD1_Twzs3qtD8-29" edge="1">
          <mxGeometry relative="1" as="geometry">
            <mxPoint x="170" y="760" as="sourcePoint" />
            <mxPoint x="118.90567428590816" y="786.9122264596738" as="targetPoint" />
          </mxGeometry>
        </mxCell>
        <mxCell id="Lqd2BsKXD1_Twzs3qtD8-34" value="" style="endArrow=none;html=1;rounded=0;fontSize=11;entryX=1;entryY=0.5;entryDx=0;entryDy=0;exitX=0;exitY=0.75;exitDx=0;exitDy=0;" parent="TBj39ccM2QvI0rRjCSNy-1" source="TBj39ccM2QvI0rRjCSNy-5" target="Lqd2BsKXD1_Twzs3qtD8-30" edge="1">
          <mxGeometry relative="1" as="geometry">
            <mxPoint x="170" y="910" as="sourcePoint" />
            <mxPoint x="130" y="820" as="targetPoint" />
          </mxGeometry>
        </mxCell>
        <mxCell id="VrJq37f_B3mSxU0A269Z-0" value="" style="shape=link;html=1;rounded=0;entryX=0;entryY=0.5;entryDx=0;entryDy=0;exitX=1;exitY=0.5;exitDx=0;exitDy=0;" parent="TBj39ccM2QvI0rRjCSNy-1" source="-z1d-_RdFJU9CNnB_19A-9" target="-z1d-_RdFJU9CNnB_19A-8" edge="1">
          <mxGeometry relative="1" as="geometry">
            <mxPoint x="680" y="970" as="sourcePoint" />
            <mxPoint x="840" y="970" as="targetPoint" />
          </mxGeometry>
        </mxCell>
        <mxCell id="VrJq37f_B3mSxU0A269Z-6" value="N" style="edgeLabel;html=1;align=center;verticalAlign=middle;resizable=0;points=[];fontSize=12;" parent="VrJq37f_B3mSxU0A269Z-0" vertex="1" connectable="0">
          <mxGeometry x="0.525" y="1" relative="1" as="geometry">
            <mxPoint x="9" y="-9" as="offset" />
          </mxGeometry>
        </mxCell>
        <mxCell id="VrJq37f_B3mSxU0A269Z-17" style="rounded=0;orthogonalLoop=1;jettySize=auto;html=1;exitX=0.5;exitY=1;exitDx=0;exitDy=0;entryX=0.5;entryY=0;entryDx=0;entryDy=0;" parent="TBj39ccM2QvI0rRjCSNy-1" source="VrJq37f_B3mSxU0A269Z-14" target="TBj39ccM2QvI0rRjCSNy-4" edge="1">
          <mxGeometry relative="1" as="geometry" />
        </mxCell>
        <mxCell id="VrJq37f_B3mSxU0A269Z-18" value="1" style="edgeLabel;html=1;align=center;verticalAlign=middle;resizable=0;points=[];fontSize=12;" parent="VrJq37f_B3mSxU0A269Z-17" vertex="1" connectable="0">
          <mxGeometry x="0.6105" y="-1" relative="1" as="geometry">
            <mxPoint x="-9" y="-3" as="offset" />
          </mxGeometry>
        </mxCell>
        <mxCell id="VrJq37f_B3mSxU0A269Z-14" value="Controlled" style="shape=rhombus;perimeter=rhombusPerimeter;whiteSpace=wrap;html=1;align=center;fontSize=11;" parent="TBj39ccM2QvI0rRjCSNy-1" vertex="1">
          <mxGeometry x="459.91999999999996" y="920" width="80" height="40" as="geometry" />
        </mxCell>
        <mxCell id="VrJq37f_B3mSxU0A269Z-15" value="" style="shape=link;html=1;rounded=0;entryX=0.5;entryY=1;entryDx=0;entryDy=0;exitX=0.5;exitY=0;exitDx=0;exitDy=0;" parent="TBj39ccM2QvI0rRjCSNy-1" source="VrJq37f_B3mSxU0A269Z-14" target="TBj39ccM2QvI0rRjCSNy-44" edge="1">
          <mxGeometry relative="1" as="geometry">
            <mxPoint x="710" y="1080" as="sourcePoint" />
            <mxPoint x="790" y="1080" as="targetPoint" />
          </mxGeometry>
        </mxCell>
        <mxCell id="VrJq37f_B3mSxU0A269Z-16" value="N" style="edgeLabel;html=1;align=center;verticalAlign=middle;resizable=0;points=[];fontSize=12;" parent="VrJq37f_B3mSxU0A269Z-15" vertex="1" connectable="0">
          <mxGeometry x="0.525" y="1" relative="1" as="geometry">
            <mxPoint x="-9" y="-6" as="offset" />
          </mxGeometry>
        </mxCell>
        <mxCell id="VrJq37f_B3mSxU0A269Z-31" style="rounded=0;orthogonalLoop=1;jettySize=auto;html=1;exitX=0;exitY=0.5;exitDx=0;exitDy=0;entryX=1;entryY=0.5;entryDx=0;entryDy=0;" parent="TBj39ccM2QvI0rRjCSNy-1" source="VrJq37f_B3mSxU0A269Z-19" target="TBj39ccM2QvI0rRjCSNy-5" edge="1">
          <mxGeometry relative="1" as="geometry" />
        </mxCell>
        <mxCell id="VrJq37f_B3mSxU0A269Z-32" value="1" style="edgeLabel;html=1;align=center;verticalAlign=middle;resizable=0;points=[];fontSize=12;" parent="VrJq37f_B3mSxU0A269Z-31" vertex="1" connectable="0">
          <mxGeometry x="0.4801" y="2" relative="1" as="geometry">
            <mxPoint x="-1" y="-12" as="offset" />
          </mxGeometry>
        </mxCell>
        <mxCell id="VrJq37f_B3mSxU0A269Z-19" value="Travels" style="shape=rhombus;perimeter=rhombusPerimeter;whiteSpace=wrap;html=1;align=center;fontSize=11;" parent="TBj39ccM2QvI0rRjCSNy-1" vertex="1">
          <mxGeometry x="300" y="810" width="80" height="40" as="geometry" />
        </mxCell>
        <mxCell id="VrJq37f_B3mSxU0A269Z-29" value="" style="shape=link;html=1;rounded=0;entryX=0;entryY=0.5;entryDx=0;entryDy=0;exitX=1;exitY=0.5;exitDx=0;exitDy=0;" parent="TBj39ccM2QvI0rRjCSNy-1" source="VrJq37f_B3mSxU0A269Z-19" target="TBj39ccM2QvI0rRjCSNy-44" edge="1">
          <mxGeometry relative="1" as="geometry">
            <mxPoint x="510" y="930" as="sourcePoint" />
            <mxPoint x="510" y="860" as="targetPoint" />
          </mxGeometry>
        </mxCell>
        <mxCell id="VrJq37f_B3mSxU0A269Z-30" value="N" style="edgeLabel;html=1;align=center;verticalAlign=middle;resizable=0;points=[];fontSize=12;" parent="VrJq37f_B3mSxU0A269Z-29" vertex="1" connectable="0">
          <mxGeometry x="0.525" y="1" relative="1" as="geometry">
            <mxPoint x="9" y="-9" as="offset" />
          </mxGeometry>
        </mxCell>
        <mxCell id="VrJq37f_B3mSxU0A269Z-33" value="" style="shape=link;html=1;rounded=0;entryX=0.5;entryY=0;entryDx=0;entryDy=0;exitX=0.5;exitY=1;exitDx=0;exitDy=0;" parent="TBj39ccM2QvI0rRjCSNy-1" source="TBj39ccM2QvI0rRjCSNy-9" target="TBj39ccM2QvI0rRjCSNy-44" edge="1">
          <mxGeometry relative="1" as="geometry">
            <mxPoint x="390" y="840" as="sourcePoint" />
            <mxPoint x="470" y="840" as="targetPoint" />
          </mxGeometry>
        </mxCell>
        <mxCell id="VrJq37f_B3mSxU0A269Z-37" value="N" style="edgeLabel;html=1;align=center;verticalAlign=middle;resizable=0;points=[];fontSize=12;" parent="VrJq37f_B3mSxU0A269Z-33" vertex="1" connectable="0">
          <mxGeometry x="0.6583" y="3" relative="1" as="geometry">
            <mxPoint x="-13" y="3" as="offset" />
          </mxGeometry>
        </mxCell>
        <mxCell id="VrJq37f_B3mSxU0A269Z-38" value="Railcar" style="shape=rhombus;double=1;perimeter=rhombusPerimeter;whiteSpace=wrap;html=1;align=center;fontStyle=1" parent="TBj39ccM2QvI0rRjCSNy-1" vertex="1">
          <mxGeometry x="780" y="810" width="80" height="40" as="geometry" />
        </mxCell>
        <mxCell id="VrJq37f_B3mSxU0A269Z-40" value="" style="shape=link;html=1;rounded=0;entryX=0.5;entryY=0;entryDx=0;entryDy=0;exitX=0.5;exitY=1;exitDx=0;exitDy=0;" parent="TBj39ccM2QvI0rRjCSNy-1" source="TBj39ccM2QvI0rRjCSNy-12" target="VrJq37f_B3mSxU0A269Z-38" edge="1">
          <mxGeometry relative="1" as="geometry">
            <mxPoint x="510" y="740" as="sourcePoint" />
            <mxPoint x="510" y="820" as="targetPoint" />
          </mxGeometry>
        </mxCell>
        <mxCell id="VrJq37f_B3mSxU0A269Z-41" value="N" style="edgeLabel;html=1;align=center;verticalAlign=middle;resizable=0;points=[];fontSize=12;" parent="VrJq37f_B3mSxU0A269Z-40" vertex="1" connectable="0">
          <mxGeometry x="0.6583" y="3" relative="1" as="geometry">
            <mxPoint x="-13" y="3" as="offset" />
          </mxGeometry>
        </mxCell>
        <mxCell id="VrJq37f_B3mSxU0A269Z-42" value="" style="shape=link;html=1;rounded=0;entryX=0;entryY=0.5;entryDx=0;entryDy=0;exitX=1;exitY=0.5;exitDx=0;exitDy=0;" parent="TBj39ccM2QvI0rRjCSNy-1" source="TBj39ccM2QvI0rRjCSNy-31" target="VrJq37f_B3mSxU0A269Z-38" edge="1">
          <mxGeometry relative="1" as="geometry">
            <mxPoint x="710" y="1080" as="sourcePoint" />
            <mxPoint x="790" y="1080" as="targetPoint" />
          </mxGeometry>
        </mxCell>
        <mxCell id="VrJq37f_B3mSxU0A269Z-43" value="1" style="edgeLabel;html=1;align=center;verticalAlign=middle;resizable=0;points=[];fontSize=12;" parent="VrJq37f_B3mSxU0A269Z-42" vertex="1" connectable="0">
          <mxGeometry x="0.525" y="1" relative="1" as="geometry">
            <mxPoint x="9" y="-9" as="offset" />
          </mxGeometry>
        </mxCell>
        <mxCell id="VrJq37f_B3mSxU0A269Z-52" value="" style="shape=link;html=1;rounded=0;exitX=0.5;exitY=0;exitDx=0;exitDy=0;entryX=0.5;entryY=1;entryDx=0;entryDy=0;" parent="TBj39ccM2QvI0rRjCSNy-1" source="TBj39ccM2QvI0rRjCSNy-27" target="UFlbhCh1jYrcwFsARIZQ-22" edge="1">
          <mxGeometry relative="1" as="geometry">
            <mxPoint x="510" y="930" as="sourcePoint" />
            <mxPoint x="200" y="630" as="targetPoint" />
          </mxGeometry>
        </mxCell>
        <mxCell id="VrJq37f_B3mSxU0A269Z-53" value="N" style="edgeLabel;html=1;align=center;verticalAlign=middle;resizable=0;points=[];fontSize=12;" parent="VrJq37f_B3mSxU0A269Z-52" vertex="1" connectable="0">
          <mxGeometry x="0.525" y="1" relative="1" as="geometry">
            <mxPoint x="-9" y="-6" as="offset" />
          </mxGeometry>
        </mxCell>
        <mxCell id="VrJq37f_B3mSxU0A269Z-57" value="Trip" style="shape=rhombus;double=1;perimeter=rhombusPerimeter;whiteSpace=wrap;html=1;align=center;fontStyle=1" parent="TBj39ccM2QvI0rRjCSNy-1" vertex="1">
          <mxGeometry x="140.08000000000004" y="330" width="80" height="40" as="geometry" />
        </mxCell>
        <mxCell id="VrJq37f_B3mSxU0A269Z-62" value="" style="shape=link;html=1;rounded=0;entryX=0.5;entryY=1;entryDx=0;entryDy=0;exitX=0.5;exitY=0;exitDx=0;exitDy=0;" parent="TBj39ccM2QvI0rRjCSNy-1" source="Lqd2BsKXD1_Twzs3qtD8-1" target="VrJq37f_B3mSxU0A269Z-57" edge="1">
          <mxGeometry relative="1" as="geometry">
            <mxPoint x="110" y="430" as="sourcePoint" />
            <mxPoint x="190" y="620" as="targetPoint" />
          </mxGeometry>
        </mxCell>
        <mxCell id="VrJq37f_B3mSxU0A269Z-63" value="N" style="edgeLabel;html=1;align=center;verticalAlign=middle;resizable=0;points=[];fontSize=12;" parent="VrJq37f_B3mSxU0A269Z-62" vertex="1" connectable="0">
          <mxGeometry x="0.525" y="1" relative="1" as="geometry">
            <mxPoint x="-9" y="-6" as="offset" />
          </mxGeometry>
        </mxCell>
        <mxCell id="VrJq37f_B3mSxU0A269Z-66" value="" style="html=1;rounded=0;entryX=1;entryY=0.5;entryDx=0;entryDy=0;exitX=0;exitY=0.5;exitDx=0;exitDy=0;" parent="TBj39ccM2QvI0rRjCSNy-1" source="TBj39ccM2QvI0rRjCSNy-31" target="TBj39ccM2QvI0rRjCSNy-44" edge="1">
          <mxGeometry relative="1" as="geometry">
            <mxPoint x="710" y="840" as="sourcePoint" />
            <mxPoint x="790" y="840" as="targetPoint" />
          </mxGeometry>
        </mxCell>
        <mxCell id="VrJq37f_B3mSxU0A269Z-67" value="1" style="edgeLabel;html=1;align=center;verticalAlign=middle;resizable=0;points=[];fontSize=12;" parent="VrJq37f_B3mSxU0A269Z-66" vertex="1" connectable="0">
          <mxGeometry x="0.525" y="1" relative="1" as="geometry">
            <mxPoint x="-9" y="-11" as="offset" />
          </mxGeometry>
        </mxCell>
        <mxCell id="VrJq37f_B3mSxU0A269Z-68" value="" style="shape=link;html=1;rounded=0;entryX=1;entryY=0.5;entryDx=0;entryDy=0;exitX=0;exitY=0.5;exitDx=0;exitDy=0;" parent="TBj39ccM2QvI0rRjCSNy-1" source="TBj39ccM2QvI0rRjCSNy-30" target="VrJq37f_B3mSxU0A269Z-57" edge="1">
          <mxGeometry relative="1" as="geometry">
            <mxPoint x="390" y="840" as="sourcePoint" />
            <mxPoint x="470" y="840" as="targetPoint" />
          </mxGeometry>
        </mxCell>
        <mxCell id="VrJq37f_B3mSxU0A269Z-69" value="N" style="edgeLabel;html=1;align=center;verticalAlign=middle;resizable=0;points=[];fontSize=12;" parent="VrJq37f_B3mSxU0A269Z-68" vertex="1" connectable="0">
          <mxGeometry x="0.525" y="1" relative="1" as="geometry">
            <mxPoint x="-9" y="-11" as="offset" />
          </mxGeometry>
        </mxCell>
        <mxCell id="UFlbhCh1jYrcwFsARIZQ-0" style="rounded=0;orthogonalLoop=1;jettySize=auto;html=1;exitX=0.5;exitY=1;exitDx=0;exitDy=0;entryX=0.5;entryY=0;entryDx=0;entryDy=0;" parent="TBj39ccM2QvI0rRjCSNy-1" source="-z1d-_RdFJU9CNnB_19A-46" target="TBj39ccM2QvI0rRjCSNy-3" edge="1">
          <mxGeometry relative="1" as="geometry">
            <mxPoint x="690" y="370" as="sourcePoint" />
            <mxPoint x="690" y="450" as="targetPoint" />
          </mxGeometry>
        </mxCell>
        <mxCell id="UFlbhCh1jYrcwFsARIZQ-1" value="1" style="edgeLabel;html=1;align=center;verticalAlign=middle;resizable=0;points=[];fontSize=12;" parent="UFlbhCh1jYrcwFsARIZQ-0" vertex="1" connectable="0">
          <mxGeometry x="0.6362" y="-1" relative="1" as="geometry">
            <mxPoint x="-9" y="-6" as="offset" />
          </mxGeometry>
        </mxCell>
        <mxCell id="UFlbhCh1jYrcwFsARIZQ-2" value="" style="shape=link;html=1;rounded=0;entryX=0.5;entryY=1;entryDx=0;entryDy=0;exitX=0.5;exitY=0;exitDx=0;exitDy=0;" parent="TBj39ccM2QvI0rRjCSNy-1" source="-z1d-_RdFJU9CNnB_19A-46" target="Hlo2k790Sun50FqUQCLI-0" edge="1">
          <mxGeometry relative="1" as="geometry">
            <mxPoint x="690" y="330" as="sourcePoint" />
            <mxPoint x="690" y="250" as="targetPoint" />
          </mxGeometry>
        </mxCell>
        <mxCell id="UFlbhCh1jYrcwFsARIZQ-3" value="N" style="edgeLabel;html=1;align=center;verticalAlign=middle;resizable=0;points=[];fontSize=12;" parent="UFlbhCh1jYrcwFsARIZQ-2" vertex="1" connectable="0">
          <mxGeometry x="0.525" y="1" relative="1" as="geometry">
            <mxPoint x="-9" y="-6" as="offset" />
          </mxGeometry>
        </mxCell>
        <mxCell id="UFlbhCh1jYrcwFsARIZQ-5" value="" style="endArrow=none;html=1;rounded=0;exitX=0;exitY=1;exitDx=0;exitDy=0;entryX=1;entryY=0;entryDx=0;entryDy=0;" parent="TBj39ccM2QvI0rRjCSNy-1" source="-z1d-_RdFJU9CNnB_19A-2" target="VrJq37f_B3mSxU0A269Z-57" edge="1">
          <mxGeometry relative="1" as="geometry">
            <mxPoint x="400" y="330" as="sourcePoint" />
            <mxPoint x="560" y="330" as="targetPoint" />
          </mxGeometry>
        </mxCell>
        <mxCell id="UFlbhCh1jYrcwFsARIZQ-6" value="1" style="edgeLabel;html=1;align=center;verticalAlign=middle;resizable=0;points=[];fontSize=12;" parent="UFlbhCh1jYrcwFsARIZQ-5" vertex="1" connectable="0">
          <mxGeometry x="0.8331" relative="1" as="geometry">
            <mxPoint y="-12" as="offset" />
          </mxGeometry>
        </mxCell>
        <mxCell id="UFlbhCh1jYrcwFsARIZQ-9" value="" style="endArrow=none;html=1;rounded=0;dashed=1;dashPattern=1 2;entryX=0;entryY=1;entryDx=0;entryDy=0;exitX=1;exitY=0.5;exitDx=0;exitDy=0;" parent="TBj39ccM2QvI0rRjCSNy-1" source="Lqd2BsKXD1_Twzs3qtD8-18" target="VrJq37f_B3mSxU0A269Z-57" edge="1">
          <mxGeometry relative="1" as="geometry">
            <mxPoint x="190" y="380" as="sourcePoint" />
            <mxPoint x="350" y="380" as="targetPoint" />
          </mxGeometry>
        </mxCell>
        <mxCell id="UFlbhCh1jYrcwFsARIZQ-11" value="&lt;span style=&quot;border-bottom: 1px dotted; font-size: 11px;&quot;&gt;timestamp&lt;/span&gt;" style="ellipse;whiteSpace=wrap;html=1;align=center;fontSize=11;" parent="TBj39ccM2QvI0rRjCSNy-1" vertex="1">
          <mxGeometry x="39.92" y="280" width="80" height="20" as="geometry" />
        </mxCell>
        <mxCell id="UFlbhCh1jYrcwFsARIZQ-12" value="" style="endArrow=none;html=1;rounded=0;fontSize=11;entryX=1;entryY=1;entryDx=0;entryDy=0;exitX=0;exitY=0;exitDx=0;exitDy=0;" parent="TBj39ccM2QvI0rRjCSNy-1" source="VrJq37f_B3mSxU0A269Z-57" target="UFlbhCh1jYrcwFsARIZQ-11" edge="1">
          <mxGeometry relative="1" as="geometry">
            <mxPoint x="180" y="300" as="sourcePoint" />
            <mxPoint x="130" y="340" as="targetPoint" />
          </mxGeometry>
        </mxCell>
        <mxCell id="UFlbhCh1jYrcwFsARIZQ-19" value="name" style="ellipse;whiteSpace=wrap;html=1;align=center;fontSize=11;fontStyle=0" parent="TBj39ccM2QvI0rRjCSNy-1" vertex="1">
          <mxGeometry x="560" y="360" width="80" height="20" as="geometry" />
        </mxCell>
        <mxCell id="UFlbhCh1jYrcwFsARIZQ-20" value="" style="endArrow=none;html=1;rounded=0;fontSize=11;exitX=0;exitY=0.5;exitDx=0;exitDy=0;entryX=1;entryY=0.75;entryDx=0;entryDy=0;" parent="TBj39ccM2QvI0rRjCSNy-1" source="UFlbhCh1jYrcwFsARIZQ-19" target="TBj39ccM2QvI0rRjCSNy-3" edge="1">
          <mxGeometry relative="1" as="geometry">
            <mxPoint x="570" y="340" as="sourcePoint" />
            <mxPoint x="550" y="350" as="targetPoint" />
          </mxGeometry>
        </mxCell>
        <mxCell id="UFlbhCh1jYrcwFsARIZQ-22" value="Station" style="shape=ext;margin=3;double=1;whiteSpace=wrap;html=1;align=center;fontStyle=1" parent="TBj39ccM2QvI0rRjCSNy-1" vertex="1">
          <mxGeometry x="140.16000000000003" y="570" width="79.92" height="40" as="geometry" />
        </mxCell>
        <mxCell id="UFlbhCh1jYrcwFsARIZQ-23" value="&lt;span style=&quot;border-bottom: 1px dotted; font-size: 11px;&quot;&gt;station_lng&lt;/span&gt;" style="ellipse;whiteSpace=wrap;html=1;align=center;fontSize=11;" parent="TBj39ccM2QvI0rRjCSNy-1" vertex="1">
          <mxGeometry x="39.92" y="560" width="80" height="20" as="geometry" />
        </mxCell>
        <mxCell id="UFlbhCh1jYrcwFsARIZQ-24" value="&lt;span style=&quot;border-bottom: 1px dotted; font-size: 11px;&quot;&gt;station_lat&lt;/span&gt;" style="ellipse;whiteSpace=wrap;html=1;align=center;fontSize=11;" parent="TBj39ccM2QvI0rRjCSNy-1" vertex="1">
          <mxGeometry x="39.92" y="520" width="80" height="20" as="geometry" />
        </mxCell>
        <mxCell id="UFlbhCh1jYrcwFsARIZQ-25" value="" style="endArrow=none;html=1;rounded=0;fontSize=11;exitX=0;exitY=0;exitDx=0;exitDy=0;entryX=1;entryY=1;entryDx=0;entryDy=0;" parent="TBj39ccM2QvI0rRjCSNy-1" source="UFlbhCh1jYrcwFsARIZQ-22" target="UFlbhCh1jYrcwFsARIZQ-24" edge="1">
          <mxGeometry relative="1" as="geometry">
            <mxPoint x="170" y="350" as="sourcePoint" />
            <mxPoint x="130" y="340" as="targetPoint" />
          </mxGeometry>
        </mxCell>
        <mxCell id="UFlbhCh1jYrcwFsARIZQ-26" value="" style="endArrow=none;html=1;rounded=0;fontSize=11;exitX=0;exitY=0.25;exitDx=0;exitDy=0;entryX=1;entryY=0.5;entryDx=0;entryDy=0;" parent="TBj39ccM2QvI0rRjCSNy-1" source="UFlbhCh1jYrcwFsARIZQ-22" target="UFlbhCh1jYrcwFsARIZQ-23" edge="1">
          <mxGeometry relative="1" as="geometry">
            <mxPoint x="150" y="580" as="sourcePoint" />
            <mxPoint x="130" y="540" as="targetPoint" />
          </mxGeometry>
        </mxCell>
        <mxCell id="UFlbhCh1jYrcwFsARIZQ-27" value="" style="endArrow=none;html=1;rounded=0;dashed=1;dashPattern=1 2;exitX=0;exitY=1;exitDx=0;exitDy=0;entryX=1;entryY=0;entryDx=0;entryDy=0;" parent="TBj39ccM2QvI0rRjCSNy-1" source="TBj39ccM2QvI0rRjCSNy-50" target="UFlbhCh1jYrcwFsARIZQ-22" edge="1">
          <mxGeometry relative="1" as="geometry">
            <mxPoint x="130" y="380" as="sourcePoint" />
            <mxPoint x="130" y="640" as="targetPoint" />
          </mxGeometry>
        </mxCell>
        <mxCell id="UFlbhCh1jYrcwFsARIZQ-28" value="zip" style="ellipse;whiteSpace=wrap;html=1;align=center;fontSize=11;fontStyle=0" parent="TBj39ccM2QvI0rRjCSNy-1" vertex="1">
          <mxGeometry x="39.92000000000003" y="640" width="80" height="20" as="geometry" />
        </mxCell>
        <mxCell id="UFlbhCh1jYrcwFsARIZQ-29" value="" style="endArrow=none;html=1;rounded=0;fontSize=11;entryX=0;entryY=1;entryDx=0;entryDy=0;exitX=1;exitY=0;exitDx=0;exitDy=0;" parent="TBj39ccM2QvI0rRjCSNy-1" source="UFlbhCh1jYrcwFsARIZQ-28" target="UFlbhCh1jYrcwFsARIZQ-22" edge="1">
          <mxGeometry relative="1" as="geometry">
            <mxPoint x="150" y="660" as="sourcePoint" />
            <mxPoint x="130" y="620" as="targetPoint" />
            <Array as="points">
              <mxPoint x="120" y="630" />
            </Array>
          </mxGeometry>
        </mxCell>
        <mxCell id="UFlbhCh1jYrcwFsARIZQ-33" value="birth" style="ellipse;whiteSpace=wrap;html=1;align=center;fontSize=11;fontStyle=0" parent="TBj39ccM2QvI0rRjCSNy-1" vertex="1">
          <mxGeometry x="360" y="1080" width="80" height="20" as="geometry" />
        </mxCell>
        <mxCell id="UFlbhCh1jYrcwFsARIZQ-34" value="phones" style="ellipse;shape=doubleEllipse;margin=3;whiteSpace=wrap;html=1;align=center;fontSize=11;" parent="TBj39ccM2QvI0rRjCSNy-1" vertex="1">
          <mxGeometry x="560" y="1120" width="80" height="20" as="geometry" />
        </mxCell>
        <mxCell id="UFlbhCh1jYrcwFsARIZQ-35" value="age" style="ellipse;whiteSpace=wrap;html=1;align=center;dashed=1;fontSize=11;" parent="TBj39ccM2QvI0rRjCSNy-1" vertex="1">
          <mxGeometry x="360" y="1120" width="80" height="20" as="geometry" />
        </mxCell>
        <mxCell id="UFlbhCh1jYrcwFsARIZQ-42" value="" style="endArrow=none;html=1;rounded=0;fontSize=11;entryX=1;entryY=1;entryDx=0;entryDy=0;exitX=0;exitY=0;exitDx=0;exitDy=0;" parent="TBj39ccM2QvI0rRjCSNy-1" source="UFlbhCh1jYrcwFsARIZQ-34" target="TBj39ccM2QvI0rRjCSNy-4" edge="1">
          <mxGeometry relative="1" as="geometry">
            <mxPoint x="150" y="850" as="sourcePoint" />
            <mxPoint x="130" y="860" as="targetPoint" />
          </mxGeometry>
        </mxCell>
        <mxCell id="UFlbhCh1jYrcwFsARIZQ-43" value="" style="endArrow=none;html=1;rounded=0;fontSize=11;entryX=0;entryY=1;entryDx=0;entryDy=0;exitX=1;exitY=0;exitDx=0;exitDy=0;" parent="TBj39ccM2QvI0rRjCSNy-1" source="UFlbhCh1jYrcwFsARIZQ-35" target="TBj39ccM2QvI0rRjCSNy-4" edge="1">
          <mxGeometry relative="1" as="geometry">
            <mxPoint x="581" y="1133" as="sourcePoint" />
            <mxPoint x="550" y="1100" as="targetPoint" />
          </mxGeometry>
        </mxCell>
        <mxCell id="UFlbhCh1jYrcwFsARIZQ-44" value="" style="endArrow=none;html=1;rounded=0;fontSize=11;entryX=0;entryY=0.75;entryDx=0;entryDy=0;exitX=1;exitY=0.5;exitDx=0;exitDy=0;" parent="TBj39ccM2QvI0rRjCSNy-1" source="UFlbhCh1jYrcwFsARIZQ-33" target="TBj39ccM2QvI0rRjCSNy-4" edge="1">
          <mxGeometry relative="1" as="geometry">
            <mxPoint x="439" y="1133" as="sourcePoint" />
            <mxPoint x="470" y="1100" as="targetPoint" />
          </mxGeometry>
        </mxCell>
        <mxCell id="UFlbhCh1jYrcwFsARIZQ-45" value="" style="endArrow=none;html=1;rounded=0;fontSize=11;entryX=0;entryY=0.25;entryDx=0;entryDy=0;exitX=1;exitY=0.5;exitDx=0;exitDy=0;" parent="TBj39ccM2QvI0rRjCSNy-1" source="IaNTLNFMgGCvzljQB9XG-7" target="TBj39ccM2QvI0rRjCSNy-4" edge="1">
          <mxGeometry relative="1" as="geometry">
            <mxPoint x="450" y="1100" as="sourcePoint" />
            <mxPoint x="470" y="1090" as="targetPoint" />
          </mxGeometry>
        </mxCell>
        <mxCell id="UFlbhCh1jYrcwFsARIZQ-46" value="" style="endArrow=none;html=1;rounded=0;fontSize=11;entryX=0;entryY=0;entryDx=0;entryDy=0;exitX=1;exitY=1;exitDx=0;exitDy=0;" parent="TBj39ccM2QvI0rRjCSNy-1" source="TBj39ccM2QvI0rRjCSNy-55" target="TBj39ccM2QvI0rRjCSNy-4" edge="1">
          <mxGeometry relative="1" as="geometry">
            <mxPoint x="460" y="1110" as="sourcePoint" />
            <mxPoint x="480" y="1100" as="targetPoint" />
          </mxGeometry>
        </mxCell>
      </root>
    </mxGraphModel>
  </diagram>
  <diagram name="proj_deliverable3" id="Y7QIySviE5TfaUL8i98_">
    <mxGraphModel dx="1434" dy="782" grid="1" gridSize="10" guides="1" tooltips="1" connect="1" arrows="1" fold="1" page="1" pageScale="1" pageWidth="1000" pageHeight="1180" math="0" shadow="0" extFonts="Permanent Marker^https://fonts.googleapis.com/css?family=Permanent+Marker">
      <root>
        <mxCell id="Op0QKhULN7pPyXIrvQpy-0" />
        <mxCell id="Op0QKhULN7pPyXIrvQpy-1" parent="Op0QKhULN7pPyXIrvQpy-0" />
        <mxCell id="Op0QKhULN7pPyXIrvQpy-2" value="Train" style="whiteSpace=wrap;html=1;align=center;fontSize=12;fontStyle=1" parent="Op0QKhULN7pPyXIrvQpy-1" vertex="1">
          <mxGeometry x="460" y="810" width="80" height="40" as="geometry" />
        </mxCell>
        <mxCell id="Op0QKhULN7pPyXIrvQpy-3" value="Passenger" style="whiteSpace=wrap;html=1;align=center;fontSize=12;fontStyle=1" parent="Op0QKhULN7pPyXIrvQpy-1" vertex="1">
          <mxGeometry x="460.08000000000004" y="330" width="80" height="40" as="geometry" />
        </mxCell>
        <mxCell id="Op0QKhULN7pPyXIrvQpy-4" value="Conductor" style="whiteSpace=wrap;html=1;align=center;fontSize=12;fontStyle=1" parent="Op0QKhULN7pPyXIrvQpy-1" vertex="1">
          <mxGeometry x="460" y="1050" width="80" height="40" as="geometry" />
        </mxCell>
        <mxCell id="Op0QKhULN7pPyXIrvQpy-5" value="Track" style="whiteSpace=wrap;html=1;align=center;fontSize=12;fontStyle=1" parent="Op0QKhULN7pPyXIrvQpy-1" vertex="1">
          <mxGeometry x="140.08" y="810" width="80" height="40" as="geometry" />
        </mxCell>
        <mxCell id="Op0QKhULN7pPyXIrvQpy-6" value="Wagon" style="whiteSpace=wrap;html=1;align=center;fontSize=12;fontStyle=1" parent="Op0QKhULN7pPyXIrvQpy-1" vertex="1">
          <mxGeometry x="780" y="570" width="80" height="40" as="geometry" />
        </mxCell>
        <mxCell id="Op0QKhULN7pPyXIrvQpy-7" value="Locomotive" style="whiteSpace=wrap;html=1;align=center;fontSize=12;fontStyle=1" parent="Op0QKhULN7pPyXIrvQpy-1" vertex="1">
          <mxGeometry x="459.92" y="570" width="80" height="40" as="geometry" />
        </mxCell>
        <mxCell id="Op0QKhULN7pPyXIrvQpy-8" style="rounded=0;orthogonalLoop=1;jettySize=auto;html=1;exitX=0.5;exitY=0;exitDx=0;exitDy=0;entryX=0.5;entryY=1;entryDx=0;entryDy=0;" parent="Op0QKhULN7pPyXIrvQpy-1" source="Op0QKhULN7pPyXIrvQpy-10" target="Op0QKhULN7pPyXIrvQpy-7" edge="1">
          <mxGeometry relative="1" as="geometry" />
        </mxCell>
        <mxCell id="Op0QKhULN7pPyXIrvQpy-9" value="1" style="edgeLabel;html=1;align=center;verticalAlign=middle;resizable=0;points=[];fontSize=12;" parent="Op0QKhULN7pPyXIrvQpy-8" vertex="1" connectable="0">
          <mxGeometry x="0.7218" y="-2" relative="1" as="geometry">
            <mxPoint x="-12" y="8" as="offset" />
          </mxGeometry>
        </mxCell>
        <mxCell id="Op0QKhULN7pPyXIrvQpy-10" value="Powered" style="shape=rhombus;perimeter=rhombusPerimeter;whiteSpace=wrap;html=1;align=center;fontSize=11;" parent="Op0QKhULN7pPyXIrvQpy-1" vertex="1">
          <mxGeometry x="460" y="690" width="80" height="40" as="geometry" />
        </mxCell>
        <mxCell id="Op0QKhULN7pPyXIrvQpy-11" style="rounded=0;orthogonalLoop=1;jettySize=auto;html=1;exitX=0.5;exitY=0;exitDx=0;exitDy=0;entryX=0.5;entryY=1;entryDx=0;entryDy=0;" parent="Op0QKhULN7pPyXIrvQpy-1" source="Op0QKhULN7pPyXIrvQpy-13" target="Op0QKhULN7pPyXIrvQpy-6" edge="1">
          <mxGeometry relative="1" as="geometry" />
        </mxCell>
        <mxCell id="Op0QKhULN7pPyXIrvQpy-12" value="1" style="edgeLabel;html=1;align=center;verticalAlign=middle;resizable=0;points=[];fontSize=12;" parent="Op0QKhULN7pPyXIrvQpy-11" vertex="1" connectable="0">
          <mxGeometry x="0.556" y="-1" relative="1" as="geometry">
            <mxPoint x="-11" as="offset" />
          </mxGeometry>
        </mxCell>
        <mxCell id="Op0QKhULN7pPyXIrvQpy-13" value="Lines" style="shape=rhombus;perimeter=rhombusPerimeter;whiteSpace=wrap;html=1;align=center;fontSize=11;" parent="Op0QKhULN7pPyXIrvQpy-1" vertex="1">
          <mxGeometry x="780" y="690" width="80" height="40" as="geometry" />
        </mxCell>
        <mxCell id="Op0QKhULN7pPyXIrvQpy-14" style="rounded=0;orthogonalLoop=1;jettySize=auto;html=1;exitX=0.5;exitY=1;exitDx=0;exitDy=0;entryX=0.5;entryY=0;entryDx=0;entryDy=0;" parent="Op0QKhULN7pPyXIrvQpy-1" source="Op0QKhULN7pPyXIrvQpy-16" target="Op0QKhULN7pPyXIrvQpy-5" edge="1">
          <mxGeometry relative="1" as="geometry" />
        </mxCell>
        <mxCell id="Op0QKhULN7pPyXIrvQpy-15" value="1" style="edgeLabel;html=1;align=center;verticalAlign=middle;resizable=0;points=[];fontSize=12;" parent="Op0QKhULN7pPyXIrvQpy-14" vertex="1" connectable="0">
          <mxGeometry x="0.6362" y="-1" relative="1" as="geometry">
            <mxPoint x="-9" y="-6" as="offset" />
          </mxGeometry>
        </mxCell>
        <mxCell id="Op0QKhULN7pPyXIrvQpy-16" value="Positioned" style="shape=rhombus;perimeter=rhombusPerimeter;whiteSpace=wrap;html=1;align=center;fontSize=11;" parent="Op0QKhULN7pPyXIrvQpy-1" vertex="1">
          <mxGeometry x="140" y="690" width="80" height="40" as="geometry" />
        </mxCell>
        <mxCell id="Op0QKhULN7pPyXIrvQpy-17" style="rounded=0;orthogonalLoop=1;jettySize=auto;html=1;exitX=1;exitY=0.5;exitDx=0;exitDy=0;entryX=0;entryY=0.5;entryDx=0;entryDy=0;" parent="Op0QKhULN7pPyXIrvQpy-1" source="Op0QKhULN7pPyXIrvQpy-19" target="Op0QKhULN7pPyXIrvQpy-3" edge="1">
          <mxGeometry relative="1" as="geometry" />
        </mxCell>
        <mxCell id="Op0QKhULN7pPyXIrvQpy-18" value="1" style="edgeLabel;html=1;align=center;verticalAlign=middle;resizable=0;points=[];fontSize=12;" parent="Op0QKhULN7pPyXIrvQpy-17" vertex="1" connectable="0">
          <mxGeometry x="0.2608" relative="1" as="geometry">
            <mxPoint x="10" y="-10" as="offset" />
          </mxGeometry>
        </mxCell>
        <mxCell id="Op0QKhULN7pPyXIrvQpy-19" value="Registered" style="shape=rhombus;perimeter=rhombusPerimeter;whiteSpace=wrap;html=1;align=center;fontSize=11;" parent="Op0QKhULN7pPyXIrvQpy-1" vertex="1">
          <mxGeometry x="300" y="330" width="80" height="40" as="geometry" />
        </mxCell>
        <mxCell id="Op0QKhULN7pPyXIrvQpy-20" value="Carried" style="shape=rhombus;perimeter=rhombusPerimeter;whiteSpace=wrap;html=1;align=center;fontSize=11;" parent="Op0QKhULN7pPyXIrvQpy-1" vertex="1">
          <mxGeometry x="620" y="810" width="80" height="40" as="geometry" />
        </mxCell>
        <mxCell id="Op0QKhULN7pPyXIrvQpy-21" value="lng" style="ellipse;whiteSpace=wrap;html=1;align=center;fontSize=11;fontStyle=0" parent="Op0QKhULN7pPyXIrvQpy-1" vertex="1">
          <mxGeometry x="40.00000000000003" y="600" width="80" height="20" as="geometry" />
        </mxCell>
        <mxCell id="Op0QKhULN7pPyXIrvQpy-22" value="zip" style="ellipse;whiteSpace=wrap;html=1;align=center;fontSize=11;fontStyle=0" parent="Op0QKhULN7pPyXIrvQpy-1" vertex="1">
          <mxGeometry x="240.00000000000003" y="520" width="80" height="20" as="geometry" />
        </mxCell>
        <mxCell id="Op0QKhULN7pPyXIrvQpy-23" value="" style="endArrow=none;html=1;rounded=0;fontSize=11;exitX=0;exitY=0.75;exitDx=0;exitDy=0;" parent="Op0QKhULN7pPyXIrvQpy-1" source="Op0QKhULN7pPyXIrvQpy-118" edge="1">
          <mxGeometry relative="1" as="geometry">
            <mxPoint x="150" y="630" as="sourcePoint" />
            <mxPoint x="120" y="610" as="targetPoint" />
          </mxGeometry>
        </mxCell>
        <mxCell id="Op0QKhULN7pPyXIrvQpy-24" value="social_sec" style="ellipse;whiteSpace=wrap;html=1;align=center;fontSize=11;fontStyle=4" parent="Op0QKhULN7pPyXIrvQpy-1" vertex="1">
          <mxGeometry x="560" y="1000" width="80" height="20" as="geometry" />
        </mxCell>
        <mxCell id="Op0QKhULN7pPyXIrvQpy-25" value="serial_no" style="ellipse;whiteSpace=wrap;html=1;align=center;fontSize=11;fontStyle=4" parent="Op0QKhULN7pPyXIrvQpy-1" vertex="1">
          <mxGeometry x="360.0000000000001" y="560" width="80" height="20" as="geometry" />
        </mxCell>
        <mxCell id="Op0QKhULN7pPyXIrvQpy-26" value="since" style="ellipse;whiteSpace=wrap;html=1;align=center;fontSize=11;fontStyle=0" parent="Op0QKhULN7pPyXIrvQpy-1" vertex="1">
          <mxGeometry x="360.0000000000001" y="600" width="80" height="20" as="geometry" />
        </mxCell>
        <mxCell id="Op0QKhULN7pPyXIrvQpy-27" value="" style="endArrow=none;html=1;rounded=0;fontSize=11;exitX=1;exitY=0.5;exitDx=0;exitDy=0;entryX=0;entryY=0.25;entryDx=0;entryDy=0;" parent="Op0QKhULN7pPyXIrvQpy-1" source="Op0QKhULN7pPyXIrvQpy-25" target="Op0QKhULN7pPyXIrvQpy-7" edge="1">
          <mxGeometry relative="1" as="geometry">
            <mxPoint x="998.7754928412382" y="643.074681718103" as="sourcePoint" />
            <mxPoint x="699.9200000000001" y="580" as="targetPoint" />
          </mxGeometry>
        </mxCell>
        <mxCell id="Op0QKhULN7pPyXIrvQpy-28" value="" style="endArrow=none;html=1;rounded=0;fontSize=11;entryX=0;entryY=0.75;entryDx=0;entryDy=0;exitX=1;exitY=0.5;exitDx=0;exitDy=0;" parent="Op0QKhULN7pPyXIrvQpy-1" source="Op0QKhULN7pPyXIrvQpy-26" target="Op0QKhULN7pPyXIrvQpy-7" edge="1">
          <mxGeometry relative="1" as="geometry">
            <mxPoint x="470" y="630" as="sourcePoint" />
            <mxPoint x="699.9200000000001" y="600" as="targetPoint" />
          </mxGeometry>
        </mxCell>
        <mxCell id="Op0QKhULN7pPyXIrvQpy-29" value="train_id" style="ellipse;whiteSpace=wrap;html=1;align=center;fontSize=11;fontStyle=4" parent="Op0QKhULN7pPyXIrvQpy-1" vertex="1">
          <mxGeometry x="560" y="880" width="80" height="20" as="geometry" />
        </mxCell>
        <mxCell id="Op0QKhULN7pPyXIrvQpy-30" value="" style="endArrow=none;html=1;rounded=0;fontSize=11;exitX=0;exitY=0;exitDx=0;exitDy=0;entryX=1;entryY=1;entryDx=0;entryDy=0;" parent="Op0QKhULN7pPyXIrvQpy-1" source="Op0QKhULN7pPyXIrvQpy-29" target="Op0QKhULN7pPyXIrvQpy-2" edge="1">
          <mxGeometry relative="1" as="geometry">
            <mxPoint x="438.8554928412382" y="1123.074681718103" as="sourcePoint" />
            <mxPoint x="540" y="880" as="targetPoint" />
          </mxGeometry>
        </mxCell>
        <mxCell id="Op0QKhULN7pPyXIrvQpy-31" value="wagon_id" style="ellipse;whiteSpace=wrap;html=1;align=center;fontSize=11;fontStyle=4" parent="Op0QKhULN7pPyXIrvQpy-1" vertex="1">
          <mxGeometry x="680" y="560" width="80" height="20" as="geometry" />
        </mxCell>
        <mxCell id="Op0QKhULN7pPyXIrvQpy-32" value="seats" style="ellipse;whiteSpace=wrap;html=1;align=center;fontSize=11;fontStyle=0" parent="Op0QKhULN7pPyXIrvQpy-1" vertex="1">
          <mxGeometry x="680" y="600" width="80" height="20" as="geometry" />
        </mxCell>
        <mxCell id="Op0QKhULN7pPyXIrvQpy-33" value="" style="endArrow=none;html=1;rounded=0;fontSize=11;exitX=1;exitY=0.5;exitDx=0;exitDy=0;entryX=0;entryY=0.25;entryDx=0;entryDy=0;" parent="Op0QKhULN7pPyXIrvQpy-1" source="Op0QKhULN7pPyXIrvQpy-31" target="Op0QKhULN7pPyXIrvQpy-6" edge="1">
          <mxGeometry relative="1" as="geometry">
            <mxPoint x="1318.8554928412382" y="643.074681718103" as="sourcePoint" />
            <mxPoint x="870" y="550" as="targetPoint" />
          </mxGeometry>
        </mxCell>
        <mxCell id="Op0QKhULN7pPyXIrvQpy-34" value="" style="endArrow=none;html=1;rounded=0;fontSize=11;exitX=1;exitY=0.5;exitDx=0;exitDy=0;entryX=0;entryY=0.75;entryDx=0;entryDy=0;" parent="Op0QKhULN7pPyXIrvQpy-1" source="Op0QKhULN7pPyXIrvQpy-32" target="Op0QKhULN7pPyXIrvQpy-6" edge="1">
          <mxGeometry relative="1" as="geometry">
            <mxPoint x="1328.8554928412382" y="653.074681718103" as="sourcePoint" />
            <mxPoint x="860" y="600" as="targetPoint" />
          </mxGeometry>
        </mxCell>
        <mxCell id="Op0QKhULN7pPyXIrvQpy-35" value="passenger_id" style="ellipse;whiteSpace=wrap;html=1;align=center;fontSize=11;fontStyle=4" parent="Op0QKhULN7pPyXIrvQpy-1" vertex="1">
          <mxGeometry x="560" y="320" width="80" height="20" as="geometry" />
        </mxCell>
        <mxCell id="Op0QKhULN7pPyXIrvQpy-36" value="" style="endArrow=none;html=1;rounded=0;fontSize=11;exitX=0;exitY=0.5;exitDx=0;exitDy=0;entryX=1;entryY=0.25;entryDx=0;entryDy=0;" parent="Op0QKhULN7pPyXIrvQpy-1" source="Op0QKhULN7pPyXIrvQpy-35" target="Op0QKhULN7pPyXIrvQpy-3" edge="1">
          <mxGeometry relative="1" as="geometry">
            <mxPoint x="758.8554928412382" y="633.074681718103" as="sourcePoint" />
            <mxPoint x="450" y="540" as="targetPoint" />
          </mxGeometry>
        </mxCell>
        <mxCell id="Op0QKhULN7pPyXIrvQpy-37" value="Pass" style="whiteSpace=wrap;html=1;align=center;fontSize=12;fontStyle=1" parent="Op0QKhULN7pPyXIrvQpy-1" vertex="1">
          <mxGeometry x="460" y="90" width="80" height="40" as="geometry" />
        </mxCell>
        <mxCell id="Op0QKhULN7pPyXIrvQpy-38" style="rounded=0;orthogonalLoop=1;jettySize=auto;html=1;exitX=1;exitY=0;exitDx=0;exitDy=0;entryX=0.25;entryY=1;entryDx=0;entryDy=0;" parent="Op0QKhULN7pPyXIrvQpy-1" source="Op0QKhULN7pPyXIrvQpy-40" target="Op0QKhULN7pPyXIrvQpy-37" edge="1">
          <mxGeometry relative="1" as="geometry" />
        </mxCell>
        <mxCell id="Op0QKhULN7pPyXIrvQpy-39" value="1" style="edgeLabel;html=1;align=center;verticalAlign=middle;resizable=0;points=[];fontSize=12;" parent="Op0QKhULN7pPyXIrvQpy-38" vertex="1" connectable="0">
          <mxGeometry x="0.7038" relative="1" as="geometry">
            <mxPoint x="-12" y="-3" as="offset" />
          </mxGeometry>
        </mxCell>
        <mxCell id="Op0QKhULN7pPyXIrvQpy-40" value="Uses" style="shape=rhombus;perimeter=rhombusPerimeter;whiteSpace=wrap;html=1;align=center;fontSize=11;" parent="Op0QKhULN7pPyXIrvQpy-1" vertex="1">
          <mxGeometry x="300" y="210" width="80" height="40" as="geometry" />
        </mxCell>
        <mxCell id="Op0QKhULN7pPyXIrvQpy-41" value="Alert" style="whiteSpace=wrap;html=1;align=center;fontSize=12;fontStyle=1" parent="Op0QKhULN7pPyXIrvQpy-1" vertex="1">
          <mxGeometry x="140.15999999999997" y="1050" width="80" height="40" as="geometry" />
        </mxCell>
        <mxCell id="Op0QKhULN7pPyXIrvQpy-42" style="rounded=0;orthogonalLoop=1;jettySize=auto;html=1;exitX=1;exitY=0.5;exitDx=0;exitDy=0;entryX=0;entryY=0.5;entryDx=0;entryDy=0;" parent="Op0QKhULN7pPyXIrvQpy-1" source="Op0QKhULN7pPyXIrvQpy-44" target="Op0QKhULN7pPyXIrvQpy-4" edge="1">
          <mxGeometry relative="1" as="geometry">
            <mxPoint x="430" y="1030" as="targetPoint" />
          </mxGeometry>
        </mxCell>
        <mxCell id="Op0QKhULN7pPyXIrvQpy-43" value="1" style="edgeLabel;html=1;align=center;verticalAlign=middle;resizable=0;points=[];fontSize=12;" parent="Op0QKhULN7pPyXIrvQpy-42" vertex="1" connectable="0">
          <mxGeometry x="0.3596" y="3" relative="1" as="geometry">
            <mxPoint x="6" y="-7" as="offset" />
          </mxGeometry>
        </mxCell>
        <mxCell id="Op0QKhULN7pPyXIrvQpy-44" value="Issued" style="shape=rhombus;perimeter=rhombusPerimeter;whiteSpace=wrap;html=1;align=center;fontSize=11;" parent="Op0QKhULN7pPyXIrvQpy-1" vertex="1">
          <mxGeometry x="300" y="1050" width="80" height="40" as="geometry" />
        </mxCell>
        <mxCell id="Op0QKhULN7pPyXIrvQpy-45" value="has_elevator" style="ellipse;whiteSpace=wrap;html=1;align=center;fontSize=11;fontStyle=0" parent="Op0QKhULN7pPyXIrvQpy-1" vertex="1">
          <mxGeometry x="240" y="600" width="80" height="20" as="geometry" />
        </mxCell>
        <mxCell id="Op0QKhULN7pPyXIrvQpy-46" value="has_parking" style="ellipse;whiteSpace=wrap;html=1;align=center;fontSize=11;fontStyle=0" parent="Op0QKhULN7pPyXIrvQpy-1" vertex="1">
          <mxGeometry x="240" y="560" width="80" height="20" as="geometry" />
        </mxCell>
        <mxCell id="Op0QKhULN7pPyXIrvQpy-47" value="" style="endArrow=none;html=1;rounded=0;fontSize=11;exitX=0;exitY=0.5;exitDx=0;exitDy=0;entryX=1;entryY=0.75;entryDx=0;entryDy=0;" parent="Op0QKhULN7pPyXIrvQpy-1" source="Op0QKhULN7pPyXIrvQpy-45" target="Op0QKhULN7pPyXIrvQpy-118" edge="1">
          <mxGeometry relative="1" as="geometry">
            <mxPoint x="249.99999999999977" y="540" as="sourcePoint" />
            <mxPoint x="220" y="670" as="targetPoint" />
          </mxGeometry>
        </mxCell>
        <mxCell id="Op0QKhULN7pPyXIrvQpy-48" value="" style="endArrow=none;html=1;rounded=0;fontSize=11;entryX=1;entryY=0.25;entryDx=0;entryDy=0;exitX=0;exitY=0.5;exitDx=0;exitDy=0;" parent="Op0QKhULN7pPyXIrvQpy-1" source="Op0QKhULN7pPyXIrvQpy-46" target="Op0QKhULN7pPyXIrvQpy-118" edge="1">
          <mxGeometry relative="1" as="geometry">
            <mxPoint x="240" y="540" as="sourcePoint" />
            <mxPoint x="230" y="570" as="targetPoint" />
          </mxGeometry>
        </mxCell>
        <mxCell id="Op0QKhULN7pPyXIrvQpy-49" value="alert_id" style="ellipse;whiteSpace=wrap;html=1;align=center;fontSize=11;fontStyle=4" parent="Op0QKhULN7pPyXIrvQpy-1" vertex="1">
          <mxGeometry x="39.99999999999997" y="1000" width="80" height="20" as="geometry" />
        </mxCell>
        <mxCell id="Op0QKhULN7pPyXIrvQpy-50" value="date_end" style="ellipse;whiteSpace=wrap;html=1;align=center;fontSize=11;fontStyle=0" parent="Op0QKhULN7pPyXIrvQpy-1" vertex="1">
          <mxGeometry x="39.99999999999997" y="1120" width="80" height="20" as="geometry" />
        </mxCell>
        <mxCell id="Op0QKhULN7pPyXIrvQpy-51" value="date_start" style="ellipse;whiteSpace=wrap;html=1;align=center;fontSize=11;fontStyle=0" parent="Op0QKhULN7pPyXIrvQpy-1" vertex="1">
          <mxGeometry x="39.99999999999997" y="1080" width="80" height="20" as="geometry" />
        </mxCell>
        <mxCell id="Op0QKhULN7pPyXIrvQpy-52" value="message" style="ellipse;whiteSpace=wrap;html=1;align=center;fontSize=11;fontStyle=0" parent="Op0QKhULN7pPyXIrvQpy-1" vertex="1">
          <mxGeometry x="39.99999999999997" y="1040" width="80" height="20" as="geometry" />
        </mxCell>
        <mxCell id="Op0QKhULN7pPyXIrvQpy-53" value="" style="endArrow=none;html=1;rounded=0;fontSize=11;exitX=1;exitY=1;exitDx=0;exitDy=0;entryX=0;entryY=0;entryDx=0;entryDy=0;" parent="Op0QKhULN7pPyXIrvQpy-1" source="Op0QKhULN7pPyXIrvQpy-49" target="Op0QKhULN7pPyXIrvQpy-41" edge="1">
          <mxGeometry relative="1" as="geometry">
            <mxPoint x="250.15999999999997" y="1300" as="sourcePoint" />
            <mxPoint x="200.15999999999997" y="1020" as="targetPoint" />
          </mxGeometry>
        </mxCell>
        <mxCell id="Op0QKhULN7pPyXIrvQpy-54" value="" style="endArrow=none;html=1;rounded=0;fontSize=11;exitX=1;exitY=0.5;exitDx=0;exitDy=0;entryX=0;entryY=0.25;entryDx=0;entryDy=0;" parent="Op0QKhULN7pPyXIrvQpy-1" source="Op0QKhULN7pPyXIrvQpy-52" target="Op0QKhULN7pPyXIrvQpy-41" edge="1">
          <mxGeometry relative="1" as="geometry">
            <mxPoint x="250.15999999999997" y="1300" as="sourcePoint" />
            <mxPoint x="200.15999999999997" y="1010" as="targetPoint" />
          </mxGeometry>
        </mxCell>
        <mxCell id="Op0QKhULN7pPyXIrvQpy-55" value="" style="endArrow=none;html=1;rounded=0;fontSize=11;exitX=1;exitY=0.5;exitDx=0;exitDy=0;entryX=0;entryY=0.75;entryDx=0;entryDy=0;" parent="Op0QKhULN7pPyXIrvQpy-1" source="Op0QKhULN7pPyXIrvQpy-51" target="Op0QKhULN7pPyXIrvQpy-41" edge="1">
          <mxGeometry relative="1" as="geometry">
            <mxPoint x="250.15999999999997" y="1060" as="sourcePoint" />
            <mxPoint x="230.1599999999995" y="1070" as="targetPoint" />
          </mxGeometry>
        </mxCell>
        <mxCell id="Op0QKhULN7pPyXIrvQpy-56" value="" style="endArrow=none;html=1;rounded=0;fontSize=11;exitX=1;exitY=0;exitDx=0;exitDy=0;entryX=0;entryY=1;entryDx=0;entryDy=0;" parent="Op0QKhULN7pPyXIrvQpy-1" source="Op0QKhULN7pPyXIrvQpy-50" target="Op0QKhULN7pPyXIrvQpy-41" edge="1">
          <mxGeometry relative="1" as="geometry">
            <mxPoint x="250.15999999999997" y="1100" as="sourcePoint" />
            <mxPoint x="230.1599999999995" y="1090" as="targetPoint" />
          </mxGeometry>
        </mxCell>
        <mxCell id="Op0QKhULN7pPyXIrvQpy-57" value="Subscribed" style="shape=rhombus;perimeter=rhombusPerimeter;whiteSpace=wrap;html=1;align=center;fontSize=11;" parent="Op0QKhULN7pPyXIrvQpy-1" vertex="1">
          <mxGeometry x="460" y="210" width="80" height="40" as="geometry" />
        </mxCell>
        <mxCell id="Op0QKhULN7pPyXIrvQpy-58" value="date_end" style="ellipse;whiteSpace=wrap;html=1;align=center;fontSize=11;fontStyle=0" parent="Op0QKhULN7pPyXIrvQpy-1" vertex="1">
          <mxGeometry x="560" y="120" width="80" height="20" as="geometry" />
        </mxCell>
        <mxCell id="Op0QKhULN7pPyXIrvQpy-59" value="date_start" style="ellipse;whiteSpace=wrap;html=1;align=center;fontSize=11;fontStyle=0" parent="Op0QKhULN7pPyXIrvQpy-1" vertex="1">
          <mxGeometry x="560" y="80" width="80" height="20" as="geometry" />
        </mxCell>
        <mxCell id="Op0QKhULN7pPyXIrvQpy-60" value="" style="endArrow=none;html=1;rounded=0;fontSize=11;exitX=1;exitY=0.25;exitDx=0;exitDy=0;entryX=0;entryY=0.5;entryDx=0;entryDy=0;" parent="Op0QKhULN7pPyXIrvQpy-1" source="Op0QKhULN7pPyXIrvQpy-37" target="Op0QKhULN7pPyXIrvQpy-59" edge="1">
          <mxGeometry relative="1" as="geometry">
            <mxPoint x="769.9999999999995" y="140" as="sourcePoint" />
            <mxPoint x="790" y="130" as="targetPoint" />
          </mxGeometry>
        </mxCell>
        <mxCell id="Op0QKhULN7pPyXIrvQpy-61" value="" style="endArrow=none;html=1;rounded=0;fontSize=11;exitX=1;exitY=0.75;exitDx=0;exitDy=0;entryX=0;entryY=0.5;entryDx=0;entryDy=0;" parent="Op0QKhULN7pPyXIrvQpy-1" source="Op0QKhULN7pPyXIrvQpy-37" target="Op0QKhULN7pPyXIrvQpy-58" edge="1">
          <mxGeometry relative="1" as="geometry">
            <mxPoint x="759.038107356253" y="173.12255352088732" as="sourcePoint" />
            <mxPoint x="790" y="140" as="targetPoint" />
          </mxGeometry>
        </mxCell>
        <mxCell id="Op0QKhULN7pPyXIrvQpy-62" value="pass_id" style="ellipse;whiteSpace=wrap;html=1;align=center;fontSize=11;fontStyle=4" parent="Op0QKhULN7pPyXIrvQpy-1" vertex="1">
          <mxGeometry x="560" y="40" width="80" height="20" as="geometry" />
        </mxCell>
        <mxCell id="Op0QKhULN7pPyXIrvQpy-63" value="" style="endArrow=none;html=1;rounded=0;fontSize=11;exitX=1;exitY=0;exitDx=0;exitDy=0;entryX=0;entryY=1;entryDx=0;entryDy=0;" parent="Op0QKhULN7pPyXIrvQpy-1" source="Op0QKhULN7pPyXIrvQpy-37" target="Op0QKhULN7pPyXIrvQpy-62" edge="1">
          <mxGeometry relative="1" as="geometry">
            <mxPoint x="550" y="110" as="sourcePoint" />
            <mxPoint x="570.0000000000002" y="100" as="targetPoint" />
          </mxGeometry>
        </mxCell>
        <mxCell id="Op0QKhULN7pPyXIrvQpy-64" value="name" style="ellipse;whiteSpace=wrap;html=1;align=center;fontSize=11;fontStyle=0" parent="Op0QKhULN7pPyXIrvQpy-1" vertex="1">
          <mxGeometry x="560" y="1040" width="80" height="20" as="geometry" />
        </mxCell>
        <mxCell id="Op0QKhULN7pPyXIrvQpy-65" style="rounded=0;orthogonalLoop=1;jettySize=auto;html=1;exitX=0.5;exitY=1;exitDx=0;exitDy=0;entryX=0.5;entryY=0;entryDx=0;entryDy=0;" parent="Op0QKhULN7pPyXIrvQpy-1" source="Op0QKhULN7pPyXIrvQpy-67" target="Op0QKhULN7pPyXIrvQpy-118" edge="1">
          <mxGeometry relative="1" as="geometry">
            <mxPoint x="200" y="550" as="targetPoint" />
          </mxGeometry>
        </mxCell>
        <mxCell id="Op0QKhULN7pPyXIrvQpy-66" value="1" style="edgeLabel;html=1;align=center;verticalAlign=middle;resizable=0;points=[];fontSize=12;" parent="Op0QKhULN7pPyXIrvQpy-65" vertex="1" connectable="0">
          <mxGeometry x="0.4934" y="4" relative="1" as="geometry">
            <mxPoint x="-14" as="offset" />
          </mxGeometry>
        </mxCell>
        <mxCell id="Op0QKhULN7pPyXIrvQpy-67" value="From &amp;amp; To" style="shape=rhombus;perimeter=rhombusPerimeter;whiteSpace=wrap;html=1;align=center;fontSize=11;" parent="Op0QKhULN7pPyXIrvQpy-1" vertex="1">
          <mxGeometry x="139.99999999999994" y="450" width="80" height="40" as="geometry" />
        </mxCell>
        <mxCell id="Op0QKhULN7pPyXIrvQpy-68" value="fare" style="ellipse;whiteSpace=wrap;html=1;align=center;fontSize=11;" parent="Op0QKhULN7pPyXIrvQpy-1" vertex="1">
          <mxGeometry x="39.92" y="360" width="80" height="20" as="geometry" />
        </mxCell>
        <mxCell id="Op0QKhULN7pPyXIrvQpy-69" value="&lt;span style=&quot;border-bottom: 1px dotted; font-size: 11px;&quot;&gt;passenger_id&lt;/span&gt;" style="ellipse;whiteSpace=wrap;html=1;align=center;fontSize=11;" parent="Op0QKhULN7pPyXIrvQpy-1" vertex="1">
          <mxGeometry x="39.92" y="320" width="80" height="20" as="geometry" />
        </mxCell>
        <mxCell id="Op0QKhULN7pPyXIrvQpy-70" value="" style="endArrow=none;html=1;rounded=0;fontSize=11;exitX=0;exitY=0;exitDx=0;exitDy=0;entryX=1;entryY=0.5;entryDx=0;entryDy=0;" parent="Op0QKhULN7pPyXIrvQpy-1" source="Op0QKhULN7pPyXIrvQpy-100" target="Op0QKhULN7pPyXIrvQpy-69" edge="1">
          <mxGeometry relative="1" as="geometry">
            <mxPoint x="140.0000000000001" y="340" as="sourcePoint" />
            <mxPoint x="129.9999999999934" y="330" as="targetPoint" />
          </mxGeometry>
        </mxCell>
        <mxCell id="Op0QKhULN7pPyXIrvQpy-71" value="&lt;span style=&quot;border-bottom: 1px dotted; font-size: 11px;&quot;&gt;train_id&lt;/span&gt;" style="ellipse;whiteSpace=wrap;html=1;align=center;fontSize=11;" parent="Op0QKhULN7pPyXIrvQpy-1" vertex="1">
          <mxGeometry x="880" y="800" width="80" height="20" as="geometry" />
        </mxCell>
        <mxCell id="Op0QKhULN7pPyXIrvQpy-72" value="&lt;span style=&quot;border-bottom: 1px dotted; font-size: 11px;&quot;&gt;wagon_id&lt;/span&gt;" style="ellipse;whiteSpace=wrap;html=1;align=center;fontSize=11;" parent="Op0QKhULN7pPyXIrvQpy-1" vertex="1">
          <mxGeometry x="880" y="840" width="80" height="20" as="geometry" />
        </mxCell>
        <mxCell id="Op0QKhULN7pPyXIrvQpy-73" value="" style="endArrow=none;html=1;rounded=0;fontSize=11;exitX=1;exitY=0;exitDx=0;exitDy=0;entryX=0;entryY=0.5;entryDx=0;entryDy=0;" parent="Op0QKhULN7pPyXIrvQpy-1" source="Op0QKhULN7pPyXIrvQpy-93" target="Op0QKhULN7pPyXIrvQpy-71" edge="1">
          <mxGeometry relative="1" as="geometry">
            <mxPoint x="860" y="820" as="sourcePoint" />
            <mxPoint x="790" y="590" as="targetPoint" />
          </mxGeometry>
        </mxCell>
        <mxCell id="Op0QKhULN7pPyXIrvQpy-74" value="" style="endArrow=none;html=1;rounded=0;fontSize=11;exitX=1;exitY=1;exitDx=0;exitDy=0;entryX=0;entryY=0.5;entryDx=0;entryDy=0;" parent="Op0QKhULN7pPyXIrvQpy-1" source="Op0QKhULN7pPyXIrvQpy-93" target="Op0QKhULN7pPyXIrvQpy-72" edge="1">
          <mxGeometry relative="1" as="geometry">
            <mxPoint x="860" y="840" as="sourcePoint" />
            <mxPoint x="890" y="810" as="targetPoint" />
          </mxGeometry>
        </mxCell>
        <mxCell id="Op0QKhULN7pPyXIrvQpy-75" value="track" style="ellipse;whiteSpace=wrap;html=1;align=center;fontSize=11;fontStyle=4" parent="Op0QKhULN7pPyXIrvQpy-1" vertex="1">
          <mxGeometry x="40.00000000000003" y="800" width="80" height="20" as="geometry" />
        </mxCell>
        <mxCell id="Op0QKhULN7pPyXIrvQpy-76" value="is_24h" style="ellipse;whiteSpace=wrap;html=1;align=center;fontSize=11;fontStyle=0" parent="Op0QKhULN7pPyXIrvQpy-1" vertex="1">
          <mxGeometry x="40.00000000000003" y="840" width="80" height="20" as="geometry" />
        </mxCell>
        <mxCell id="Op0QKhULN7pPyXIrvQpy-77" value="" style="endArrow=none;html=1;rounded=0;fontSize=11;entryX=1;entryY=0.5;entryDx=0;entryDy=0;exitX=0;exitY=0.25;exitDx=0;exitDy=0;" parent="Op0QKhULN7pPyXIrvQpy-1" source="Op0QKhULN7pPyXIrvQpy-5" target="Op0QKhULN7pPyXIrvQpy-75" edge="1">
          <mxGeometry relative="1" as="geometry">
            <mxPoint x="170" y="760" as="sourcePoint" />
            <mxPoint x="118.90567428590816" y="786.9122264596738" as="targetPoint" />
          </mxGeometry>
        </mxCell>
        <mxCell id="Op0QKhULN7pPyXIrvQpy-78" value="" style="endArrow=none;html=1;rounded=0;fontSize=11;entryX=1;entryY=0.5;entryDx=0;entryDy=0;exitX=0;exitY=0.75;exitDx=0;exitDy=0;" parent="Op0QKhULN7pPyXIrvQpy-1" source="Op0QKhULN7pPyXIrvQpy-5" target="Op0QKhULN7pPyXIrvQpy-76" edge="1">
          <mxGeometry relative="1" as="geometry">
            <mxPoint x="170" y="910" as="sourcePoint" />
            <mxPoint x="130" y="820" as="targetPoint" />
          </mxGeometry>
        </mxCell>
        <mxCell id="Op0QKhULN7pPyXIrvQpy-79" value="" style="shape=link;html=1;rounded=0;entryX=1;entryY=0.5;entryDx=0;entryDy=0;exitX=0;exitY=0.5;exitDx=0;exitDy=0;" parent="Op0QKhULN7pPyXIrvQpy-1" source="Op0QKhULN7pPyXIrvQpy-44" target="Op0QKhULN7pPyXIrvQpy-41" edge="1">
          <mxGeometry relative="1" as="geometry">
            <mxPoint x="300" y="1030" as="sourcePoint" />
            <mxPoint x="240" y="1100" as="targetPoint" />
          </mxGeometry>
        </mxCell>
        <mxCell id="Op0QKhULN7pPyXIrvQpy-80" value="N" style="edgeLabel;html=1;align=center;verticalAlign=middle;resizable=0;points=[];fontSize=12;" parent="Op0QKhULN7pPyXIrvQpy-79" vertex="1" connectable="0">
          <mxGeometry x="0.525" y="1" relative="1" as="geometry">
            <mxPoint x="-9" y="-11" as="offset" />
          </mxGeometry>
        </mxCell>
        <mxCell id="Op0QKhULN7pPyXIrvQpy-81" style="rounded=0;orthogonalLoop=1;jettySize=auto;html=1;exitX=0.5;exitY=1;exitDx=0;exitDy=0;entryX=0.5;entryY=0;entryDx=0;entryDy=0;" parent="Op0QKhULN7pPyXIrvQpy-1" source="Op0QKhULN7pPyXIrvQpy-83" target="Op0QKhULN7pPyXIrvQpy-4" edge="1">
          <mxGeometry relative="1" as="geometry" />
        </mxCell>
        <mxCell id="Op0QKhULN7pPyXIrvQpy-82" value="1" style="edgeLabel;html=1;align=center;verticalAlign=middle;resizable=0;points=[];fontSize=12;" parent="Op0QKhULN7pPyXIrvQpy-81" vertex="1" connectable="0">
          <mxGeometry x="0.6105" y="-1" relative="1" as="geometry">
            <mxPoint x="-9" y="-3" as="offset" />
          </mxGeometry>
        </mxCell>
        <mxCell id="Op0QKhULN7pPyXIrvQpy-83" value="Controlled" style="shape=rhombus;perimeter=rhombusPerimeter;whiteSpace=wrap;html=1;align=center;fontSize=11;" parent="Op0QKhULN7pPyXIrvQpy-1" vertex="1">
          <mxGeometry x="459.91999999999996" y="920" width="80" height="40" as="geometry" />
        </mxCell>
        <mxCell id="Op0QKhULN7pPyXIrvQpy-84" value="" style="shape=link;html=1;rounded=0;entryX=0.5;entryY=1;entryDx=0;entryDy=0;exitX=0.5;exitY=0;exitDx=0;exitDy=0;" parent="Op0QKhULN7pPyXIrvQpy-1" source="Op0QKhULN7pPyXIrvQpy-83" target="Op0QKhULN7pPyXIrvQpy-2" edge="1">
          <mxGeometry relative="1" as="geometry">
            <mxPoint x="710" y="1080" as="sourcePoint" />
            <mxPoint x="790" y="1080" as="targetPoint" />
          </mxGeometry>
        </mxCell>
        <mxCell id="Op0QKhULN7pPyXIrvQpy-85" value="N" style="edgeLabel;html=1;align=center;verticalAlign=middle;resizable=0;points=[];fontSize=12;" parent="Op0QKhULN7pPyXIrvQpy-84" vertex="1" connectable="0">
          <mxGeometry x="0.525" y="1" relative="1" as="geometry">
            <mxPoint x="-9" y="-6" as="offset" />
          </mxGeometry>
        </mxCell>
        <mxCell id="Op0QKhULN7pPyXIrvQpy-86" style="rounded=0;orthogonalLoop=1;jettySize=auto;html=1;exitX=0;exitY=0.5;exitDx=0;exitDy=0;entryX=1;entryY=0.5;entryDx=0;entryDy=0;" parent="Op0QKhULN7pPyXIrvQpy-1" source="Op0QKhULN7pPyXIrvQpy-88" target="Op0QKhULN7pPyXIrvQpy-5" edge="1">
          <mxGeometry relative="1" as="geometry" />
        </mxCell>
        <mxCell id="Op0QKhULN7pPyXIrvQpy-87" value="1" style="edgeLabel;html=1;align=center;verticalAlign=middle;resizable=0;points=[];fontSize=12;" parent="Op0QKhULN7pPyXIrvQpy-86" vertex="1" connectable="0">
          <mxGeometry x="0.4801" y="2" relative="1" as="geometry">
            <mxPoint x="-1" y="-12" as="offset" />
          </mxGeometry>
        </mxCell>
        <mxCell id="Op0QKhULN7pPyXIrvQpy-88" value="Travels" style="shape=rhombus;perimeter=rhombusPerimeter;whiteSpace=wrap;html=1;align=center;fontSize=11;" parent="Op0QKhULN7pPyXIrvQpy-1" vertex="1">
          <mxGeometry x="300" y="810" width="80" height="40" as="geometry" />
        </mxCell>
        <mxCell id="Op0QKhULN7pPyXIrvQpy-89" value="" style="shape=link;html=1;rounded=0;entryX=0;entryY=0.5;entryDx=0;entryDy=0;exitX=1;exitY=0.5;exitDx=0;exitDy=0;" parent="Op0QKhULN7pPyXIrvQpy-1" source="Op0QKhULN7pPyXIrvQpy-88" target="Op0QKhULN7pPyXIrvQpy-2" edge="1">
          <mxGeometry relative="1" as="geometry">
            <mxPoint x="510" y="930" as="sourcePoint" />
            <mxPoint x="510" y="860" as="targetPoint" />
          </mxGeometry>
        </mxCell>
        <mxCell id="Op0QKhULN7pPyXIrvQpy-90" value="N" style="edgeLabel;html=1;align=center;verticalAlign=middle;resizable=0;points=[];fontSize=12;" parent="Op0QKhULN7pPyXIrvQpy-89" vertex="1" connectable="0">
          <mxGeometry x="0.525" y="1" relative="1" as="geometry">
            <mxPoint x="9" y="-9" as="offset" />
          </mxGeometry>
        </mxCell>
        <mxCell id="Op0QKhULN7pPyXIrvQpy-91" value="" style="shape=link;html=1;rounded=0;entryX=0.5;entryY=0;entryDx=0;entryDy=0;exitX=0.5;exitY=1;exitDx=0;exitDy=0;" parent="Op0QKhULN7pPyXIrvQpy-1" source="Op0QKhULN7pPyXIrvQpy-10" target="Op0QKhULN7pPyXIrvQpy-2" edge="1">
          <mxGeometry relative="1" as="geometry">
            <mxPoint x="390" y="840" as="sourcePoint" />
            <mxPoint x="470" y="840" as="targetPoint" />
          </mxGeometry>
        </mxCell>
        <mxCell id="Op0QKhULN7pPyXIrvQpy-92" value="N" style="edgeLabel;html=1;align=center;verticalAlign=middle;resizable=0;points=[];fontSize=12;" parent="Op0QKhULN7pPyXIrvQpy-91" vertex="1" connectable="0">
          <mxGeometry x="0.6583" y="3" relative="1" as="geometry">
            <mxPoint x="-13" y="3" as="offset" />
          </mxGeometry>
        </mxCell>
        <mxCell id="Op0QKhULN7pPyXIrvQpy-93" value="Railcar" style="shape=rhombus;double=1;perimeter=rhombusPerimeter;whiteSpace=wrap;html=1;align=center;fontStyle=1" parent="Op0QKhULN7pPyXIrvQpy-1" vertex="1">
          <mxGeometry x="780" y="810" width="80" height="40" as="geometry" />
        </mxCell>
        <mxCell id="Op0QKhULN7pPyXIrvQpy-94" value="" style="shape=link;html=1;rounded=0;entryX=0.5;entryY=0;entryDx=0;entryDy=0;exitX=0.5;exitY=1;exitDx=0;exitDy=0;" parent="Op0QKhULN7pPyXIrvQpy-1" source="Op0QKhULN7pPyXIrvQpy-13" target="Op0QKhULN7pPyXIrvQpy-93" edge="1">
          <mxGeometry relative="1" as="geometry">
            <mxPoint x="510" y="740" as="sourcePoint" />
            <mxPoint x="510" y="820" as="targetPoint" />
          </mxGeometry>
        </mxCell>
        <mxCell id="Op0QKhULN7pPyXIrvQpy-95" value="N" style="edgeLabel;html=1;align=center;verticalAlign=middle;resizable=0;points=[];fontSize=12;" parent="Op0QKhULN7pPyXIrvQpy-94" vertex="1" connectable="0">
          <mxGeometry x="0.6583" y="3" relative="1" as="geometry">
            <mxPoint x="-13" y="3" as="offset" />
          </mxGeometry>
        </mxCell>
        <mxCell id="Op0QKhULN7pPyXIrvQpy-96" value="" style="shape=link;html=1;rounded=0;entryX=0;entryY=0.5;entryDx=0;entryDy=0;exitX=1;exitY=0.5;exitDx=0;exitDy=0;" parent="Op0QKhULN7pPyXIrvQpy-1" source="Op0QKhULN7pPyXIrvQpy-20" target="Op0QKhULN7pPyXIrvQpy-93" edge="1">
          <mxGeometry relative="1" as="geometry">
            <mxPoint x="710" y="1080" as="sourcePoint" />
            <mxPoint x="790" y="1080" as="targetPoint" />
          </mxGeometry>
        </mxCell>
        <mxCell id="Op0QKhULN7pPyXIrvQpy-97" value="1" style="edgeLabel;html=1;align=center;verticalAlign=middle;resizable=0;points=[];fontSize=12;" parent="Op0QKhULN7pPyXIrvQpy-96" vertex="1" connectable="0">
          <mxGeometry x="0.525" y="1" relative="1" as="geometry">
            <mxPoint x="9" y="-9" as="offset" />
          </mxGeometry>
        </mxCell>
        <mxCell id="Op0QKhULN7pPyXIrvQpy-98" value="" style="shape=link;html=1;rounded=0;exitX=0.5;exitY=0;exitDx=0;exitDy=0;entryX=0.5;entryY=1;entryDx=0;entryDy=0;" parent="Op0QKhULN7pPyXIrvQpy-1" source="Op0QKhULN7pPyXIrvQpy-16" target="Op0QKhULN7pPyXIrvQpy-118" edge="1">
          <mxGeometry relative="1" as="geometry">
            <mxPoint x="510" y="930" as="sourcePoint" />
            <mxPoint x="200" y="630" as="targetPoint" />
          </mxGeometry>
        </mxCell>
        <mxCell id="Op0QKhULN7pPyXIrvQpy-99" value="N" style="edgeLabel;html=1;align=center;verticalAlign=middle;resizable=0;points=[];fontSize=12;" parent="Op0QKhULN7pPyXIrvQpy-98" vertex="1" connectable="0">
          <mxGeometry x="0.525" y="1" relative="1" as="geometry">
            <mxPoint x="-9" y="-6" as="offset" />
          </mxGeometry>
        </mxCell>
        <mxCell id="Op0QKhULN7pPyXIrvQpy-100" value="Trip" style="shape=rhombus;double=1;perimeter=rhombusPerimeter;whiteSpace=wrap;html=1;align=center;fontStyle=1" parent="Op0QKhULN7pPyXIrvQpy-1" vertex="1">
          <mxGeometry x="140.08000000000004" y="330" width="80" height="40" as="geometry" />
        </mxCell>
        <mxCell id="Op0QKhULN7pPyXIrvQpy-101" value="" style="shape=link;html=1;rounded=0;entryX=0.5;entryY=1;entryDx=0;entryDy=0;exitX=0.5;exitY=0;exitDx=0;exitDy=0;" parent="Op0QKhULN7pPyXIrvQpy-1" source="Op0QKhULN7pPyXIrvQpy-67" target="Op0QKhULN7pPyXIrvQpy-100" edge="1">
          <mxGeometry relative="1" as="geometry">
            <mxPoint x="110" y="430" as="sourcePoint" />
            <mxPoint x="190" y="620" as="targetPoint" />
          </mxGeometry>
        </mxCell>
        <mxCell id="Op0QKhULN7pPyXIrvQpy-102" value="N" style="edgeLabel;html=1;align=center;verticalAlign=middle;resizable=0;points=[];fontSize=12;" parent="Op0QKhULN7pPyXIrvQpy-101" vertex="1" connectable="0">
          <mxGeometry x="0.525" y="1" relative="1" as="geometry">
            <mxPoint x="-9" y="-6" as="offset" />
          </mxGeometry>
        </mxCell>
        <mxCell id="Op0QKhULN7pPyXIrvQpy-103" value="" style="html=1;rounded=0;entryX=1;entryY=0.5;entryDx=0;entryDy=0;exitX=0;exitY=0.5;exitDx=0;exitDy=0;" parent="Op0QKhULN7pPyXIrvQpy-1" source="Op0QKhULN7pPyXIrvQpy-20" target="Op0QKhULN7pPyXIrvQpy-2" edge="1">
          <mxGeometry relative="1" as="geometry">
            <mxPoint x="710" y="840" as="sourcePoint" />
            <mxPoint x="790" y="840" as="targetPoint" />
          </mxGeometry>
        </mxCell>
        <mxCell id="Op0QKhULN7pPyXIrvQpy-104" value="1" style="edgeLabel;html=1;align=center;verticalAlign=middle;resizable=0;points=[];fontSize=12;" parent="Op0QKhULN7pPyXIrvQpy-103" vertex="1" connectable="0">
          <mxGeometry x="0.525" y="1" relative="1" as="geometry">
            <mxPoint x="-9" y="-11" as="offset" />
          </mxGeometry>
        </mxCell>
        <mxCell id="Op0QKhULN7pPyXIrvQpy-105" value="" style="shape=link;html=1;rounded=0;entryX=1;entryY=0.5;entryDx=0;entryDy=0;exitX=0;exitY=0.5;exitDx=0;exitDy=0;" parent="Op0QKhULN7pPyXIrvQpy-1" source="Op0QKhULN7pPyXIrvQpy-19" target="Op0QKhULN7pPyXIrvQpy-100" edge="1">
          <mxGeometry relative="1" as="geometry">
            <mxPoint x="390" y="840" as="sourcePoint" />
            <mxPoint x="470" y="840" as="targetPoint" />
          </mxGeometry>
        </mxCell>
        <mxCell id="Op0QKhULN7pPyXIrvQpy-106" value="N" style="edgeLabel;html=1;align=center;verticalAlign=middle;resizable=0;points=[];fontSize=12;" parent="Op0QKhULN7pPyXIrvQpy-105" vertex="1" connectable="0">
          <mxGeometry x="0.525" y="1" relative="1" as="geometry">
            <mxPoint x="-9" y="-11" as="offset" />
          </mxGeometry>
        </mxCell>
        <mxCell id="Op0QKhULN7pPyXIrvQpy-107" style="rounded=0;orthogonalLoop=1;jettySize=auto;html=1;exitX=0.5;exitY=1;exitDx=0;exitDy=0;entryX=0.5;entryY=0;entryDx=0;entryDy=0;" parent="Op0QKhULN7pPyXIrvQpy-1" source="Op0QKhULN7pPyXIrvQpy-57" target="Op0QKhULN7pPyXIrvQpy-3" edge="1">
          <mxGeometry relative="1" as="geometry">
            <mxPoint x="690" y="370" as="sourcePoint" />
            <mxPoint x="690" y="450" as="targetPoint" />
          </mxGeometry>
        </mxCell>
        <mxCell id="Op0QKhULN7pPyXIrvQpy-108" value="1" style="edgeLabel;html=1;align=center;verticalAlign=middle;resizable=0;points=[];fontSize=12;" parent="Op0QKhULN7pPyXIrvQpy-107" vertex="1" connectable="0">
          <mxGeometry x="0.6362" y="-1" relative="1" as="geometry">
            <mxPoint x="-9" y="-6" as="offset" />
          </mxGeometry>
        </mxCell>
        <mxCell id="Op0QKhULN7pPyXIrvQpy-109" value="" style="shape=link;html=1;rounded=0;entryX=0.5;entryY=1;entryDx=0;entryDy=0;exitX=0.5;exitY=0;exitDx=0;exitDy=0;" parent="Op0QKhULN7pPyXIrvQpy-1" source="Op0QKhULN7pPyXIrvQpy-57" target="Op0QKhULN7pPyXIrvQpy-37" edge="1">
          <mxGeometry relative="1" as="geometry">
            <mxPoint x="690" y="330" as="sourcePoint" />
            <mxPoint x="690" y="250" as="targetPoint" />
          </mxGeometry>
        </mxCell>
        <mxCell id="Op0QKhULN7pPyXIrvQpy-110" value="N" style="edgeLabel;html=1;align=center;verticalAlign=middle;resizable=0;points=[];fontSize=12;" parent="Op0QKhULN7pPyXIrvQpy-109" vertex="1" connectable="0">
          <mxGeometry x="0.525" y="1" relative="1" as="geometry">
            <mxPoint x="-9" y="-6" as="offset" />
          </mxGeometry>
        </mxCell>
        <mxCell id="Op0QKhULN7pPyXIrvQpy-111" value="" style="endArrow=none;html=1;rounded=0;exitX=0;exitY=1;exitDx=0;exitDy=0;entryX=1;entryY=0;entryDx=0;entryDy=0;" parent="Op0QKhULN7pPyXIrvQpy-1" source="Op0QKhULN7pPyXIrvQpy-40" target="Op0QKhULN7pPyXIrvQpy-100" edge="1">
          <mxGeometry relative="1" as="geometry">
            <mxPoint x="400" y="330" as="sourcePoint" />
            <mxPoint x="560" y="330" as="targetPoint" />
          </mxGeometry>
        </mxCell>
        <mxCell id="Op0QKhULN7pPyXIrvQpy-112" value="1" style="edgeLabel;html=1;align=center;verticalAlign=middle;resizable=0;points=[];fontSize=12;" parent="Op0QKhULN7pPyXIrvQpy-111" vertex="1" connectable="0">
          <mxGeometry x="0.8331" relative="1" as="geometry">
            <mxPoint y="-12" as="offset" />
          </mxGeometry>
        </mxCell>
        <mxCell id="Op0QKhULN7pPyXIrvQpy-113" value="" style="endArrow=none;html=1;rounded=0;dashed=1;dashPattern=1 2;entryX=0;entryY=1;entryDx=0;entryDy=0;exitX=1;exitY=0.5;exitDx=0;exitDy=0;" parent="Op0QKhULN7pPyXIrvQpy-1" source="Op0QKhULN7pPyXIrvQpy-68" target="Op0QKhULN7pPyXIrvQpy-100" edge="1">
          <mxGeometry relative="1" as="geometry">
            <mxPoint x="190" y="380" as="sourcePoint" />
            <mxPoint x="350" y="380" as="targetPoint" />
          </mxGeometry>
        </mxCell>
        <mxCell id="Op0QKhULN7pPyXIrvQpy-114" value="&lt;span style=&quot;border-bottom: 1px dotted; font-size: 11px;&quot;&gt;timestamp&lt;/span&gt;" style="ellipse;whiteSpace=wrap;html=1;align=center;fontSize=11;" parent="Op0QKhULN7pPyXIrvQpy-1" vertex="1">
          <mxGeometry x="39.92" y="280" width="80" height="20" as="geometry" />
        </mxCell>
        <mxCell id="Op0QKhULN7pPyXIrvQpy-115" value="" style="endArrow=none;html=1;rounded=0;fontSize=11;entryX=1;entryY=1;entryDx=0;entryDy=0;exitX=0;exitY=0;exitDx=0;exitDy=0;" parent="Op0QKhULN7pPyXIrvQpy-1" source="Op0QKhULN7pPyXIrvQpy-100" target="Op0QKhULN7pPyXIrvQpy-114" edge="1">
          <mxGeometry relative="1" as="geometry">
            <mxPoint x="180" y="300" as="sourcePoint" />
            <mxPoint x="130" y="340" as="targetPoint" />
          </mxGeometry>
        </mxCell>
        <mxCell id="Op0QKhULN7pPyXIrvQpy-116" value="name" style="ellipse;whiteSpace=wrap;html=1;align=center;fontSize=11;fontStyle=0" parent="Op0QKhULN7pPyXIrvQpy-1" vertex="1">
          <mxGeometry x="560" y="360" width="80" height="20" as="geometry" />
        </mxCell>
        <mxCell id="Op0QKhULN7pPyXIrvQpy-117" value="" style="endArrow=none;html=1;rounded=0;fontSize=11;exitX=0;exitY=0.5;exitDx=0;exitDy=0;entryX=1;entryY=0.75;entryDx=0;entryDy=0;" parent="Op0QKhULN7pPyXIrvQpy-1" source="Op0QKhULN7pPyXIrvQpy-116" target="Op0QKhULN7pPyXIrvQpy-3" edge="1">
          <mxGeometry relative="1" as="geometry">
            <mxPoint x="570" y="340" as="sourcePoint" />
            <mxPoint x="550" y="350" as="targetPoint" />
          </mxGeometry>
        </mxCell>
        <mxCell id="Op0QKhULN7pPyXIrvQpy-118" value="Station" style="shape=ext;margin=3;double=1;whiteSpace=wrap;html=1;align=center;fontStyle=1" parent="Op0QKhULN7pPyXIrvQpy-1" vertex="1">
          <mxGeometry x="140.16000000000003" y="570" width="79.92" height="40" as="geometry" />
        </mxCell>
        <mxCell id="Op0QKhULN7pPyXIrvQpy-120" value="&lt;span style=&quot;border-bottom: 1px dotted; font-size: 11px;&quot;&gt;station&lt;/span&gt;" style="ellipse;whiteSpace=wrap;html=1;align=center;fontSize=11;" parent="Op0QKhULN7pPyXIrvQpy-1" vertex="1">
          <mxGeometry x="39.92" y="520" width="80" height="20" as="geometry" />
        </mxCell>
        <mxCell id="Op0QKhULN7pPyXIrvQpy-121" value="" style="endArrow=none;html=1;rounded=0;fontSize=11;exitX=0;exitY=0;exitDx=0;exitDy=0;entryX=1;entryY=1;entryDx=0;entryDy=0;" parent="Op0QKhULN7pPyXIrvQpy-1" source="Op0QKhULN7pPyXIrvQpy-118" target="Op0QKhULN7pPyXIrvQpy-120" edge="1">
          <mxGeometry relative="1" as="geometry">
            <mxPoint x="170" y="350" as="sourcePoint" />
            <mxPoint x="130" y="340" as="targetPoint" />
          </mxGeometry>
        </mxCell>
        <mxCell id="Op0QKhULN7pPyXIrvQpy-122" value="" style="endArrow=none;html=1;rounded=0;fontSize=11;exitX=0;exitY=0.25;exitDx=0;exitDy=0;entryX=1;entryY=0.5;entryDx=0;entryDy=0;" parent="Op0QKhULN7pPyXIrvQpy-1" source="Op0QKhULN7pPyXIrvQpy-118" target="gh95SQFbjHpWIpnYjWLQ-12" edge="1">
          <mxGeometry relative="1" as="geometry">
            <mxPoint x="150" y="580" as="sourcePoint" />
            <mxPoint x="119.92000000000007" y="570" as="targetPoint" />
          </mxGeometry>
        </mxCell>
        <mxCell id="Op0QKhULN7pPyXIrvQpy-123" value="" style="endArrow=none;html=1;rounded=0;dashed=1;dashPattern=1 2;exitX=0;exitY=1;exitDx=0;exitDy=0;entryX=1;entryY=0;entryDx=0;entryDy=0;" parent="Op0QKhULN7pPyXIrvQpy-1" source="Op0QKhULN7pPyXIrvQpy-22" target="Op0QKhULN7pPyXIrvQpy-118" edge="1">
          <mxGeometry relative="1" as="geometry">
            <mxPoint x="130" y="380" as="sourcePoint" />
            <mxPoint x="130" y="640" as="targetPoint" />
          </mxGeometry>
        </mxCell>
        <mxCell id="Op0QKhULN7pPyXIrvQpy-124" value="location" style="ellipse;whiteSpace=wrap;html=1;align=center;fontSize=11;fontStyle=0" parent="Op0QKhULN7pPyXIrvQpy-1" vertex="1">
          <mxGeometry x="39.92000000000003" y="640" width="80" height="20" as="geometry" />
        </mxCell>
        <mxCell id="Op0QKhULN7pPyXIrvQpy-125" value="" style="endArrow=none;html=1;rounded=0;fontSize=11;entryX=0;entryY=1;entryDx=0;entryDy=0;exitX=1;exitY=0;exitDx=0;exitDy=0;" parent="Op0QKhULN7pPyXIrvQpy-1" source="Op0QKhULN7pPyXIrvQpy-124" target="Op0QKhULN7pPyXIrvQpy-118" edge="1">
          <mxGeometry relative="1" as="geometry">
            <mxPoint x="150" y="660" as="sourcePoint" />
            <mxPoint x="130" y="620" as="targetPoint" />
            <Array as="points">
              <mxPoint x="120" y="630" />
            </Array>
          </mxGeometry>
        </mxCell>
        <mxCell id="Op0QKhULN7pPyXIrvQpy-126" value="birth" style="ellipse;whiteSpace=wrap;html=1;align=center;fontSize=11;fontStyle=0" parent="Op0QKhULN7pPyXIrvQpy-1" vertex="1">
          <mxGeometry x="560" y="1080" width="80" height="20" as="geometry" />
        </mxCell>
        <mxCell id="Op0QKhULN7pPyXIrvQpy-127" value="phones" style="ellipse;shape=doubleEllipse;margin=3;whiteSpace=wrap;html=1;align=center;fontSize=11;" parent="Op0QKhULN7pPyXIrvQpy-1" vertex="1">
          <mxGeometry x="360" y="1120" width="80" height="20" as="geometry" />
        </mxCell>
        <mxCell id="Op0QKhULN7pPyXIrvQpy-128" value="age" style="ellipse;whiteSpace=wrap;html=1;align=center;dashed=1;" parent="Op0QKhULN7pPyXIrvQpy-1" vertex="1">
          <mxGeometry x="560" y="1120" width="80" height="20" as="geometry" />
        </mxCell>
        <mxCell id="Op0QKhULN7pPyXIrvQpy-129" value="" style="endArrow=none;html=1;rounded=0;fontSize=11;entryX=0;entryY=1;entryDx=0;entryDy=0;exitX=1;exitY=0;exitDx=0;exitDy=0;" parent="Op0QKhULN7pPyXIrvQpy-1" source="Op0QKhULN7pPyXIrvQpy-127" target="Op0QKhULN7pPyXIrvQpy-4" edge="1">
          <mxGeometry relative="1" as="geometry">
            <mxPoint x="150" y="850" as="sourcePoint" />
            <mxPoint x="130" y="860" as="targetPoint" />
          </mxGeometry>
        </mxCell>
        <mxCell id="Op0QKhULN7pPyXIrvQpy-130" value="" style="endArrow=none;html=1;rounded=0;fontSize=11;entryX=1;entryY=1;entryDx=0;entryDy=0;exitX=0;exitY=0;exitDx=0;exitDy=0;" parent="Op0QKhULN7pPyXIrvQpy-1" source="Op0QKhULN7pPyXIrvQpy-128" target="Op0QKhULN7pPyXIrvQpy-4" edge="1">
          <mxGeometry relative="1" as="geometry">
            <mxPoint x="581" y="1133" as="sourcePoint" />
            <mxPoint x="550" y="1100" as="targetPoint" />
          </mxGeometry>
        </mxCell>
        <mxCell id="Op0QKhULN7pPyXIrvQpy-131" value="" style="endArrow=none;html=1;rounded=0;fontSize=11;entryX=1;entryY=0.75;entryDx=0;entryDy=0;exitX=0;exitY=0.5;exitDx=0;exitDy=0;" parent="Op0QKhULN7pPyXIrvQpy-1" source="Op0QKhULN7pPyXIrvQpy-126" target="Op0QKhULN7pPyXIrvQpy-4" edge="1">
          <mxGeometry relative="1" as="geometry">
            <mxPoint x="439" y="1133" as="sourcePoint" />
            <mxPoint x="470" y="1100" as="targetPoint" />
          </mxGeometry>
        </mxCell>
        <mxCell id="Op0QKhULN7pPyXIrvQpy-132" value="" style="endArrow=none;html=1;rounded=0;fontSize=11;entryX=1;entryY=0.25;entryDx=0;entryDy=0;exitX=0;exitY=0.5;exitDx=0;exitDy=0;" parent="Op0QKhULN7pPyXIrvQpy-1" source="Op0QKhULN7pPyXIrvQpy-64" target="Op0QKhULN7pPyXIrvQpy-4" edge="1">
          <mxGeometry relative="1" as="geometry">
            <mxPoint x="450" y="1100" as="sourcePoint" />
            <mxPoint x="470" y="1090" as="targetPoint" />
          </mxGeometry>
        </mxCell>
        <mxCell id="Op0QKhULN7pPyXIrvQpy-133" value="" style="endArrow=none;html=1;rounded=0;fontSize=11;entryX=1;entryY=0;entryDx=0;entryDy=0;exitX=0;exitY=1;exitDx=0;exitDy=0;" parent="Op0QKhULN7pPyXIrvQpy-1" source="Op0QKhULN7pPyXIrvQpy-24" target="Op0QKhULN7pPyXIrvQpy-4" edge="1">
          <mxGeometry relative="1" as="geometry">
            <mxPoint x="460" y="1110" as="sourcePoint" />
            <mxPoint x="480" y="1100" as="targetPoint" />
          </mxGeometry>
        </mxCell>
        <mxCell id="gh95SQFbjHpWIpnYjWLQ-4" style="rounded=0;orthogonalLoop=1;jettySize=auto;html=1;entryX=0.5;entryY=1;entryDx=0;entryDy=0;exitX=0.5;exitY=0;exitDx=0;exitDy=0;" parent="Op0QKhULN7pPyXIrvQpy-1" source="gh95SQFbjHpWIpnYjWLQ-6" target="Op0QKhULN7pPyXIrvQpy-5" edge="1">
          <mxGeometry relative="1" as="geometry">
            <mxPoint x="230" y="880" as="targetPoint" />
            <mxPoint x="280" y="950" as="sourcePoint" />
          </mxGeometry>
        </mxCell>
        <mxCell id="gh95SQFbjHpWIpnYjWLQ-5" value="1" style="edgeLabel;html=1;align=center;verticalAlign=middle;resizable=0;points=[];fontSize=12;" parent="gh95SQFbjHpWIpnYjWLQ-4" vertex="1" connectable="0">
          <mxGeometry x="0.6105" y="-1" relative="1" as="geometry">
            <mxPoint x="-11" y="6" as="offset" />
          </mxGeometry>
        </mxCell>
        <mxCell id="gh95SQFbjHpWIpnYjWLQ-6" value="Affects" style="shape=rhombus;perimeter=rhombusPerimeter;whiteSpace=wrap;html=1;align=center;fontSize=11;" parent="Op0QKhULN7pPyXIrvQpy-1" vertex="1">
          <mxGeometry x="140.15999999999997" y="920" width="80" height="40" as="geometry" />
        </mxCell>
        <mxCell id="gh95SQFbjHpWIpnYjWLQ-7" value="" style="shape=link;html=1;rounded=0;entryX=0.5;entryY=0;entryDx=0;entryDy=0;exitX=0.5;exitY=1;exitDx=0;exitDy=0;" parent="Op0QKhULN7pPyXIrvQpy-1" source="gh95SQFbjHpWIpnYjWLQ-6" target="Op0QKhULN7pPyXIrvQpy-41" edge="1">
          <mxGeometry relative="1" as="geometry">
            <mxPoint x="140" y="960" as="sourcePoint" />
            <mxPoint x="180.24" y="850" as="targetPoint" />
          </mxGeometry>
        </mxCell>
        <mxCell id="gh95SQFbjHpWIpnYjWLQ-8" value="N" style="edgeLabel;html=1;align=center;verticalAlign=middle;resizable=0;points=[];fontSize=12;" parent="gh95SQFbjHpWIpnYjWLQ-7" vertex="1" connectable="0">
          <mxGeometry x="0.525" y="1" relative="1" as="geometry">
            <mxPoint x="-11" y="11" as="offset" />
          </mxGeometry>
        </mxCell>
        <mxCell id="gh95SQFbjHpWIpnYjWLQ-12" value="lat" style="ellipse;whiteSpace=wrap;html=1;align=center;fontSize=11;fontStyle=0" parent="Op0QKhULN7pPyXIrvQpy-1" vertex="1">
          <mxGeometry x="40.00000000000003" y="560" width="80" height="20" as="geometry" />
        </mxCell>
      </root>
    </mxGraphModel>
  </diagram>
  <diagram name="proj_deliverable4" id="-jqD7Kp2Oexeak3GKN21">
    <mxGraphModel dx="1434" dy="782" grid="1" gridSize="10" guides="1" tooltips="1" connect="1" arrows="1" fold="1" page="1" pageScale="1" pageWidth="1000" pageHeight="1180" math="0" shadow="0" extFonts="Permanent Marker^https://fonts.googleapis.com/css?family=Permanent+Marker">
      <root>
        <mxCell id="crY-5EgnexApUD86SIgZ-0" />
        <mxCell id="crY-5EgnexApUD86SIgZ-1" parent="crY-5EgnexApUD86SIgZ-0" />
        <mxCell id="crY-5EgnexApUD86SIgZ-2" value="Train" style="whiteSpace=wrap;html=1;align=center;fontSize=12;fontStyle=1" parent="crY-5EgnexApUD86SIgZ-1" vertex="1">
          <mxGeometry x="460" y="810" width="80" height="40" as="geometry" />
        </mxCell>
        <mxCell id="XWP0877ULLsGer_YbKBk-1" style="rounded=0;orthogonalLoop=1;jettySize=auto;html=1;exitX=1;exitY=0;exitDx=0;exitDy=0;entryX=0;entryY=1;entryDx=0;entryDy=0;endArrow=none;endFill=0;" parent="crY-5EgnexApUD86SIgZ-1" source="crY-5EgnexApUD86SIgZ-3" target="crY-5EgnexApUD86SIgZ-35" edge="1">
          <mxGeometry relative="1" as="geometry" />
        </mxCell>
        <mxCell id="crY-5EgnexApUD86SIgZ-3" value="Passenger" style="whiteSpace=wrap;html=1;align=center;fontSize=12;fontStyle=1" parent="crY-5EgnexApUD86SIgZ-1" vertex="1">
          <mxGeometry x="460.08000000000004" y="330" width="80" height="40" as="geometry" />
        </mxCell>
        <mxCell id="XWP0877ULLsGer_YbKBk-3" style="rounded=0;orthogonalLoop=1;jettySize=auto;html=1;exitX=0.5;exitY=1;exitDx=0;exitDy=0;entryX=0.5;entryY=0;entryDx=0;entryDy=0;endArrow=none;endFill=0;" parent="crY-5EgnexApUD86SIgZ-1" source="crY-5EgnexApUD86SIgZ-4" target="crY-5EgnexApUD86SIgZ-127" edge="1">
          <mxGeometry relative="1" as="geometry" />
        </mxCell>
        <mxCell id="crY-5EgnexApUD86SIgZ-4" value="Conductor" style="whiteSpace=wrap;html=1;align=center;fontSize=12;fontStyle=1" parent="crY-5EgnexApUD86SIgZ-1" vertex="1">
          <mxGeometry x="460" y="1050" width="80" height="40" as="geometry" />
        </mxCell>
        <mxCell id="crY-5EgnexApUD86SIgZ-5" value="Track" style="whiteSpace=wrap;html=1;align=center;fontSize=12;fontStyle=1" parent="crY-5EgnexApUD86SIgZ-1" vertex="1">
          <mxGeometry x="140.08" y="810" width="80" height="40" as="geometry" />
        </mxCell>
        <mxCell id="crY-5EgnexApUD86SIgZ-6" value="Wagon" style="whiteSpace=wrap;html=1;align=center;fontSize=12;fontStyle=1" parent="crY-5EgnexApUD86SIgZ-1" vertex="1">
          <mxGeometry x="780" y="570" width="80" height="40" as="geometry" />
        </mxCell>
        <mxCell id="crY-5EgnexApUD86SIgZ-7" value="Locomotive" style="whiteSpace=wrap;html=1;align=center;fontSize=12;fontStyle=1" parent="crY-5EgnexApUD86SIgZ-1" vertex="1">
          <mxGeometry x="459.92" y="570" width="80" height="40" as="geometry" />
        </mxCell>
        <mxCell id="crY-5EgnexApUD86SIgZ-8" style="rounded=0;orthogonalLoop=1;jettySize=auto;html=1;exitX=0.5;exitY=0;exitDx=0;exitDy=0;entryX=0.5;entryY=1;entryDx=0;entryDy=0;" parent="crY-5EgnexApUD86SIgZ-1" source="crY-5EgnexApUD86SIgZ-10" target="crY-5EgnexApUD86SIgZ-7" edge="1">
          <mxGeometry relative="1" as="geometry" />
        </mxCell>
        <mxCell id="crY-5EgnexApUD86SIgZ-9" value="1" style="edgeLabel;html=1;align=center;verticalAlign=middle;resizable=0;points=[];fontSize=12;" parent="crY-5EgnexApUD86SIgZ-8" vertex="1" connectable="0">
          <mxGeometry x="0.7218" y="-2" relative="1" as="geometry">
            <mxPoint x="-12" y="8" as="offset" />
          </mxGeometry>
        </mxCell>
        <mxCell id="crY-5EgnexApUD86SIgZ-10" value="Powered" style="shape=rhombus;perimeter=rhombusPerimeter;whiteSpace=wrap;html=1;align=center;fontSize=11;" parent="crY-5EgnexApUD86SIgZ-1" vertex="1">
          <mxGeometry x="460" y="690" width="80" height="40" as="geometry" />
        </mxCell>
        <mxCell id="crY-5EgnexApUD86SIgZ-11" style="rounded=0;orthogonalLoop=1;jettySize=auto;html=1;exitX=0.5;exitY=0;exitDx=0;exitDy=0;entryX=0.5;entryY=1;entryDx=0;entryDy=0;" parent="crY-5EgnexApUD86SIgZ-1" source="crY-5EgnexApUD86SIgZ-13" target="crY-5EgnexApUD86SIgZ-6" edge="1">
          <mxGeometry relative="1" as="geometry" />
        </mxCell>
        <mxCell id="crY-5EgnexApUD86SIgZ-12" value="1" style="edgeLabel;html=1;align=center;verticalAlign=middle;resizable=0;points=[];fontSize=12;" parent="crY-5EgnexApUD86SIgZ-11" vertex="1" connectable="0">
          <mxGeometry x="0.556" y="-1" relative="1" as="geometry">
            <mxPoint x="-11" as="offset" />
          </mxGeometry>
        </mxCell>
        <mxCell id="crY-5EgnexApUD86SIgZ-13" value="Lines" style="shape=rhombus;perimeter=rhombusPerimeter;whiteSpace=wrap;html=1;align=center;fontSize=11;" parent="crY-5EgnexApUD86SIgZ-1" vertex="1">
          <mxGeometry x="780" y="690" width="80" height="40" as="geometry" />
        </mxCell>
        <mxCell id="crY-5EgnexApUD86SIgZ-14" style="rounded=0;orthogonalLoop=1;jettySize=auto;html=1;exitX=0.5;exitY=1;exitDx=0;exitDy=0;entryX=0.5;entryY=0;entryDx=0;entryDy=0;" parent="crY-5EgnexApUD86SIgZ-1" source="crY-5EgnexApUD86SIgZ-16" target="crY-5EgnexApUD86SIgZ-5" edge="1">
          <mxGeometry relative="1" as="geometry" />
        </mxCell>
        <mxCell id="crY-5EgnexApUD86SIgZ-15" value="1" style="edgeLabel;html=1;align=center;verticalAlign=middle;resizable=0;points=[];fontSize=12;" parent="crY-5EgnexApUD86SIgZ-14" vertex="1" connectable="0">
          <mxGeometry x="0.6362" y="-1" relative="1" as="geometry">
            <mxPoint x="-9" y="-6" as="offset" />
          </mxGeometry>
        </mxCell>
        <mxCell id="crY-5EgnexApUD86SIgZ-16" value="Positioned" style="shape=rhombus;perimeter=rhombusPerimeter;whiteSpace=wrap;html=1;align=center;fontSize=11;" parent="crY-5EgnexApUD86SIgZ-1" vertex="1">
          <mxGeometry x="140" y="690" width="80" height="40" as="geometry" />
        </mxCell>
        <mxCell id="crY-5EgnexApUD86SIgZ-17" style="rounded=0;orthogonalLoop=1;jettySize=auto;html=1;exitX=1;exitY=0.5;exitDx=0;exitDy=0;entryX=0;entryY=0.5;entryDx=0;entryDy=0;" parent="crY-5EgnexApUD86SIgZ-1" source="crY-5EgnexApUD86SIgZ-19" target="crY-5EgnexApUD86SIgZ-3" edge="1">
          <mxGeometry relative="1" as="geometry" />
        </mxCell>
        <mxCell id="crY-5EgnexApUD86SIgZ-18" value="1" style="edgeLabel;html=1;align=center;verticalAlign=middle;resizable=0;points=[];fontSize=12;" parent="crY-5EgnexApUD86SIgZ-17" vertex="1" connectable="0">
          <mxGeometry x="0.2608" relative="1" as="geometry">
            <mxPoint x="10" y="-10" as="offset" />
          </mxGeometry>
        </mxCell>
        <mxCell id="crY-5EgnexApUD86SIgZ-19" value="Registered" style="shape=rhombus;perimeter=rhombusPerimeter;whiteSpace=wrap;html=1;align=center;fontSize=11;" parent="crY-5EgnexApUD86SIgZ-1" vertex="1">
          <mxGeometry x="300" y="330" width="80" height="40" as="geometry" />
        </mxCell>
        <mxCell id="crY-5EgnexApUD86SIgZ-20" value="Carried" style="shape=rhombus;perimeter=rhombusPerimeter;whiteSpace=wrap;html=1;align=center;fontSize=11;" parent="crY-5EgnexApUD86SIgZ-1" vertex="1">
          <mxGeometry x="620" y="810" width="80" height="40" as="geometry" />
        </mxCell>
        <mxCell id="crY-5EgnexApUD86SIgZ-21" value="lng" style="ellipse;whiteSpace=wrap;html=1;align=center;fontSize=11;fontStyle=0" parent="crY-5EgnexApUD86SIgZ-1" vertex="1">
          <mxGeometry x="40.00000000000003" y="600" width="80" height="20" as="geometry" />
        </mxCell>
        <mxCell id="crY-5EgnexApUD86SIgZ-22" value="zip" style="ellipse;whiteSpace=wrap;html=1;align=center;fontSize=11;fontStyle=0" parent="crY-5EgnexApUD86SIgZ-1" vertex="1">
          <mxGeometry x="240.00000000000003" y="520" width="80" height="20" as="geometry" />
        </mxCell>
        <mxCell id="crY-5EgnexApUD86SIgZ-23" value="" style="endArrow=none;html=1;rounded=0;fontSize=11;exitX=0;exitY=0.75;exitDx=0;exitDy=0;" parent="crY-5EgnexApUD86SIgZ-1" source="crY-5EgnexApUD86SIgZ-118" edge="1">
          <mxGeometry relative="1" as="geometry">
            <mxPoint x="150" y="630" as="sourcePoint" />
            <mxPoint x="120" y="610" as="targetPoint" />
          </mxGeometry>
        </mxCell>
        <mxCell id="crY-5EgnexApUD86SIgZ-24" value="conductor_username" style="ellipse;whiteSpace=wrap;html=1;align=center;fontSize=11;fontStyle=4" parent="crY-5EgnexApUD86SIgZ-1" vertex="1">
          <mxGeometry x="560" y="1000" width="80" height="20" as="geometry" />
        </mxCell>
        <mxCell id="crY-5EgnexApUD86SIgZ-25" value="locomotive_no" style="ellipse;whiteSpace=wrap;html=1;align=center;fontSize=11;fontStyle=4" parent="crY-5EgnexApUD86SIgZ-1" vertex="1">
          <mxGeometry x="360.0000000000001" y="560" width="80" height="20" as="geometry" />
        </mxCell>
        <mxCell id="crY-5EgnexApUD86SIgZ-26" value="since" style="ellipse;whiteSpace=wrap;html=1;align=center;fontSize=11;fontStyle=0" parent="crY-5EgnexApUD86SIgZ-1" vertex="1">
          <mxGeometry x="360.0000000000001" y="600" width="80" height="20" as="geometry" />
        </mxCell>
        <mxCell id="crY-5EgnexApUD86SIgZ-27" value="" style="endArrow=none;html=1;rounded=0;fontSize=11;exitX=1;exitY=0.5;exitDx=0;exitDy=0;entryX=0;entryY=0.25;entryDx=0;entryDy=0;" parent="crY-5EgnexApUD86SIgZ-1" source="crY-5EgnexApUD86SIgZ-25" target="crY-5EgnexApUD86SIgZ-7" edge="1">
          <mxGeometry relative="1" as="geometry">
            <mxPoint x="998.7754928412382" y="643.074681718103" as="sourcePoint" />
            <mxPoint x="699.9200000000001" y="580" as="targetPoint" />
          </mxGeometry>
        </mxCell>
        <mxCell id="crY-5EgnexApUD86SIgZ-28" value="" style="endArrow=none;html=1;rounded=0;fontSize=11;entryX=0;entryY=0.75;entryDx=0;entryDy=0;exitX=1;exitY=0.5;exitDx=0;exitDy=0;" parent="crY-5EgnexApUD86SIgZ-1" source="crY-5EgnexApUD86SIgZ-26" target="crY-5EgnexApUD86SIgZ-7" edge="1">
          <mxGeometry relative="1" as="geometry">
            <mxPoint x="470" y="630" as="sourcePoint" />
            <mxPoint x="699.9200000000001" y="600" as="targetPoint" />
          </mxGeometry>
        </mxCell>
        <mxCell id="crY-5EgnexApUD86SIgZ-29" value="train_id" style="ellipse;whiteSpace=wrap;html=1;align=center;fontSize=11;fontStyle=4" parent="crY-5EgnexApUD86SIgZ-1" vertex="1">
          <mxGeometry x="560" y="880" width="80" height="20" as="geometry" />
        </mxCell>
        <mxCell id="crY-5EgnexApUD86SIgZ-30" value="" style="endArrow=none;html=1;rounded=0;fontSize=11;exitX=0;exitY=0;exitDx=0;exitDy=0;entryX=1;entryY=1;entryDx=0;entryDy=0;" parent="crY-5EgnexApUD86SIgZ-1" source="crY-5EgnexApUD86SIgZ-29" target="crY-5EgnexApUD86SIgZ-2" edge="1">
          <mxGeometry relative="1" as="geometry">
            <mxPoint x="438.8554928412382" y="1123.074681718103" as="sourcePoint" />
            <mxPoint x="540" y="880" as="targetPoint" />
          </mxGeometry>
        </mxCell>
        <mxCell id="crY-5EgnexApUD86SIgZ-31" value="wagon_id" style="ellipse;whiteSpace=wrap;html=1;align=center;fontSize=11;fontStyle=4" parent="crY-5EgnexApUD86SIgZ-1" vertex="1">
          <mxGeometry x="680" y="560" width="80" height="20" as="geometry" />
        </mxCell>
        <mxCell id="crY-5EgnexApUD86SIgZ-32" value="seats" style="ellipse;whiteSpace=wrap;html=1;align=center;fontSize=11;fontStyle=0" parent="crY-5EgnexApUD86SIgZ-1" vertex="1">
          <mxGeometry x="680" y="600" width="80" height="20" as="geometry" />
        </mxCell>
        <mxCell id="crY-5EgnexApUD86SIgZ-33" value="" style="endArrow=none;html=1;rounded=0;fontSize=11;exitX=1;exitY=0.5;exitDx=0;exitDy=0;entryX=0;entryY=0.25;entryDx=0;entryDy=0;" parent="crY-5EgnexApUD86SIgZ-1" source="crY-5EgnexApUD86SIgZ-31" target="crY-5EgnexApUD86SIgZ-6" edge="1">
          <mxGeometry relative="1" as="geometry">
            <mxPoint x="1318.8554928412382" y="643.074681718103" as="sourcePoint" />
            <mxPoint x="870" y="550" as="targetPoint" />
          </mxGeometry>
        </mxCell>
        <mxCell id="crY-5EgnexApUD86SIgZ-34" value="" style="endArrow=none;html=1;rounded=0;fontSize=11;exitX=1;exitY=0.5;exitDx=0;exitDy=0;entryX=0;entryY=0.75;entryDx=0;entryDy=0;" parent="crY-5EgnexApUD86SIgZ-1" source="crY-5EgnexApUD86SIgZ-32" target="crY-5EgnexApUD86SIgZ-6" edge="1">
          <mxGeometry relative="1" as="geometry">
            <mxPoint x="1328.8554928412382" y="653.074681718103" as="sourcePoint" />
            <mxPoint x="860" y="600" as="targetPoint" />
          </mxGeometry>
        </mxCell>
        <mxCell id="crY-5EgnexApUD86SIgZ-35" value="passenger_id" style="ellipse;whiteSpace=wrap;html=1;align=center;fontSize=11;fontStyle=4" parent="crY-5EgnexApUD86SIgZ-1" vertex="1">
          <mxGeometry x="560" y="280" width="80" height="20" as="geometry" />
        </mxCell>
        <mxCell id="crY-5EgnexApUD86SIgZ-36" value="" style="endArrow=none;html=1;rounded=0;fontSize=11;exitX=0;exitY=0.5;exitDx=0;exitDy=0;entryX=1;entryY=0.25;entryDx=0;entryDy=0;" parent="crY-5EgnexApUD86SIgZ-1" source="crY-5EgnexApUD86SIgZ-116" target="crY-5EgnexApUD86SIgZ-3" edge="1">
          <mxGeometry relative="1" as="geometry">
            <mxPoint x="758.8554928412382" y="633.074681718103" as="sourcePoint" />
            <mxPoint x="450" y="540" as="targetPoint" />
          </mxGeometry>
        </mxCell>
        <mxCell id="crY-5EgnexApUD86SIgZ-37" value="Pass" style="whiteSpace=wrap;html=1;align=center;fontSize=12;fontStyle=1" parent="crY-5EgnexApUD86SIgZ-1" vertex="1">
          <mxGeometry x="460" y="90" width="80" height="40" as="geometry" />
        </mxCell>
        <mxCell id="crY-5EgnexApUD86SIgZ-38" style="rounded=0;orthogonalLoop=1;jettySize=auto;html=1;exitX=1;exitY=0;exitDx=0;exitDy=0;entryX=0.25;entryY=1;entryDx=0;entryDy=0;" parent="crY-5EgnexApUD86SIgZ-1" source="crY-5EgnexApUD86SIgZ-40" target="crY-5EgnexApUD86SIgZ-37" edge="1">
          <mxGeometry relative="1" as="geometry" />
        </mxCell>
        <mxCell id="crY-5EgnexApUD86SIgZ-39" value="1" style="edgeLabel;html=1;align=center;verticalAlign=middle;resizable=0;points=[];fontSize=12;" parent="crY-5EgnexApUD86SIgZ-38" vertex="1" connectable="0">
          <mxGeometry x="0.7038" relative="1" as="geometry">
            <mxPoint x="-12" y="-3" as="offset" />
          </mxGeometry>
        </mxCell>
        <mxCell id="crY-5EgnexApUD86SIgZ-40" value="Uses" style="shape=rhombus;perimeter=rhombusPerimeter;whiteSpace=wrap;html=1;align=center;fontSize=11;" parent="crY-5EgnexApUD86SIgZ-1" vertex="1">
          <mxGeometry x="300" y="210" width="80" height="40" as="geometry" />
        </mxCell>
        <mxCell id="VaUiKXcEuQsfxIqrjhbG-2" style="rounded=0;orthogonalLoop=1;jettySize=auto;html=1;exitX=0;exitY=0.25;exitDx=0;exitDy=0;entryX=1;entryY=0.5;entryDx=0;entryDy=0;endArrow=none;endFill=0;" parent="crY-5EgnexApUD86SIgZ-1" source="crY-5EgnexApUD86SIgZ-41" target="VaUiKXcEuQsfxIqrjhbG-1" edge="1">
          <mxGeometry relative="1" as="geometry" />
        </mxCell>
        <mxCell id="crY-5EgnexApUD86SIgZ-41" value="Alert" style="whiteSpace=wrap;html=1;align=center;fontSize=12;fontStyle=1" parent="crY-5EgnexApUD86SIgZ-1" vertex="1">
          <mxGeometry x="140.15999999999997" y="1050" width="80" height="40" as="geometry" />
        </mxCell>
        <mxCell id="crY-5EgnexApUD86SIgZ-42" style="rounded=0;orthogonalLoop=1;jettySize=auto;html=1;exitX=1;exitY=0.5;exitDx=0;exitDy=0;entryX=0;entryY=0.5;entryDx=0;entryDy=0;" parent="crY-5EgnexApUD86SIgZ-1" source="crY-5EgnexApUD86SIgZ-44" target="crY-5EgnexApUD86SIgZ-4" edge="1">
          <mxGeometry relative="1" as="geometry">
            <mxPoint x="430" y="1030" as="targetPoint" />
          </mxGeometry>
        </mxCell>
        <mxCell id="crY-5EgnexApUD86SIgZ-43" value="1" style="edgeLabel;html=1;align=center;verticalAlign=middle;resizable=0;points=[];fontSize=12;" parent="crY-5EgnexApUD86SIgZ-42" vertex="1" connectable="0">
          <mxGeometry x="0.3596" y="3" relative="1" as="geometry">
            <mxPoint x="6" y="-7" as="offset" />
          </mxGeometry>
        </mxCell>
        <mxCell id="crY-5EgnexApUD86SIgZ-44" value="Issued" style="shape=rhombus;perimeter=rhombusPerimeter;whiteSpace=wrap;html=1;align=center;fontSize=11;" parent="crY-5EgnexApUD86SIgZ-1" vertex="1">
          <mxGeometry x="300" y="1050" width="80" height="40" as="geometry" />
        </mxCell>
        <mxCell id="crY-5EgnexApUD86SIgZ-45" value="has_elevator" style="ellipse;whiteSpace=wrap;html=1;align=center;fontSize=11;fontStyle=0" parent="crY-5EgnexApUD86SIgZ-1" vertex="1">
          <mxGeometry x="240" y="600" width="80" height="20" as="geometry" />
        </mxCell>
        <mxCell id="crY-5EgnexApUD86SIgZ-46" value="has_parking" style="ellipse;whiteSpace=wrap;html=1;align=center;fontSize=11;fontStyle=0" parent="crY-5EgnexApUD86SIgZ-1" vertex="1">
          <mxGeometry x="240" y="560" width="80" height="20" as="geometry" />
        </mxCell>
        <mxCell id="crY-5EgnexApUD86SIgZ-47" value="" style="endArrow=none;html=1;rounded=0;fontSize=11;exitX=0;exitY=0.5;exitDx=0;exitDy=0;entryX=1;entryY=0.75;entryDx=0;entryDy=0;" parent="crY-5EgnexApUD86SIgZ-1" source="crY-5EgnexApUD86SIgZ-45" target="crY-5EgnexApUD86SIgZ-118" edge="1">
          <mxGeometry relative="1" as="geometry">
            <mxPoint x="249.99999999999977" y="540" as="sourcePoint" />
            <mxPoint x="220" y="670" as="targetPoint" />
          </mxGeometry>
        </mxCell>
        <mxCell id="crY-5EgnexApUD86SIgZ-48" value="" style="endArrow=none;html=1;rounded=0;fontSize=11;entryX=1;entryY=0.25;entryDx=0;entryDy=0;exitX=0;exitY=0.5;exitDx=0;exitDy=0;" parent="crY-5EgnexApUD86SIgZ-1" source="crY-5EgnexApUD86SIgZ-46" target="crY-5EgnexApUD86SIgZ-118" edge="1">
          <mxGeometry relative="1" as="geometry">
            <mxPoint x="240" y="540" as="sourcePoint" />
            <mxPoint x="230" y="570" as="targetPoint" />
          </mxGeometry>
        </mxCell>
        <mxCell id="crY-5EgnexApUD86SIgZ-49" value="alert_id" style="ellipse;whiteSpace=wrap;html=1;align=center;fontSize=11;fontStyle=4" parent="crY-5EgnexApUD86SIgZ-1" vertex="1">
          <mxGeometry x="39.99999999999997" y="1000" width="80" height="20" as="geometry" />
        </mxCell>
        <mxCell id="crY-5EgnexApUD86SIgZ-50" value="date_end" style="ellipse;whiteSpace=wrap;html=1;align=center;fontSize=11;fontStyle=0" parent="crY-5EgnexApUD86SIgZ-1" vertex="1">
          <mxGeometry x="139.99999999999997" y="1120" width="80" height="20" as="geometry" />
        </mxCell>
        <mxCell id="crY-5EgnexApUD86SIgZ-51" value="date_start" style="ellipse;whiteSpace=wrap;html=1;align=center;fontSize=11;fontStyle=0" parent="crY-5EgnexApUD86SIgZ-1" vertex="1">
          <mxGeometry x="39.91999999999997" y="1120" width="80" height="20" as="geometry" />
        </mxCell>
        <mxCell id="crY-5EgnexApUD86SIgZ-52" value="message" style="ellipse;whiteSpace=wrap;html=1;align=center;fontSize=11;fontStyle=0" parent="crY-5EgnexApUD86SIgZ-1" vertex="1">
          <mxGeometry x="39.99999999999997" y="1080" width="80" height="20" as="geometry" />
        </mxCell>
        <mxCell id="crY-5EgnexApUD86SIgZ-53" value="" style="endArrow=none;html=1;rounded=0;fontSize=11;exitX=1;exitY=1;exitDx=0;exitDy=0;entryX=0;entryY=0;entryDx=0;entryDy=0;" parent="crY-5EgnexApUD86SIgZ-1" source="crY-5EgnexApUD86SIgZ-49" target="crY-5EgnexApUD86SIgZ-41" edge="1">
          <mxGeometry relative="1" as="geometry">
            <mxPoint x="250.15999999999997" y="1300" as="sourcePoint" />
            <mxPoint x="200.15999999999997" y="1020" as="targetPoint" />
          </mxGeometry>
        </mxCell>
        <mxCell id="crY-5EgnexApUD86SIgZ-54" value="" style="endArrow=none;html=1;rounded=0;fontSize=11;exitX=1;exitY=0.5;exitDx=0;exitDy=0;entryX=0;entryY=0.75;entryDx=0;entryDy=0;" parent="crY-5EgnexApUD86SIgZ-1" source="crY-5EgnexApUD86SIgZ-52" target="crY-5EgnexApUD86SIgZ-41" edge="1">
          <mxGeometry relative="1" as="geometry">
            <mxPoint x="250.15999999999997" y="1300" as="sourcePoint" />
            <mxPoint x="200.15999999999997" y="1010" as="targetPoint" />
          </mxGeometry>
        </mxCell>
        <mxCell id="crY-5EgnexApUD86SIgZ-55" value="" style="endArrow=none;html=1;rounded=0;fontSize=11;exitX=1;exitY=0;exitDx=0;exitDy=0;entryX=0;entryY=1;entryDx=0;entryDy=0;" parent="crY-5EgnexApUD86SIgZ-1" source="crY-5EgnexApUD86SIgZ-51" target="crY-5EgnexApUD86SIgZ-41" edge="1">
          <mxGeometry relative="1" as="geometry">
            <mxPoint x="250.15999999999997" y="1060" as="sourcePoint" />
            <mxPoint x="230.1599999999995" y="1070" as="targetPoint" />
          </mxGeometry>
        </mxCell>
        <mxCell id="crY-5EgnexApUD86SIgZ-56" value="" style="endArrow=none;html=1;rounded=0;fontSize=11;exitX=0.5;exitY=0;exitDx=0;exitDy=0;entryX=0.5;entryY=1;entryDx=0;entryDy=0;" parent="crY-5EgnexApUD86SIgZ-1" source="crY-5EgnexApUD86SIgZ-50" target="crY-5EgnexApUD86SIgZ-41" edge="1">
          <mxGeometry relative="1" as="geometry">
            <mxPoint x="250.15999999999997" y="1100" as="sourcePoint" />
            <mxPoint x="230.1599999999995" y="1090" as="targetPoint" />
          </mxGeometry>
        </mxCell>
        <mxCell id="crY-5EgnexApUD86SIgZ-57" value="Subscribed" style="shape=rhombus;perimeter=rhombusPerimeter;whiteSpace=wrap;html=1;align=center;fontSize=11;" parent="crY-5EgnexApUD86SIgZ-1" vertex="1">
          <mxGeometry x="460" y="210" width="80" height="40" as="geometry" />
        </mxCell>
        <mxCell id="crY-5EgnexApUD86SIgZ-58" value="date_end" style="ellipse;whiteSpace=wrap;html=1;align=center;fontSize=11;fontStyle=0" parent="crY-5EgnexApUD86SIgZ-1" vertex="1">
          <mxGeometry x="560" y="120" width="80" height="20" as="geometry" />
        </mxCell>
        <mxCell id="crY-5EgnexApUD86SIgZ-59" value="date_start" style="ellipse;whiteSpace=wrap;html=1;align=center;fontSize=11;fontStyle=0" parent="crY-5EgnexApUD86SIgZ-1" vertex="1">
          <mxGeometry x="560" y="80" width="80" height="20" as="geometry" />
        </mxCell>
        <mxCell id="crY-5EgnexApUD86SIgZ-60" value="" style="endArrow=none;html=1;rounded=0;fontSize=11;exitX=1;exitY=0.25;exitDx=0;exitDy=0;entryX=0;entryY=0.5;entryDx=0;entryDy=0;" parent="crY-5EgnexApUD86SIgZ-1" source="crY-5EgnexApUD86SIgZ-37" target="crY-5EgnexApUD86SIgZ-59" edge="1">
          <mxGeometry relative="1" as="geometry">
            <mxPoint x="769.9999999999995" y="140" as="sourcePoint" />
            <mxPoint x="790" y="130" as="targetPoint" />
          </mxGeometry>
        </mxCell>
        <mxCell id="crY-5EgnexApUD86SIgZ-61" value="" style="endArrow=none;html=1;rounded=0;fontSize=11;exitX=1;exitY=0.75;exitDx=0;exitDy=0;entryX=0;entryY=0.5;entryDx=0;entryDy=0;" parent="crY-5EgnexApUD86SIgZ-1" source="crY-5EgnexApUD86SIgZ-37" target="crY-5EgnexApUD86SIgZ-58" edge="1">
          <mxGeometry relative="1" as="geometry">
            <mxPoint x="759.038107356253" y="173.12255352088732" as="sourcePoint" />
            <mxPoint x="790" y="140" as="targetPoint" />
          </mxGeometry>
        </mxCell>
        <mxCell id="crY-5EgnexApUD86SIgZ-62" value="pass_id" style="ellipse;whiteSpace=wrap;html=1;align=center;fontSize=11;fontStyle=4" parent="crY-5EgnexApUD86SIgZ-1" vertex="1">
          <mxGeometry x="560" y="40" width="80" height="20" as="geometry" />
        </mxCell>
        <mxCell id="crY-5EgnexApUD86SIgZ-63" value="" style="endArrow=none;html=1;rounded=0;fontSize=11;exitX=1;exitY=0;exitDx=0;exitDy=0;entryX=0;entryY=1;entryDx=0;entryDy=0;" parent="crY-5EgnexApUD86SIgZ-1" source="crY-5EgnexApUD86SIgZ-37" target="crY-5EgnexApUD86SIgZ-62" edge="1">
          <mxGeometry relative="1" as="geometry">
            <mxPoint x="550" y="110" as="sourcePoint" />
            <mxPoint x="570.0000000000002" y="100" as="targetPoint" />
          </mxGeometry>
        </mxCell>
        <mxCell id="crY-5EgnexApUD86SIgZ-64" value="joined" style="ellipse;whiteSpace=wrap;html=1;align=center;fontSize=11;fontStyle=0" parent="crY-5EgnexApUD86SIgZ-1" vertex="1">
          <mxGeometry x="560" y="1080" width="80" height="20" as="geometry" />
        </mxCell>
        <mxCell id="crY-5EgnexApUD86SIgZ-65" style="rounded=0;orthogonalLoop=1;jettySize=auto;html=1;exitX=0.5;exitY=1;exitDx=0;exitDy=0;entryX=0.5;entryY=0;entryDx=0;entryDy=0;" parent="crY-5EgnexApUD86SIgZ-1" source="crY-5EgnexApUD86SIgZ-67" target="crY-5EgnexApUD86SIgZ-118" edge="1">
          <mxGeometry relative="1" as="geometry">
            <mxPoint x="200" y="550" as="targetPoint" />
          </mxGeometry>
        </mxCell>
        <mxCell id="crY-5EgnexApUD86SIgZ-66" value="1" style="edgeLabel;html=1;align=center;verticalAlign=middle;resizable=0;points=[];fontSize=12;" parent="crY-5EgnexApUD86SIgZ-65" vertex="1" connectable="0">
          <mxGeometry x="0.4934" y="4" relative="1" as="geometry">
            <mxPoint x="-14" as="offset" />
          </mxGeometry>
        </mxCell>
        <mxCell id="crY-5EgnexApUD86SIgZ-67" value="From &amp;amp; To" style="shape=rhombus;perimeter=rhombusPerimeter;whiteSpace=wrap;html=1;align=center;fontSize=11;" parent="crY-5EgnexApUD86SIgZ-1" vertex="1">
          <mxGeometry x="139.99999999999994" y="450" width="80" height="40" as="geometry" />
        </mxCell>
        <mxCell id="crY-5EgnexApUD86SIgZ-68" value="fare" style="ellipse;whiteSpace=wrap;html=1;align=center;fontSize=11;" parent="crY-5EgnexApUD86SIgZ-1" vertex="1">
          <mxGeometry x="39.92" y="360" width="80" height="20" as="geometry" />
        </mxCell>
        <mxCell id="crY-5EgnexApUD86SIgZ-69" value="&lt;span style=&quot;border-bottom: 1px dotted; font-size: 11px;&quot;&gt;passenger_id&lt;/span&gt;" style="ellipse;whiteSpace=wrap;html=1;align=center;fontSize=11;" parent="crY-5EgnexApUD86SIgZ-1" vertex="1">
          <mxGeometry x="39.92" y="320" width="80" height="20" as="geometry" />
        </mxCell>
        <mxCell id="crY-5EgnexApUD86SIgZ-70" value="" style="endArrow=none;html=1;rounded=0;fontSize=11;exitX=0;exitY=0;exitDx=0;exitDy=0;entryX=1;entryY=0.5;entryDx=0;entryDy=0;" parent="crY-5EgnexApUD86SIgZ-1" source="crY-5EgnexApUD86SIgZ-100" target="crY-5EgnexApUD86SIgZ-69" edge="1">
          <mxGeometry relative="1" as="geometry">
            <mxPoint x="140.0000000000001" y="340" as="sourcePoint" />
            <mxPoint x="129.9999999999934" y="330" as="targetPoint" />
          </mxGeometry>
        </mxCell>
        <mxCell id="crY-5EgnexApUD86SIgZ-71" value="&lt;span style=&quot;border-bottom: 1px dotted; font-size: 11px;&quot;&gt;train_id&lt;/span&gt;" style="ellipse;whiteSpace=wrap;html=1;align=center;fontSize=11;" parent="crY-5EgnexApUD86SIgZ-1" vertex="1">
          <mxGeometry x="880" y="800" width="80" height="20" as="geometry" />
        </mxCell>
        <mxCell id="crY-5EgnexApUD86SIgZ-72" value="&lt;span style=&quot;border-bottom: 1px dotted; font-size: 11px;&quot;&gt;wagon_id&lt;/span&gt;" style="ellipse;whiteSpace=wrap;html=1;align=center;fontSize=11;" parent="crY-5EgnexApUD86SIgZ-1" vertex="1">
          <mxGeometry x="880" y="840" width="80" height="20" as="geometry" />
        </mxCell>
        <mxCell id="crY-5EgnexApUD86SIgZ-73" value="" style="endArrow=none;html=1;rounded=0;fontSize=11;exitX=1;exitY=0;exitDx=0;exitDy=0;entryX=0;entryY=0.5;entryDx=0;entryDy=0;" parent="crY-5EgnexApUD86SIgZ-1" source="crY-5EgnexApUD86SIgZ-93" target="crY-5EgnexApUD86SIgZ-71" edge="1">
          <mxGeometry relative="1" as="geometry">
            <mxPoint x="860" y="820" as="sourcePoint" />
            <mxPoint x="790" y="590" as="targetPoint" />
          </mxGeometry>
        </mxCell>
        <mxCell id="crY-5EgnexApUD86SIgZ-74" value="" style="endArrow=none;html=1;rounded=0;fontSize=11;exitX=1;exitY=1;exitDx=0;exitDy=0;entryX=0;entryY=0.5;entryDx=0;entryDy=0;" parent="crY-5EgnexApUD86SIgZ-1" source="crY-5EgnexApUD86SIgZ-93" target="crY-5EgnexApUD86SIgZ-72" edge="1">
          <mxGeometry relative="1" as="geometry">
            <mxPoint x="860" y="840" as="sourcePoint" />
            <mxPoint x="890" y="810" as="targetPoint" />
          </mxGeometry>
        </mxCell>
        <mxCell id="crY-5EgnexApUD86SIgZ-75" value="track_color" style="ellipse;whiteSpace=wrap;html=1;align=center;fontSize=11;fontStyle=4" parent="crY-5EgnexApUD86SIgZ-1" vertex="1">
          <mxGeometry x="40.00000000000003" y="800" width="80" height="20" as="geometry" />
        </mxCell>
        <mxCell id="crY-5EgnexApUD86SIgZ-76" value="is_24h" style="ellipse;whiteSpace=wrap;html=1;align=center;fontSize=11;fontStyle=0" parent="crY-5EgnexApUD86SIgZ-1" vertex="1">
          <mxGeometry x="40.00000000000003" y="840" width="80" height="20" as="geometry" />
        </mxCell>
        <mxCell id="crY-5EgnexApUD86SIgZ-77" value="" style="endArrow=none;html=1;rounded=0;fontSize=11;entryX=1;entryY=0.5;entryDx=0;entryDy=0;exitX=0;exitY=0.25;exitDx=0;exitDy=0;" parent="crY-5EgnexApUD86SIgZ-1" source="crY-5EgnexApUD86SIgZ-5" target="crY-5EgnexApUD86SIgZ-75" edge="1">
          <mxGeometry relative="1" as="geometry">
            <mxPoint x="170" y="760" as="sourcePoint" />
            <mxPoint x="118.90567428590816" y="786.9122264596738" as="targetPoint" />
          </mxGeometry>
        </mxCell>
        <mxCell id="crY-5EgnexApUD86SIgZ-78" value="" style="endArrow=none;html=1;rounded=0;fontSize=11;entryX=1;entryY=0.5;entryDx=0;entryDy=0;exitX=0;exitY=0.75;exitDx=0;exitDy=0;" parent="crY-5EgnexApUD86SIgZ-1" source="crY-5EgnexApUD86SIgZ-5" target="crY-5EgnexApUD86SIgZ-76" edge="1">
          <mxGeometry relative="1" as="geometry">
            <mxPoint x="170" y="910" as="sourcePoint" />
            <mxPoint x="130" y="820" as="targetPoint" />
          </mxGeometry>
        </mxCell>
        <mxCell id="crY-5EgnexApUD86SIgZ-79" value="" style="shape=link;html=1;rounded=0;entryX=1;entryY=0.5;entryDx=0;entryDy=0;exitX=0;exitY=0.5;exitDx=0;exitDy=0;" parent="crY-5EgnexApUD86SIgZ-1" source="crY-5EgnexApUD86SIgZ-44" target="crY-5EgnexApUD86SIgZ-41" edge="1">
          <mxGeometry relative="1" as="geometry">
            <mxPoint x="300" y="1030" as="sourcePoint" />
            <mxPoint x="240" y="1100" as="targetPoint" />
          </mxGeometry>
        </mxCell>
        <mxCell id="crY-5EgnexApUD86SIgZ-80" value="N" style="edgeLabel;html=1;align=center;verticalAlign=middle;resizable=0;points=[];fontSize=12;" parent="crY-5EgnexApUD86SIgZ-79" vertex="1" connectable="0">
          <mxGeometry x="0.525" y="1" relative="1" as="geometry">
            <mxPoint x="-9" y="-11" as="offset" />
          </mxGeometry>
        </mxCell>
        <mxCell id="crY-5EgnexApUD86SIgZ-81" style="rounded=0;orthogonalLoop=1;jettySize=auto;html=1;exitX=0.5;exitY=1;exitDx=0;exitDy=0;entryX=0.5;entryY=0;entryDx=0;entryDy=0;" parent="crY-5EgnexApUD86SIgZ-1" source="crY-5EgnexApUD86SIgZ-83" target="crY-5EgnexApUD86SIgZ-4" edge="1">
          <mxGeometry relative="1" as="geometry" />
        </mxCell>
        <mxCell id="crY-5EgnexApUD86SIgZ-82" value="1" style="edgeLabel;html=1;align=center;verticalAlign=middle;resizable=0;points=[];fontSize=12;" parent="crY-5EgnexApUD86SIgZ-81" vertex="1" connectable="0">
          <mxGeometry x="0.6105" y="-1" relative="1" as="geometry">
            <mxPoint x="-9" y="-3" as="offset" />
          </mxGeometry>
        </mxCell>
        <mxCell id="crY-5EgnexApUD86SIgZ-83" value="Controlled" style="shape=rhombus;perimeter=rhombusPerimeter;whiteSpace=wrap;html=1;align=center;fontSize=11;" parent="crY-5EgnexApUD86SIgZ-1" vertex="1">
          <mxGeometry x="459.91999999999996" y="920" width="80" height="40" as="geometry" />
        </mxCell>
        <mxCell id="crY-5EgnexApUD86SIgZ-84" value="" style="shape=link;html=1;rounded=0;entryX=0.5;entryY=1;entryDx=0;entryDy=0;exitX=0.5;exitY=0;exitDx=0;exitDy=0;" parent="crY-5EgnexApUD86SIgZ-1" source="crY-5EgnexApUD86SIgZ-83" target="crY-5EgnexApUD86SIgZ-2" edge="1">
          <mxGeometry relative="1" as="geometry">
            <mxPoint x="710" y="1080" as="sourcePoint" />
            <mxPoint x="790" y="1080" as="targetPoint" />
          </mxGeometry>
        </mxCell>
        <mxCell id="crY-5EgnexApUD86SIgZ-85" value="N" style="edgeLabel;html=1;align=center;verticalAlign=middle;resizable=0;points=[];fontSize=12;" parent="crY-5EgnexApUD86SIgZ-84" vertex="1" connectable="0">
          <mxGeometry x="0.525" y="1" relative="1" as="geometry">
            <mxPoint x="-9" y="-6" as="offset" />
          </mxGeometry>
        </mxCell>
        <mxCell id="crY-5EgnexApUD86SIgZ-86" style="rounded=0;orthogonalLoop=1;jettySize=auto;html=1;exitX=0;exitY=0.5;exitDx=0;exitDy=0;entryX=1;entryY=0.5;entryDx=0;entryDy=0;" parent="crY-5EgnexApUD86SIgZ-1" source="crY-5EgnexApUD86SIgZ-88" target="crY-5EgnexApUD86SIgZ-5" edge="1">
          <mxGeometry relative="1" as="geometry" />
        </mxCell>
        <mxCell id="crY-5EgnexApUD86SIgZ-87" value="1" style="edgeLabel;html=1;align=center;verticalAlign=middle;resizable=0;points=[];fontSize=12;" parent="crY-5EgnexApUD86SIgZ-86" vertex="1" connectable="0">
          <mxGeometry x="0.4801" y="2" relative="1" as="geometry">
            <mxPoint x="-1" y="-12" as="offset" />
          </mxGeometry>
        </mxCell>
        <mxCell id="crY-5EgnexApUD86SIgZ-88" value="Travels" style="shape=rhombus;perimeter=rhombusPerimeter;whiteSpace=wrap;html=1;align=center;fontSize=11;" parent="crY-5EgnexApUD86SIgZ-1" vertex="1">
          <mxGeometry x="300" y="810" width="80" height="40" as="geometry" />
        </mxCell>
        <mxCell id="crY-5EgnexApUD86SIgZ-89" value="" style="shape=link;html=1;rounded=0;entryX=0;entryY=0.5;entryDx=0;entryDy=0;exitX=1;exitY=0.5;exitDx=0;exitDy=0;" parent="crY-5EgnexApUD86SIgZ-1" source="crY-5EgnexApUD86SIgZ-88" target="crY-5EgnexApUD86SIgZ-2" edge="1">
          <mxGeometry relative="1" as="geometry">
            <mxPoint x="510" y="930" as="sourcePoint" />
            <mxPoint x="510" y="860" as="targetPoint" />
          </mxGeometry>
        </mxCell>
        <mxCell id="crY-5EgnexApUD86SIgZ-90" value="N" style="edgeLabel;html=1;align=center;verticalAlign=middle;resizable=0;points=[];fontSize=12;" parent="crY-5EgnexApUD86SIgZ-89" vertex="1" connectable="0">
          <mxGeometry x="0.525" y="1" relative="1" as="geometry">
            <mxPoint x="9" y="-9" as="offset" />
          </mxGeometry>
        </mxCell>
        <mxCell id="crY-5EgnexApUD86SIgZ-91" value="" style="shape=link;html=1;rounded=0;entryX=0.5;entryY=0;entryDx=0;entryDy=0;exitX=0.5;exitY=1;exitDx=0;exitDy=0;" parent="crY-5EgnexApUD86SIgZ-1" source="crY-5EgnexApUD86SIgZ-10" target="crY-5EgnexApUD86SIgZ-2" edge="1">
          <mxGeometry relative="1" as="geometry">
            <mxPoint x="390" y="840" as="sourcePoint" />
            <mxPoint x="470" y="840" as="targetPoint" />
          </mxGeometry>
        </mxCell>
        <mxCell id="crY-5EgnexApUD86SIgZ-92" value="N" style="edgeLabel;html=1;align=center;verticalAlign=middle;resizable=0;points=[];fontSize=12;" parent="crY-5EgnexApUD86SIgZ-91" vertex="1" connectable="0">
          <mxGeometry x="0.6583" y="3" relative="1" as="geometry">
            <mxPoint x="-13" y="3" as="offset" />
          </mxGeometry>
        </mxCell>
        <mxCell id="crY-5EgnexApUD86SIgZ-93" value="Railcar" style="shape=rhombus;double=1;perimeter=rhombusPerimeter;whiteSpace=wrap;html=1;align=center;fontStyle=1" parent="crY-5EgnexApUD86SIgZ-1" vertex="1">
          <mxGeometry x="780" y="810" width="80" height="40" as="geometry" />
        </mxCell>
        <mxCell id="crY-5EgnexApUD86SIgZ-94" value="" style="shape=link;html=1;rounded=0;entryX=0.5;entryY=0;entryDx=0;entryDy=0;exitX=0.5;exitY=1;exitDx=0;exitDy=0;" parent="crY-5EgnexApUD86SIgZ-1" source="crY-5EgnexApUD86SIgZ-13" target="crY-5EgnexApUD86SIgZ-93" edge="1">
          <mxGeometry relative="1" as="geometry">
            <mxPoint x="510" y="740" as="sourcePoint" />
            <mxPoint x="510" y="820" as="targetPoint" />
          </mxGeometry>
        </mxCell>
        <mxCell id="crY-5EgnexApUD86SIgZ-95" value="N" style="edgeLabel;html=1;align=center;verticalAlign=middle;resizable=0;points=[];fontSize=12;" parent="crY-5EgnexApUD86SIgZ-94" vertex="1" connectable="0">
          <mxGeometry x="0.6583" y="3" relative="1" as="geometry">
            <mxPoint x="-13" y="3" as="offset" />
          </mxGeometry>
        </mxCell>
        <mxCell id="crY-5EgnexApUD86SIgZ-96" value="" style="shape=link;html=1;rounded=0;entryX=0;entryY=0.5;entryDx=0;entryDy=0;exitX=1;exitY=0.5;exitDx=0;exitDy=0;" parent="crY-5EgnexApUD86SIgZ-1" source="crY-5EgnexApUD86SIgZ-20" target="crY-5EgnexApUD86SIgZ-93" edge="1">
          <mxGeometry relative="1" as="geometry">
            <mxPoint x="710" y="1080" as="sourcePoint" />
            <mxPoint x="790" y="1080" as="targetPoint" />
          </mxGeometry>
        </mxCell>
        <mxCell id="crY-5EgnexApUD86SIgZ-97" value="1" style="edgeLabel;html=1;align=center;verticalAlign=middle;resizable=0;points=[];fontSize=12;" parent="crY-5EgnexApUD86SIgZ-96" vertex="1" connectable="0">
          <mxGeometry x="0.525" y="1" relative="1" as="geometry">
            <mxPoint x="9" y="-9" as="offset" />
          </mxGeometry>
        </mxCell>
        <mxCell id="crY-5EgnexApUD86SIgZ-98" value="" style="shape=link;html=1;rounded=0;exitX=0.5;exitY=0;exitDx=0;exitDy=0;entryX=0.5;entryY=1;entryDx=0;entryDy=0;" parent="crY-5EgnexApUD86SIgZ-1" source="crY-5EgnexApUD86SIgZ-16" target="crY-5EgnexApUD86SIgZ-118" edge="1">
          <mxGeometry relative="1" as="geometry">
            <mxPoint x="510" y="930" as="sourcePoint" />
            <mxPoint x="200" y="630" as="targetPoint" />
          </mxGeometry>
        </mxCell>
        <mxCell id="crY-5EgnexApUD86SIgZ-99" value="N" style="edgeLabel;html=1;align=center;verticalAlign=middle;resizable=0;points=[];fontSize=12;" parent="crY-5EgnexApUD86SIgZ-98" vertex="1" connectable="0">
          <mxGeometry x="0.525" y="1" relative="1" as="geometry">
            <mxPoint x="-9" y="-6" as="offset" />
          </mxGeometry>
        </mxCell>
        <mxCell id="crY-5EgnexApUD86SIgZ-100" value="Trip" style="shape=rhombus;double=1;perimeter=rhombusPerimeter;whiteSpace=wrap;html=1;align=center;fontStyle=1" parent="crY-5EgnexApUD86SIgZ-1" vertex="1">
          <mxGeometry x="140.08000000000004" y="330" width="80" height="40" as="geometry" />
        </mxCell>
        <mxCell id="crY-5EgnexApUD86SIgZ-101" value="" style="shape=link;html=1;rounded=0;entryX=0.5;entryY=1;entryDx=0;entryDy=0;exitX=0.5;exitY=0;exitDx=0;exitDy=0;" parent="crY-5EgnexApUD86SIgZ-1" source="crY-5EgnexApUD86SIgZ-67" target="crY-5EgnexApUD86SIgZ-100" edge="1">
          <mxGeometry relative="1" as="geometry">
            <mxPoint x="110" y="430" as="sourcePoint" />
            <mxPoint x="190" y="620" as="targetPoint" />
          </mxGeometry>
        </mxCell>
        <mxCell id="crY-5EgnexApUD86SIgZ-102" value="N" style="edgeLabel;html=1;align=center;verticalAlign=middle;resizable=0;points=[];fontSize=12;" parent="crY-5EgnexApUD86SIgZ-101" vertex="1" connectable="0">
          <mxGeometry x="0.525" y="1" relative="1" as="geometry">
            <mxPoint x="-9" y="-6" as="offset" />
          </mxGeometry>
        </mxCell>
        <mxCell id="crY-5EgnexApUD86SIgZ-103" value="" style="html=1;rounded=0;entryX=1;entryY=0.5;entryDx=0;entryDy=0;exitX=0;exitY=0.5;exitDx=0;exitDy=0;" parent="crY-5EgnexApUD86SIgZ-1" source="crY-5EgnexApUD86SIgZ-20" target="crY-5EgnexApUD86SIgZ-2" edge="1">
          <mxGeometry relative="1" as="geometry">
            <mxPoint x="710" y="840" as="sourcePoint" />
            <mxPoint x="790" y="840" as="targetPoint" />
          </mxGeometry>
        </mxCell>
        <mxCell id="crY-5EgnexApUD86SIgZ-104" value="1" style="edgeLabel;html=1;align=center;verticalAlign=middle;resizable=0;points=[];fontSize=12;" parent="crY-5EgnexApUD86SIgZ-103" vertex="1" connectable="0">
          <mxGeometry x="0.525" y="1" relative="1" as="geometry">
            <mxPoint x="-9" y="-11" as="offset" />
          </mxGeometry>
        </mxCell>
        <mxCell id="crY-5EgnexApUD86SIgZ-105" value="" style="shape=link;html=1;rounded=0;entryX=1;entryY=0.5;entryDx=0;entryDy=0;exitX=0;exitY=0.5;exitDx=0;exitDy=0;" parent="crY-5EgnexApUD86SIgZ-1" source="crY-5EgnexApUD86SIgZ-19" target="crY-5EgnexApUD86SIgZ-100" edge="1">
          <mxGeometry relative="1" as="geometry">
            <mxPoint x="390" y="840" as="sourcePoint" />
            <mxPoint x="470" y="840" as="targetPoint" />
          </mxGeometry>
        </mxCell>
        <mxCell id="crY-5EgnexApUD86SIgZ-106" value="N" style="edgeLabel;html=1;align=center;verticalAlign=middle;resizable=0;points=[];fontSize=12;" parent="crY-5EgnexApUD86SIgZ-105" vertex="1" connectable="0">
          <mxGeometry x="0.525" y="1" relative="1" as="geometry">
            <mxPoint x="-9" y="-11" as="offset" />
          </mxGeometry>
        </mxCell>
        <mxCell id="crY-5EgnexApUD86SIgZ-107" style="rounded=0;orthogonalLoop=1;jettySize=auto;html=1;exitX=0.5;exitY=1;exitDx=0;exitDy=0;entryX=0.5;entryY=0;entryDx=0;entryDy=0;" parent="crY-5EgnexApUD86SIgZ-1" source="crY-5EgnexApUD86SIgZ-57" target="crY-5EgnexApUD86SIgZ-3" edge="1">
          <mxGeometry relative="1" as="geometry">
            <mxPoint x="690" y="370" as="sourcePoint" />
            <mxPoint x="690" y="450" as="targetPoint" />
          </mxGeometry>
        </mxCell>
        <mxCell id="crY-5EgnexApUD86SIgZ-108" value="1" style="edgeLabel;html=1;align=center;verticalAlign=middle;resizable=0;points=[];fontSize=12;" parent="crY-5EgnexApUD86SIgZ-107" vertex="1" connectable="0">
          <mxGeometry x="0.6362" y="-1" relative="1" as="geometry">
            <mxPoint x="-9" y="-6" as="offset" />
          </mxGeometry>
        </mxCell>
        <mxCell id="crY-5EgnexApUD86SIgZ-109" value="" style="shape=link;html=1;rounded=0;entryX=0.5;entryY=1;entryDx=0;entryDy=0;exitX=0.5;exitY=0;exitDx=0;exitDy=0;" parent="crY-5EgnexApUD86SIgZ-1" source="crY-5EgnexApUD86SIgZ-57" target="crY-5EgnexApUD86SIgZ-37" edge="1">
          <mxGeometry relative="1" as="geometry">
            <mxPoint x="690" y="330" as="sourcePoint" />
            <mxPoint x="690" y="250" as="targetPoint" />
          </mxGeometry>
        </mxCell>
        <mxCell id="crY-5EgnexApUD86SIgZ-110" value="N" style="edgeLabel;html=1;align=center;verticalAlign=middle;resizable=0;points=[];fontSize=12;" parent="crY-5EgnexApUD86SIgZ-109" vertex="1" connectable="0">
          <mxGeometry x="0.525" y="1" relative="1" as="geometry">
            <mxPoint x="-9" y="-6" as="offset" />
          </mxGeometry>
        </mxCell>
        <mxCell id="crY-5EgnexApUD86SIgZ-111" value="" style="endArrow=none;html=1;rounded=0;exitX=0;exitY=1;exitDx=0;exitDy=0;entryX=1;entryY=0;entryDx=0;entryDy=0;" parent="crY-5EgnexApUD86SIgZ-1" source="crY-5EgnexApUD86SIgZ-40" target="crY-5EgnexApUD86SIgZ-100" edge="1">
          <mxGeometry relative="1" as="geometry">
            <mxPoint x="400" y="330" as="sourcePoint" />
            <mxPoint x="560" y="330" as="targetPoint" />
          </mxGeometry>
        </mxCell>
        <mxCell id="crY-5EgnexApUD86SIgZ-112" value="1" style="edgeLabel;html=1;align=center;verticalAlign=middle;resizable=0;points=[];fontSize=12;" parent="crY-5EgnexApUD86SIgZ-111" vertex="1" connectable="0">
          <mxGeometry x="0.8331" relative="1" as="geometry">
            <mxPoint y="-12" as="offset" />
          </mxGeometry>
        </mxCell>
        <mxCell id="crY-5EgnexApUD86SIgZ-113" value="" style="endArrow=none;html=1;rounded=0;dashed=1;dashPattern=1 2;entryX=0;entryY=1;entryDx=0;entryDy=0;exitX=1;exitY=0.5;exitDx=0;exitDy=0;" parent="crY-5EgnexApUD86SIgZ-1" source="crY-5EgnexApUD86SIgZ-68" target="crY-5EgnexApUD86SIgZ-100" edge="1">
          <mxGeometry relative="1" as="geometry">
            <mxPoint x="190" y="380" as="sourcePoint" />
            <mxPoint x="350" y="380" as="targetPoint" />
          </mxGeometry>
        </mxCell>
        <mxCell id="crY-5EgnexApUD86SIgZ-114" value="&lt;span style=&quot;border-bottom: 1px dotted; font-size: 11px;&quot;&gt;trip_timestamp&lt;/span&gt;" style="ellipse;whiteSpace=wrap;html=1;align=center;fontSize=11;" parent="crY-5EgnexApUD86SIgZ-1" vertex="1">
          <mxGeometry x="39.92" y="280" width="80" height="20" as="geometry" />
        </mxCell>
        <mxCell id="crY-5EgnexApUD86SIgZ-115" value="" style="endArrow=none;html=1;rounded=0;fontSize=11;entryX=1;entryY=1;entryDx=0;entryDy=0;exitX=0;exitY=0;exitDx=0;exitDy=0;" parent="crY-5EgnexApUD86SIgZ-1" source="crY-5EgnexApUD86SIgZ-100" target="crY-5EgnexApUD86SIgZ-114" edge="1">
          <mxGeometry relative="1" as="geometry">
            <mxPoint x="180" y="300" as="sourcePoint" />
            <mxPoint x="130" y="340" as="targetPoint" />
          </mxGeometry>
        </mxCell>
        <mxCell id="crY-5EgnexApUD86SIgZ-116" value="fullname" style="ellipse;whiteSpace=wrap;html=1;align=center;fontSize=11;fontStyle=0" parent="crY-5EgnexApUD86SIgZ-1" vertex="1">
          <mxGeometry x="560" y="320" width="80" height="20" as="geometry" />
        </mxCell>
        <mxCell id="crY-5EgnexApUD86SIgZ-117" value="" style="endArrow=none;html=1;rounded=0;fontSize=11;exitX=0;exitY=0.5;exitDx=0;exitDy=0;entryX=1;entryY=0.75;entryDx=0;entryDy=0;" parent="crY-5EgnexApUD86SIgZ-1" source="XWP0877ULLsGer_YbKBk-0" target="crY-5EgnexApUD86SIgZ-3" edge="1">
          <mxGeometry relative="1" as="geometry">
            <mxPoint x="570" y="340" as="sourcePoint" />
            <mxPoint x="550" y="350" as="targetPoint" />
          </mxGeometry>
        </mxCell>
        <mxCell id="crY-5EgnexApUD86SIgZ-118" value="Station" style="shape=ext;margin=3;double=1;whiteSpace=wrap;html=1;align=center;fontStyle=1" parent="crY-5EgnexApUD86SIgZ-1" vertex="1">
          <mxGeometry x="140.16000000000003" y="570" width="79.92" height="40" as="geometry" />
        </mxCell>
        <mxCell id="crY-5EgnexApUD86SIgZ-119" value="&lt;span style=&quot;border-bottom: 1px dotted; font-size: 11px;&quot;&gt;station_name&lt;/span&gt;" style="ellipse;whiteSpace=wrap;html=1;align=center;fontSize=11;" parent="crY-5EgnexApUD86SIgZ-1" vertex="1">
          <mxGeometry x="39.92" y="520" width="80" height="20" as="geometry" />
        </mxCell>
        <mxCell id="crY-5EgnexApUD86SIgZ-120" value="" style="endArrow=none;html=1;rounded=0;fontSize=11;exitX=0;exitY=0;exitDx=0;exitDy=0;entryX=1;entryY=1;entryDx=0;entryDy=0;" parent="crY-5EgnexApUD86SIgZ-1" source="crY-5EgnexApUD86SIgZ-118" target="crY-5EgnexApUD86SIgZ-119" edge="1">
          <mxGeometry relative="1" as="geometry">
            <mxPoint x="170" y="350" as="sourcePoint" />
            <mxPoint x="130" y="340" as="targetPoint" />
          </mxGeometry>
        </mxCell>
        <mxCell id="crY-5EgnexApUD86SIgZ-121" value="" style="endArrow=none;html=1;rounded=0;fontSize=11;exitX=0;exitY=0.25;exitDx=0;exitDy=0;entryX=1;entryY=0.5;entryDx=0;entryDy=0;" parent="crY-5EgnexApUD86SIgZ-1" source="crY-5EgnexApUD86SIgZ-118" target="crY-5EgnexApUD86SIgZ-138" edge="1">
          <mxGeometry relative="1" as="geometry">
            <mxPoint x="150" y="580" as="sourcePoint" />
            <mxPoint x="119.92000000000007" y="570" as="targetPoint" />
          </mxGeometry>
        </mxCell>
        <mxCell id="crY-5EgnexApUD86SIgZ-122" value="" style="endArrow=none;html=1;rounded=0;dashed=1;dashPattern=1 2;exitX=0;exitY=1;exitDx=0;exitDy=0;entryX=1;entryY=0;entryDx=0;entryDy=0;" parent="crY-5EgnexApUD86SIgZ-1" source="crY-5EgnexApUD86SIgZ-22" target="crY-5EgnexApUD86SIgZ-118" edge="1">
          <mxGeometry relative="1" as="geometry">
            <mxPoint x="130" y="380" as="sourcePoint" />
            <mxPoint x="130" y="640" as="targetPoint" />
          </mxGeometry>
        </mxCell>
        <mxCell id="crY-5EgnexApUD86SIgZ-123" value="location" style="ellipse;whiteSpace=wrap;html=1;align=center;fontSize=11;fontStyle=0" parent="crY-5EgnexApUD86SIgZ-1" vertex="1">
          <mxGeometry x="39.92000000000003" y="640" width="80" height="20" as="geometry" />
        </mxCell>
        <mxCell id="crY-5EgnexApUD86SIgZ-124" value="" style="endArrow=none;html=1;rounded=0;fontSize=11;entryX=0;entryY=1;entryDx=0;entryDy=0;exitX=1;exitY=0;exitDx=0;exitDy=0;" parent="crY-5EgnexApUD86SIgZ-1" source="crY-5EgnexApUD86SIgZ-123" target="crY-5EgnexApUD86SIgZ-118" edge="1">
          <mxGeometry relative="1" as="geometry">
            <mxPoint x="150" y="660" as="sourcePoint" />
            <mxPoint x="130" y="620" as="targetPoint" />
            <Array as="points">
              <mxPoint x="120" y="630" />
            </Array>
          </mxGeometry>
        </mxCell>
        <mxCell id="crY-5EgnexApUD86SIgZ-125" value="birth" style="ellipse;whiteSpace=wrap;html=1;align=center;fontSize=11;fontStyle=0" parent="crY-5EgnexApUD86SIgZ-1" vertex="1">
          <mxGeometry x="560" y="1120" width="80" height="20" as="geometry" />
        </mxCell>
        <mxCell id="crY-5EgnexApUD86SIgZ-126" value="phones" style="ellipse;shape=doubleEllipse;margin=3;whiteSpace=wrap;html=1;align=center;fontSize=11;" parent="crY-5EgnexApUD86SIgZ-1" vertex="1">
          <mxGeometry x="360" y="1120" width="80" height="20" as="geometry" />
        </mxCell>
        <mxCell id="crY-5EgnexApUD86SIgZ-127" value="age" style="ellipse;whiteSpace=wrap;html=1;align=center;dashed=1;fontSize=11;" parent="crY-5EgnexApUD86SIgZ-1" vertex="1">
          <mxGeometry x="460" y="1120" width="80" height="20" as="geometry" />
        </mxCell>
        <mxCell id="crY-5EgnexApUD86SIgZ-128" value="" style="endArrow=none;html=1;rounded=0;fontSize=11;entryX=0;entryY=1;entryDx=0;entryDy=0;exitX=1;exitY=0;exitDx=0;exitDy=0;" parent="crY-5EgnexApUD86SIgZ-1" source="crY-5EgnexApUD86SIgZ-126" target="crY-5EgnexApUD86SIgZ-4" edge="1">
          <mxGeometry relative="1" as="geometry">
            <mxPoint x="150" y="850" as="sourcePoint" />
            <mxPoint x="130" y="860" as="targetPoint" />
          </mxGeometry>
        </mxCell>
        <mxCell id="crY-5EgnexApUD86SIgZ-129" value="" style="endArrow=none;html=1;rounded=0;fontSize=11;entryX=1;entryY=1;entryDx=0;entryDy=0;exitX=0;exitY=0;exitDx=0;exitDy=0;" parent="crY-5EgnexApUD86SIgZ-1" source="crY-5EgnexApUD86SIgZ-125" target="crY-5EgnexApUD86SIgZ-4" edge="1">
          <mxGeometry relative="1" as="geometry">
            <mxPoint x="581" y="1133" as="sourcePoint" />
            <mxPoint x="550" y="1100" as="targetPoint" />
          </mxGeometry>
        </mxCell>
        <mxCell id="crY-5EgnexApUD86SIgZ-130" value="" style="endArrow=none;html=1;rounded=0;fontSize=11;entryX=1;entryY=0.75;entryDx=0;entryDy=0;exitX=0;exitY=0.5;exitDx=0;exitDy=0;" parent="crY-5EgnexApUD86SIgZ-1" source="crY-5EgnexApUD86SIgZ-64" target="crY-5EgnexApUD86SIgZ-4" edge="1">
          <mxGeometry relative="1" as="geometry">
            <mxPoint x="439" y="1133" as="sourcePoint" />
            <mxPoint x="470" y="1100" as="targetPoint" />
          </mxGeometry>
        </mxCell>
        <mxCell id="crY-5EgnexApUD86SIgZ-131" value="" style="endArrow=none;html=1;rounded=0;fontSize=11;entryX=1;entryY=0.25;entryDx=0;entryDy=0;exitX=0;exitY=0.5;exitDx=0;exitDy=0;" parent="crY-5EgnexApUD86SIgZ-1" source="XWP0877ULLsGer_YbKBk-2" target="crY-5EgnexApUD86SIgZ-4" edge="1">
          <mxGeometry relative="1" as="geometry">
            <mxPoint x="450" y="1100" as="sourcePoint" />
            <mxPoint x="470" y="1090" as="targetPoint" />
          </mxGeometry>
        </mxCell>
        <mxCell id="crY-5EgnexApUD86SIgZ-132" value="" style="endArrow=none;html=1;rounded=0;fontSize=11;entryX=1;entryY=0;entryDx=0;entryDy=0;exitX=0;exitY=1;exitDx=0;exitDy=0;" parent="crY-5EgnexApUD86SIgZ-1" source="crY-5EgnexApUD86SIgZ-24" target="crY-5EgnexApUD86SIgZ-4" edge="1">
          <mxGeometry relative="1" as="geometry">
            <mxPoint x="460" y="1110" as="sourcePoint" />
            <mxPoint x="480" y="1100" as="targetPoint" />
          </mxGeometry>
        </mxCell>
        <mxCell id="crY-5EgnexApUD86SIgZ-133" style="rounded=0;orthogonalLoop=1;jettySize=auto;html=1;entryX=0.5;entryY=1;entryDx=0;entryDy=0;exitX=0.5;exitY=0;exitDx=0;exitDy=0;" parent="crY-5EgnexApUD86SIgZ-1" source="crY-5EgnexApUD86SIgZ-135" target="crY-5EgnexApUD86SIgZ-5" edge="1">
          <mxGeometry relative="1" as="geometry">
            <mxPoint x="230" y="880" as="targetPoint" />
            <mxPoint x="280" y="950" as="sourcePoint" />
          </mxGeometry>
        </mxCell>
        <mxCell id="crY-5EgnexApUD86SIgZ-134" value="1" style="edgeLabel;html=1;align=center;verticalAlign=middle;resizable=0;points=[];fontSize=12;" parent="crY-5EgnexApUD86SIgZ-133" vertex="1" connectable="0">
          <mxGeometry x="0.6105" y="-1" relative="1" as="geometry">
            <mxPoint x="-11" y="6" as="offset" />
          </mxGeometry>
        </mxCell>
        <mxCell id="crY-5EgnexApUD86SIgZ-135" value="Affects" style="shape=rhombus;perimeter=rhombusPerimeter;whiteSpace=wrap;html=1;align=center;fontSize=11;" parent="crY-5EgnexApUD86SIgZ-1" vertex="1">
          <mxGeometry x="140.15999999999997" y="920" width="80" height="40" as="geometry" />
        </mxCell>
        <mxCell id="crY-5EgnexApUD86SIgZ-136" value="" style="shape=link;html=1;rounded=0;entryX=0.5;entryY=0;entryDx=0;entryDy=0;exitX=0.5;exitY=1;exitDx=0;exitDy=0;" parent="crY-5EgnexApUD86SIgZ-1" source="crY-5EgnexApUD86SIgZ-135" target="crY-5EgnexApUD86SIgZ-41" edge="1">
          <mxGeometry relative="1" as="geometry">
            <mxPoint x="140" y="960" as="sourcePoint" />
            <mxPoint x="180.24" y="850" as="targetPoint" />
          </mxGeometry>
        </mxCell>
        <mxCell id="crY-5EgnexApUD86SIgZ-137" value="N" style="edgeLabel;html=1;align=center;verticalAlign=middle;resizable=0;points=[];fontSize=12;" parent="crY-5EgnexApUD86SIgZ-136" vertex="1" connectable="0">
          <mxGeometry x="0.525" y="1" relative="1" as="geometry">
            <mxPoint x="-11" y="11" as="offset" />
          </mxGeometry>
        </mxCell>
        <mxCell id="crY-5EgnexApUD86SIgZ-138" value="lat" style="ellipse;whiteSpace=wrap;html=1;align=center;fontSize=11;fontStyle=0" parent="crY-5EgnexApUD86SIgZ-1" vertex="1">
          <mxGeometry x="40.00000000000003" y="560" width="80" height="20" as="geometry" />
        </mxCell>
        <mxCell id="XWP0877ULLsGer_YbKBk-0" value="joined" style="ellipse;whiteSpace=wrap;html=1;align=center;fontSize=11;fontStyle=0" parent="crY-5EgnexApUD86SIgZ-1" vertex="1">
          <mxGeometry x="560" y="360" width="80" height="20" as="geometry" />
        </mxCell>
        <mxCell id="XWP0877ULLsGer_YbKBk-2" value="fullname" style="ellipse;whiteSpace=wrap;html=1;align=center;fontSize=11;fontStyle=0" parent="crY-5EgnexApUD86SIgZ-1" vertex="1">
          <mxGeometry x="560" y="1040" width="80" height="20" as="geometry" />
        </mxCell>
        <mxCell id="VaUiKXcEuQsfxIqrjhbG-1" value="title" style="ellipse;whiteSpace=wrap;html=1;align=center;fontSize=11;fontStyle=0" parent="crY-5EgnexApUD86SIgZ-1" vertex="1">
          <mxGeometry x="39.99999999999997" y="1040" width="80" height="20" as="geometry" />
        </mxCell>
      </root>
    </mxGraphModel>
  </diagram>
</mxfile>
